<svg xmlns="http://www.w3.org/2000/svg" xmlns:xlink="http://www.w3.org/1999/xlink" width="360" height="640" viewBox="0 0 360 640">
  <defs>
    <style>
      .cls-1 {
        fill: #fff;
      }

      .cls-2 {
        clip-path: url(#clip-path);
      }

      .cls-3 {
        fill: #04141c;
      }

      .cls-4 {
        fill: #021d27;
      }
    </style>
    <clipPath id="clip-path">
      <rect id="Rectangle_9" data-name="Rectangle 9" class="cls-1" width="360" height="640"/>
    </clipPath>
  </defs>
  <g id="BG" class="cls-2">
    <g id="BG-2" data-name="BG">
      <g id="Group_8" data-name="Group 8" transform="translate(507.458 392.056) rotate(142)">
        <path id="Path_33" data-name="Path 33" class="cls-3" d="M302.415,3.166c81.1-47.7,221.028,2.868,273.979,69.845C593.9,98.025,594.4,134.958,594.26,165.126c-.586,125.7-106.283,123.072-272.713,125.045C198.223,291.633,65.673,416.4,19.394,336.824,3.225,309.02-.147,266.889,0,234.333.591,108.636,195.707,65.936,302.415,3.166Z" transform="matrix(0.985, 0.174, -0.174, 0.985, -76.637, 43.556)"/>
        <path id="Path_32" data-name="Path 32" class="cls-4" d="M295.934,295.008c102.179-29.959,169.745,56.437,224.474,5.213a188.134,188.134,0,0,0,34.656-43.849c15.569-27.234,20.1-67.7,19.965-93.623-.548-102.873-60.237-213.317-219.387-215.1-117.929-1.32-286.053,8.921-330.315,74C9.863,44.393-.14,79.692,0,106.336.549,209.21,193.756,324.968,295.934,295.008Z" transform="matrix(-0.985, 0.174, -0.174, -0.985, 452.513, 569.708)"/>
      </g>
    </g>
  </g>
</svg>
