<svg xmlns="http://www.w3.org/2000/svg" xmlns:xlink="http://www.w3.org/1999/xlink" width="360" height="640" viewBox="0 0 360 640"><defs><style>.a{fill:#fff;}.b{clip-path:url(#a);}.c{fill:#080909;}.d{fill:#0f1010;}</style><clipPath id="a"><rect class="a" width="360" height="640"/></clipPath></defs><g class="b"><g transform="translate(-334.73 -283.863)"><g transform="translate(951.741 549.338) rotate(142)"><path class="c" d="M300.483,15.792c81.1-47.7,221.029,2.868,273.979,69.845,17.506,25.014,18.006,61.947,17.866,92.115-.586,125.7-106.283,123.072-272.713,125.045C196.291,304.26,63.741,429.029,17.463,349.451c-16.17-27.8-19.541-69.935-19.39-102.491C-1.341,121.262,193.776,78.562,300.483,15.792Z" transform="matrix(0.985, 0.174, -0.174, 0.985, 91.718, -0.844)"/><path class="d" d="M294.477,344.381c102.179-29.959,169.745,56.437,224.474,5.213a188.133,188.133,0,0,0,34.656-43.849c15.569-27.234,20.1-67.7,19.965-93.623C573.025,109.249,513.336-1.2,354.186-2.976,236.257-4.3,68.133,5.944,23.871,71.027,8.406,93.766-1.6,129.065-1.455,155.709-.908,258.583,192.3,374.341,294.477,344.381Z" transform="matrix(-0.985, 0.174, -0.174, -0.985, 623.912, 586.284)"/></g></g></g></svg>