<svg xmlns="http://www.w3.org/2000/svg" width="88.791" height="73.827" viewBox="0 0 88.791 73.827">
  <g id="Group_27" data-name="Group 27" transform="translate(0 0)">
    <g id="Group_25" data-name="Group 25" transform="matrix(0.035, 0.999, -0.999, 0.035, 65.837, 5.87)">
      <g id="Path_90" data-name="Path 90" transform="translate(0 0)" fill="#eb7464">
        <path d="M 38.81769561767578 64.87688446044922 C 36.98659515380859 64.87688446044922 35.07806777954102 64.7105712890625 33.14511489868164 64.38256072998047 C 23.18466758728027 62.69235229492188 15.81277656555176 59.03299331665039 10.60819625854492 53.19539260864258 C 6.1708664894104 48.21836090087891 3.247506618499756 41.66613006591797 1.408226728439331 32.57514190673828 C 0.2250866740942001 26.72728157043457 1.633676648139954 20.87116241455078 5.481706619262695 15.6398811340332 C 8.277046203613281 11.83970165252686 12.29037666320801 8.49419116973877 17.08782577514648 5.96502161026001 C 21.93608665466309 3.409061670303345 27.46622657775879 1.752061605453491 33.08038711547852 1.173151612281799 C 34.19459533691406 1.058251619338989 35.30402755737305 1.000001549720764 36.37786483764648 1.000001549720764 C 40.4224967956543 1.000001549720764 44.18108749389648 1.817541599273682 47.54923629760742 3.429911613464355 C 50.74999618530273 4.962141513824463 53.60102844238281 7.2106614112854 56.02312850952148 10.11300182342529 C 58.37285614013672 12.92861175537109 60.29773712158203 16.32983207702637 61.74431610107422 20.22220230102539 C 63.17267608642578 24.06554222106934 64.11052703857422 28.31943130493164 64.53182983398438 32.8657112121582 C 64.96909332275391 37.58447265625 64.55574798583984 42.10568237304688 63.30325698852539 46.30375289916992 C 62.0617561340332 50.46497344970703 60.06619644165039 54.07340240478516 57.37201690673828 57.02879333496094 C 52.6915283203125 62.16306304931641 46.27554702758789 64.87688446044922 38.81769561767578 64.87688446044922 Z" stroke="none"/>
        <path d="M 36.37786483764648 1.999992370605469 C 35.33811950683594 1.999992370605469 34.26319885253906 2.056472778320313 33.18295288085938 2.167877197265625 C 27.69476699829102 2.733795166015625 22.29042053222656 4.352718353271484 17.55417633056641 6.849617004394531 C 12.88961029052734 9.308731079101563 8.993576049804688 12.55325317382813 6.287254333496094 16.23240661621094 C 2.610897064208984 21.23030853271484 1.262687683105469 26.81295013427734 2.38836669921875 32.37683868408203 C 4.191043853759766 41.28689575195313 7.040130615234375 47.690673828125 11.35461044311523 52.5299072265625 C 16.40215301513672 58.19137573242188 23.58460998535156 61.74591827392578 33.31240844726563 63.39665222167969 C 35.19022369384766 63.71530914306641 37.04246520996094 63.87687301635742 38.81768798828125 63.87687301635742 C 45.98668670654297 63.87687301635742 52.14712142944336 61.27588653564453 56.63299942016602 56.35508728027344 C 59.22504425048828 53.51174163818359 61.14683151245117 50.03378295898438 62.34498596191406 46.01785278320313 C 63.56076431274414 41.94285202026367 63.96150970458984 37.54887390136719 63.53608703613281 32.95798492431641 C 63.12290954589844 28.49922943115234 62.20468902587891 24.33150863647461 60.80695343017578 20.57056427001953 C 59.40000915527344 16.78483963012695 57.53218841552734 13.48198318481445 55.25535583496094 10.75373077392578 C 52.92584228515625 7.96234130859375 50.1878547668457 5.801719665527344 47.11745452880859 4.331886291503906 C 43.88516616821289 2.784553527832031 40.27185440063477 1.999992370605469 36.37786483764648 1.999992370605469 M 36.37786102294922 0 C 53.65500640869141 0 63.81889724731445 14.33490371704102 65.52755737304688 32.77344131469727 C 67.17462158203125 50.54747009277344 56.82034301757813 65.87687683105469 38.81769561767578 65.87687683105469 C 36.95133590698242 65.87687683105469 35.00374603271484 65.71224975585938 32.97780990600586 65.36846160888672 C 11.40996551513672 61.70856475830078 3.752799987792969 49.20643997192383 0.4280853271484375 32.77344131469727 C -2.896636962890625 16.34045028686523 13.63567733764648 2.172904968261719 32.97780990600586 0.1784210205078125 C 34.13947296142578 0.05863189697265625 35.27391815185547 0 36.37786102294922 0 Z" stroke="none" fill="#0a0a0a"/>
      </g>
      <g id="Group_22" data-name="Group 22" transform="translate(15.589 32.573)" opacity="0.4">
        <g id="Path_91" data-name="Path 91" transform="translate(0 0)" fill="#90493f">
          <path d="M 10.26643848419189 14.75217342376709 C 7.795588970184326 14.75217342376709 5.377048969268799 14.06629371643066 3.63097882270813 12.8704137802124 C 1.934368968009949 11.70840358734131 0.999998927116394 10.17342376708984 0.999998927116394 8.548233985900879 C 0.999998927116394 7.098104000091553 1.231798887252808 5.02855396270752 2.336068868637085 3.404393911361694 C 3.42081880569458 1.808953881263733 5.159938812255859 1.000003933906555 7.505108833312988 1.000003933906555 C 7.944718837738037 1.000003933906555 8.411748886108398 1.028503894805908 8.893208503723145 1.084703922271729 C 12.3659086227417 1.490123867988586 16.60553932189941 2.199333906173706 18.58235931396484 4.100883960723877 C 19.66730880737305 5.143613815307617 20.16131973266602 7.948944091796875 20.16131973266602 10.11431407928467 C 20.16131973266602 11.61189365386963 19.25113868713379 12.73997402191162 17.3787784576416 13.56303405761719 C 15.63433933258057 14.32986354827881 13.10845851898193 14.75217342376709 10.26643848419189 14.75217342376709 Z" stroke="none"/>
          <path d="M 7.505108833312988 2.000003814697266 C 5.483098983764648 2.000003814697266 4.062788009643555 2.643303871154785 3.16303825378418 3.966653823852539 C 2.41303825378418 5.069744110107422 1.999998092651367 6.696844100952148 1.999998092651367 8.548233985900879 C 1.999998092651367 10.28237342834473 3.375888824462891 11.48364448547363 4.196048736572266 12.04537391662598 C 5.779778480529785 13.13006401062012 7.992348670959473 13.75217437744141 10.26643848419189 13.75217437744141 C 12.97297859191895 13.75217437744141 15.35593891143799 13.35988426208496 16.97635841369629 12.64758396148682 C 17.74728965759277 12.30869388580322 18.32267951965332 11.91144371032715 18.68654823303223 11.46687412261963 C 19.01045989990234 11.07113361358643 19.16131973266602 10.64135360717773 19.16131973266602 10.11431407928467 C 19.16131973266602 7.832053661346436 18.60276794433594 5.507473945617676 17.88909912109375 4.821574211120605 C 16.10756874084473 3.107873916625977 11.83559894561768 2.435004234313965 8.77726936340332 2.077963829040527 C 8.334138870239258 2.026233673095703 7.906119346618652 2.000003814697266 7.505108833312988 2.000003814697266 M 7.505110740661621 -9.5367431640625e-07 C 7.978338241577148 -9.5367431640625e-07 8.478664398193359 0.02952003479003906 9.00916862487793 0.09145355224609375 C 13.05468845367432 0.5637435913085938 17.17376899719238 1.358373641967773 19.27560806274414 3.380184173583984 C 20.79800796508789 4.843354225158691 21.16131973266602 8.297083854675293 21.16131973266602 10.11431407928467 C 21.16131973266602 14.2349739074707 15.77928924560547 15.75217437744141 10.26643848419189 15.75217437744141 C 4.753599166870117 15.75217437744141 -1.9073486328125e-06 12.66890335083008 -1.9073486328125e-06 8.548233985900879 C -1.9073486328125e-06 4.729631423950195 1.522588729858398 -9.5367431640625e-07 7.505110740661621 -9.5367431640625e-07 Z" stroke="none" fill="#0a0a0a"/>
        </g>
      </g>
      <g id="Group_23" data-name="Group 23" transform="matrix(-0.438, 0.899, -0.899, -0.438, 53.206, 7.184)" opacity="0.4">
        <g id="Path_91-2" data-name="Path 91" transform="translate(0 0)" fill="#bd7268">
          <path d="M 4.758637428283691 8.768120765686035 C 3.754737377166748 8.768120765686035 2.809357404708862 8.40847110748291 2.096657276153564 7.755430698394775 C 1.389467358589172 7.10744047164917 0.9999973177909851 6.235720634460449 0.9999973177909851 5.300870895385742 C 0.9999973177909851 4.061120510101318 1.209877371788025 2.965390682220459 1.590977311134338 2.215500593185425 C 2.012417316436768 1.386230707168579 2.612257242202759 1.000000715255737 3.47871732711792 1.000000715255737 C 3.64886736869812 1.000000715255737 3.831507205963135 1.015050649642944 4.021547317504883 1.044730663299561 C 5.520927429199219 1.278920650482178 7.344597339630127 1.679800748825073 8.144877433776855 2.709680795669556 C 8.523346900939941 3.196320772171021 8.808557510375977 4.72765064239502 8.808557510375977 6.272020816802979 C 8.808557510375977 7.099490642547607 8.467397689819336 7.685530662536621 7.734897136688232 8.116311073303223 C 7.020167350769043 8.536641120910645 5.96317720413208 8.768120765686035 4.758637428283691 8.768120765686035 Z" stroke="none"/>
          <path d="M 3.47871732711792 2.000000476837158 C 3.052947521209717 2.000000476837158 2.768077373504639 2.106540679931641 2.482457160949707 2.66856050491333 C 2.17584753036499 3.271870613098145 1.999997138977051 4.231310844421387 1.999997138977051 5.300870895385742 C 1.999997138977051 6.135380744934082 2.419947147369385 6.695340633392334 2.772237300872803 7.01814079284668 C 3.292397499084473 7.494760513305664 4.016417503356934 7.768120765686035 4.758637428283691 7.768120765686035 C 5.772707462310791 7.768120765686035 6.672737121582031 7.580850601196289 7.227957248687744 7.254320621490479 C 7.711437225341797 6.970000743865967 7.808557510375977 6.667670726776123 7.808557510375977 6.272020816802979 C 7.808557510375977 4.815452575683594 7.53875732421875 3.604543209075928 7.350855350494385 3.317655086517334 C 6.686365127563477 2.473042011260986 4.565279960632324 2.141780376434326 3.867207527160645 2.032750606536865 C 3.728087425231934 2.011020660400391 3.597387313842773 2.000000476837158 3.47871732711792 2.000000476837158 M 3.478719234466553 -9.5367431640625e-07 C 3.698066234588623 -9.5367431640625e-07 3.929971694946289 0.01830482482910156 4.175867557525635 0.05671024322509766 C 6.051027297973633 0.3495903015136719 7.960267066955566 0.8423404693603516 8.934507369995117 2.096100807189941 C 9.640157699584961 3.003420829772949 9.808557510375977 5.145130634307861 9.808557510375977 6.272020816802979 C 9.808557510375977 8.827290534973145 7.313907623291016 9.768120765686035 4.758637428283691 9.768120765686035 C 2.203357219696045 9.768120765686035 -2.86102294921875e-06 7.85615062713623 -2.86102294921875e-06 5.300870895385742 C -2.86102294921875e-06 2.932900905609131 0.7057418823242188 -9.5367431640625e-07 3.478719234466553 -9.5367431640625e-07 Z" stroke="none" fill="#0a0a0a"/>
        </g>
      </g>
      <g id="Group_24" data-name="Group 24" transform="matrix(-0.809, -0.588, 0.588, -0.809, 59.061, 37.247)" opacity="0.4">
        <g id="Path_91-3" data-name="Path 91" transform="translate(0 0)" fill="#bd7268">
          <path d="M 3.598482608795166 6.386669635772705 C 2.910592794418335 6.386669635772705 2.236912727355957 6.130889415740967 1.750202655792236 5.684919357299805 C 1.266432642936707 5.241639614105225 1.00000274181366 4.646289348602295 1.00000274181366 4.008529663085938 C 1.00000274181366 3.108689546585083 1.149312734603882 2.31930947303772 1.420442700386047 1.785819530487061 C 1.700362682342529 1.235019564628601 2.062282800674438 0.9999995231628418 2.63061261177063 0.9999995231628418 C 2.74672269821167 0.9999995231628418 2.872182607650757 1.010399580001831 3.003482580184937 1.030909538269043 C 4.0079026222229 1.187789559364319 5.407852649688721 1.479509472846985 5.966662883758545 2.198659420013428 C 6.215232849121094 2.518259525299072 6.417242527008057 3.659459590911865 6.417242527008057 4.74290943145752 C 6.417242527008057 5.280769348144531 6.203912734985352 5.646089553833008 5.725542545318604 5.927419662475586 C 5.221962928771973 6.223569393157959 4.466562747955322 6.386669635772705 3.598482608795166 6.386669635772705 Z" stroke="none"/>
          <path d="M 2.630612850189209 1.999999523162842 C 2.479062557220459 1.999999523162842 2.433322906494141 1.999999523162842 2.311922550201416 2.238879680633545 C 2.113692760467529 2.628929615020752 2.000002861022949 3.27394962310791 2.000002861022949 4.008529663085938 C 2.000002861022949 4.859769821166992 2.829732894897461 5.386669635772705 3.598482608795166 5.386669635772705 C 4.270922660827637 5.386669635772705 4.876582622528076 5.266579627990723 5.218612670898438 5.0654296875 C 5.408782958984375 4.95358943939209 5.417243003845215 4.902579307556152 5.417243003845215 4.74290943145752 C 5.417243003845215 3.830955982208252 5.264218330383301 3.027851104736328 5.15119457244873 2.781640529632568 C 4.979254722595215 2.592899799346924 4.453527450561523 2.269509792327881 2.849202632904053 2.01893949508667 C 2.76873254776001 2.006369590759277 2.695192813873291 1.999999523162842 2.630612850189209 1.999999523162842 M 2.630613803863525 3.337860107421875e-06 C 2.796484470367432 3.337860107421875e-06 2.971855640411377 0.01384687423706055 3.157802581787109 0.04288959503173828 C 4.575792789459229 0.2643594741821289 6.019572734832764 0.6369795799255371 6.756282806396484 1.58506965637207 C 7.289902687072754 2.27118968963623 7.417242527008057 3.890759468078613 7.417242527008057 4.74290943145752 C 7.417242527008057 6.675209522247314 5.530792713165283 7.386669635772705 3.598482608795166 7.386669635772705 C 1.666182518005371 7.386669635772705 2.86102294921875e-06 5.940829277038574 2.86102294921875e-06 4.008529663085938 C 2.86102294921875e-06 2.217864036560059 0.5336823463439941 3.337860107421875e-06 2.630613803863525 3.337860107421875e-06 Z" stroke="none" fill="#0a0a0a"/>
        </g>
      </g>
      <g id="Path_99" data-name="Path 99" transform="matrix(-0.809, -0.588, 0.588, -0.809, 7.627, 26.453)" fill="#90493f" opacity="0.4">
        <path d="M 3.598482608795166 6.386669635772705 C 2.910592794418335 6.386669635772705 2.236912727355957 6.130889415740967 1.750202655792236 5.684919357299805 C 1.266432642936707 5.241639614105225 1.00000274181366 4.646289348602295 1.00000274181366 4.008529663085938 C 1.00000274181366 3.108689546585083 1.149312734603882 2.31930947303772 1.420442700386047 1.785819530487061 C 1.700362682342529 1.235019564628601 2.062282800674438 0.9999995231628418 2.63061261177063 0.9999995231628418 C 2.74672269821167 0.9999995231628418 2.872182607650757 1.010399580001831 3.003482580184937 1.030909538269043 C 4.0079026222229 1.187789559364319 5.407852649688721 1.479509472846985 5.966662883758545 2.198659420013428 C 6.215232849121094 2.518259525299072 6.417242527008057 3.659459590911865 6.417242527008057 4.74290943145752 C 6.417242527008057 5.280769348144531 6.203912734985352 5.646089553833008 5.725542545318604 5.927419662475586 C 5.221962928771973 6.223569393157959 4.466562747955322 6.386669635772705 3.598482608795166 6.386669635772705 Z" stroke="none"/>
        <path d="M 2.630612850189209 1.999999523162842 C 2.479062557220459 1.999999523162842 2.433322906494141 1.999999523162842 2.311922550201416 2.238879680633545 C 2.113692760467529 2.628929615020752 2.000002861022949 3.27394962310791 2.000002861022949 4.008529663085938 C 2.000002861022949 4.859769821166992 2.829732894897461 5.386669635772705 3.598482608795166 5.386669635772705 C 4.270922660827637 5.386669635772705 4.876582622528076 5.266579627990723 5.218612670898438 5.0654296875 C 5.408782958984375 4.95358943939209 5.417243003845215 4.902579307556152 5.417243003845215 4.74290943145752 C 5.417243003845215 3.830955982208252 5.264218330383301 3.027851104736328 5.15119457244873 2.781640529632568 C 4.979254722595215 2.592899799346924 4.453527450561523 2.269509792327881 2.849202632904053 2.01893949508667 C 2.76873254776001 2.006369590759277 2.695192813873291 1.999999523162842 2.630612850189209 1.999999523162842 M 2.630613803863525 3.337860107421875e-06 C 2.796484470367432 3.337860107421875e-06 2.971855640411377 0.01384687423706055 3.157802581787109 0.04288959503173828 C 4.575792789459229 0.2643594741821289 6.019572734832764 0.6369795799255371 6.756282806396484 1.58506965637207 C 7.289902687072754 2.27118968963623 7.417242527008057 3.890759468078613 7.417242527008057 4.74290943145752 C 7.417242527008057 6.675209522247314 5.530792713165283 7.386669635772705 3.598482608795166 7.386669635772705 C 1.666182518005371 7.386669635772705 2.86102294921875e-06 5.940829277038574 2.86102294921875e-06 4.008529663085938 C 2.86102294921875e-06 2.217864036560059 0.5336823463439941 3.337860107421875e-06 2.630613803863525 3.337860107421875e-06 Z" stroke="none" fill="#0a0a0a"/>
      </g>
      <g id="Path_100" data-name="Path 100" transform="translate(35.474 58.5) rotate(-74)" fill="#bd7268" opacity="0.37">
        <path d="M 4.143072605133057 9.403606414794922 C 3.339592695236206 9.403606414794922 2.572622776031494 9.0399169921875 1.983462691307068 8.3795166015625 C 1.349272608757019 7.668646812438965 1.00000262260437 6.697766780853271 1.00000262260437 5.645726680755615 C 1.00000262260437 4.289446830749512 1.189112663269043 3.08730673789978 1.532492637634277 2.260756731033325 C 2.056262731552124 0.9999967217445374 2.762762546539307 0.9999967217445374 3.028732776641846 0.9999967217445374 C 3.158892631530762 0.9999967217445374 3.299962759017944 1.014336705207825 3.448022603988647 1.042626738548279 C 4.714602470397949 1.284626722335815 6.255532741546631 1.699506759643555 6.934662818908691 2.768646717071533 C 7.331972599029541 3.3935866355896 7.539742469787598 5.209286689758301 7.539742469787598 6.680056571960449 C 7.539742469787598 7.614396572113037 7.22963285446167 8.29168701171875 6.591682434082031 8.750637054443359 C 6.006392478942871 9.171716690063477 5.136792659759521 9.403606414794922 4.143072605133057 9.403606414794922 Z" stroke="none"/>
        <path d="M 3.028732776641846 1.999996662139893 C 2.893762588500977 1.999996662139893 2.856452465057373 2.031216621398926 2.820362567901611 2.061396598815918 C 2.764052867889404 2.108516693115234 2.615822792053223 2.259636878967285 2.455972671508789 2.644406795501709 C 2.161932468414307 3.352176666259766 2.000002861022949 4.418066501617432 2.000002861022949 5.645726680755615 C 2.000002861022949 7.349196434020996 3.112412452697754 8.403606414794922 4.143072605133057 8.403606414794922 C 4.917542457580566 8.403606414794922 5.597172737121582 8.234216690063477 6.007692337036133 7.938886642456055 C 6.255402565002441 7.760676383972168 6.539742469787598 7.456536769866943 6.539742469787598 6.680056571960449 C 6.539742469787598 5.141716957092285 6.302172660827637 3.66521692276001 6.09056282043457 3.304836750030518 C 5.611532688140869 2.550716876983643 4.245902538299561 2.2131667137146 3.260392665863037 2.024866580963135 C 3.174002647399902 2.008366584777832 3.096062660217285 1.999996662139893 3.028732776641846 1.999996662139893 M 3.028731346130371 -2.86102294921875e-06 C 3.219704151153564 -2.86102294921875e-06 3.421605587005615 0.01949310302734375 3.635692596435547 0.06039714813232422 C 5.268282890319824 0.3723268508911133 6.93055248260498 0.8971471786499023 7.778762817382813 2.232466697692871 C 8.393132209777832 3.198816776275635 8.539742469787598 5.479856967926025 8.539742469787598 6.680056571960449 C 8.539742469787598 9.401566505432129 6.367802619934082 10.40360641479492 4.143072605133057 10.40360641479492 C 1.918332576751709 10.40360641479492 2.86102294921875e-06 8.367246627807617 2.86102294921875e-06 5.645726680755615 C 2.86102294921875e-06 3.123712062835693 0.6144595146179199 -2.86102294921875e-06 3.028731346130371 -2.86102294921875e-06 Z" stroke="none" fill="#0a0a0a"/>
      </g>
    </g>
    <g id="Path_101" data-name="Path 101" transform="translate(30.65 24.89)" fill="#4dd8d3">
      <path d="M 43.55698776245117 36.72523880004883 C 41.3943977355957 36.72528076171875 39.06735992431641 36.61285018920898 36.60368728637695 36.49382019042969 C 33.87203979492188 36.36183929443359 31.04738807678223 36.22536087036133 28.13589859008789 36.22536087036133 C 20.3948974609375 36.22536087036133 13.08319759368896 36.22536087036133 7.886548042297363 35.10765075683594 C 5.240198135375977 34.53845977783203 3.332738161087036 33.72887802124023 2.055187940597534 32.63264083862305 C 0.7346880435943604 31.49954986572266 0.0927780494093895 30.03466987609863 0.0927780494093895 28.15431022644043 C 0.0927780494093895 26.59345054626465 0.3640380501747131 25.29633903503418 0.8990180492401123 24.29899978637695 C 1.330548048019409 23.49450874328613 1.923298001289368 22.88517951965332 2.71111798286438 22.43618965148926 C 4.188318252563477 21.59433937072754 5.943438053131104 21.55722999572754 6.992087841033936 21.53504943847656 C 7.771408081054688 21.51856994628906 8.286248207092285 21.5076789855957 8.625628471374512 20.99831008911133 C 8.86878776550293 20.63336944580078 8.844147682189941 20.26930046081543 8.790167808532715 19.47159957885742 C 8.65733814239502 17.50856971740723 8.346247673034668 12.91152954101563 12.05038833618164 10.39591979980469 C 13.35364818572998 9.510839462280273 14.71572780609131 9.06205940246582 16.09881782531738 9.06205940246582 C 17.87884712219238 9.06205940246582 19.28792762756348 9.775919914245605 20.12982749938965 10.20242977142334 C 20.59689712524414 10.43904972076416 20.87880897521973 10.58187007904053 21.21878814697266 10.58203983306885 C 21.21899032592773 10.58203983306885 21.21919250488281 10.58203983306885 21.21939468383789 10.58203983306885 C 21.47385787963867 10.58203983306885 21.71868896484375 10.49407291412354 21.90883827209473 10.33432960510254 C 22.23648834228516 10.0590991973877 22.30097770690918 9.71265983581543 22.39023780822754 9.233160018920898 C 22.63525772094727 7.916929721832275 23.28610801696777 4.420549392700195 28.51179885864258 2.300759553909302 C 30.95842742919922 1.308289647102356 33.07457733154297 0.825839638710022 34.98116683959961 0.825839638710022 C 38.17989730834961 0.825839638710022 41.13784790039063 2.139569520950317 44.87181854248047 5.218619823455811 C 46.90028762817383 6.89130973815918 48.12188720703125 8.83174991607666 48.50267791748047 10.98602962493896 C 48.80716705322266 12.70856952667236 48.48645782470703 14.1256799697876 48.34950637817383 14.73080921173096 C 48.28106689453125 15.03321933746338 48.2397575378418 15.21574974060059 48.27543640136719 15.44518947601318 C 48.35190963745117 15.93701934814453 48.60666656494141 16.11159896850586 49.55454635620117 16.76112937927246 C 50.61670684814453 17.48896026611328 52.59378814697266 18.84374046325684 54.25354766845703 20.52468872070313 C 56.16952896118164 22.46510887145996 57.14100646972656 24.29308891296387 57.14100646972656 25.95784950256348 C 57.14100646972656 28.2364387512207 56.80867767333984 30.14091873168945 56.15324783325195 31.61838912963867 C 55.5582389831543 32.95967102050781 54.69493865966797 33.98830032348633 53.51401901245117 34.76306915283203 C 51.44575881958008 36.11999130249023 48.37489700317383 36.72515106201172 43.55698776245117 36.72523880004883 Z" stroke="none"/>
      <path d="M 34.98117065429688 1.825839996337891 C 33.20585632324219 1.825839996337891 31.21266746520996 2.284297943115234 28.88769721984863 3.227420806884766 C 24.16905975341797 5.141529083251953 23.61145782470703 8.137029647827148 23.37335968017578 9.416170120239258 C 23.27055740356445 9.968410491943359 23.15404891967773 10.59432029724121 22.55209732055664 11.09998893737793 C 22.18207931518555 11.41085052490234 21.70874786376953 11.58205032348633 21.21930694580078 11.58205032348633 C 20.64018630981445 11.58205032348633 20.21538925170898 11.36684989929199 19.67757797241211 11.09440040588379 C 18.91539764404297 10.70829010009766 17.63973617553711 10.06204986572266 16.09882736206055 10.06205940246582 C 14.90313720703125 10.06206893920898 13.76265716552734 10.44186973571777 12.61220932006836 11.22317886352539 C 9.382709503173828 13.41645050048828 9.656368255615234 17.46056938171387 9.787887573242188 19.40407943725586 C 9.846858978271484 20.27541923522949 9.889457702636719 20.90497970581055 9.457836151123047 21.55278015136719 C 8.829116821289063 22.49642944335938 7.864387512207031 22.51683044433594 7.013229370117188 22.53483009338379 C 6.059429168701172 22.55500030517578 4.463058471679688 22.58874893188477 3.206249237060547 23.30500984191895 C 2.586677551269531 23.65810012817383 2.120227813720703 24.13785934448242 1.780227661132813 24.77169990539551 C 1.324066162109375 25.62210845947266 1.092769622802734 26.76017951965332 1.092769622802734 28.1543083190918 C 1.092769622802734 29.74723052978516 1.605506896972656 30.92910003662109 2.706378936767578 31.87373924255371 C 3.838329315185547 32.84503936767578 5.651927947998047 33.60414886474609 8.096809387207031 34.13000869750977 C 13.18951797485352 35.22536087036133 20.44956970214844 35.22536087036133 28.13589859008789 35.22536087036133 C 31.07180786132813 35.22536087036133 33.90896606445313 35.36243057250977 36.65271759033203 35.49497985839844 C 39.10369873046875 35.61339950561523 41.41875839233398 35.72523880004883 43.55698776245117 35.72523880004883 C 48.16821670532227 35.72523880004883 51.06988906860352 35.17065048217773 52.96543884277344 33.92702102661133 C 54.32865905761719 33.03263854980469 56.14099884033203 31.23347091674805 56.14099884033203 25.95784950256348 C 56.14099884033203 24.58509063720703 55.24225616455078 22.94927978515625 53.54193878173828 21.22727012634277 C 51.94946670532227 19.61446952819824 50.02379608154297 18.29491996765137 48.98925018310547 17.58600997924805 C 47.98395919799805 16.89715003967285 47.43019866943359 16.51767921447754 47.28730010986328 15.59879875183105 C 47.22232818603516 15.18096923828125 47.29607772827148 14.85508918762207 47.3741569519043 14.51008987426758 C 47.65398788452148 13.27367973327637 48.50551605224609 9.511129379272461 44.23561859130859 5.990139007568359 C 40.69585800170898 3.071239471435547 37.92817687988281 1.825839996337891 34.98117065429688 1.825839996337891 M 34.98117065429688 -0.174163818359375 C 38.56644439697266 -0.174163818359375 41.75872802734375 1.355411529541016 45.50801849365234 4.447097778320313 C 51.43911743164063 9.337919235229492 49.21035766601563 14.94943046569824 49.2635498046875 15.29151916503906 C 49.31674957275391 15.63360977172852 58.14099884033203 20.37396049499512 58.14099884033203 25.95784950256348 C 58.14099884033203 35.97838592529297 52.1264762878418 37.72523880004883 43.55699157714844 37.72523880004883 C 38.9715576171875 37.72523880004883 33.65547943115234 37.22536087036133 28.13589859008789 37.22536087036133 C 12.30104827880859 37.22536087036133 -0.9072303771972656 37.20885848999023 -0.9072303771972656 28.1543083190918 C -0.9072303771972656 19.09976005554199 7.510639190673828 20.8682804107666 7.793426513671875 20.44384002685547 C 8.076229095458984 20.01939964294434 6.307857513427734 13.08705902099609 11.48856735229492 9.568658828735352 C 13.15181350708008 8.439098358154297 14.72243881225586 8.062074661254883 16.09881591796875 8.062063217163086 C 18.8623046875 8.062040328979492 20.84300231933594 9.58204460144043 21.21931076049805 9.58204460144043 C 21.23937225341797 9.58204460144043 21.25479888916016 9.577747344970703 21.26561737060547 9.568658828735352 C 21.58040618896484 9.304220199584961 21.23360824584961 4.173999786376953 28.13589859008789 1.374099731445313 C 30.67496681213379 0.3441276550292969 32.89481353759766 -0.174163818359375 34.98117065429688 -0.174163818359375 Z" stroke="none" fill="#0a0a0a"/>
    </g>
    <g id="Path_102" data-name="Path 102" transform="translate(1.018 0.174)" fill="#4dd8d3">
      <path d="M 8.460526466369629 23.16987228393555 C 5.439786434173584 23.16987228393555 3.527796268463135 22.79925155639648 2.261046409606934 21.96816253662109 C 1.330236315727234 21.35748291015625 0.09277637302875519 20.13776206970215 0.09277637302875519 16.61128234863281 C 0.09277637302875519 15.63938236236572 0.6820863485336304 14.5497522354126 1.844326376914978 13.37268257141113 C 2.88637638092041 12.31733226776123 4.137926578521729 11.45971202850342 4.810306549072266 10.99896240234375 C 5.446826457977295 10.56279182434082 5.710286140441895 10.38226222991943 5.783156394958496 9.913612365722656 C 5.816556453704834 9.6988525390625 5.778806209564209 9.532042503356934 5.731006145477295 9.320852279663086 C 5.640746593475342 8.922032356262207 5.452936172485352 8.092162132263184 5.635976314544678 7.056662082672119 C 5.865346431732178 5.759032249450684 6.608076572418213 4.584512233734131 7.843526363372803 3.565742254257202 C 10.17251682281494 1.645242214202881 12.00444602966309 0.825832188129425 13.9690465927124 0.825832188129425 C 15.14674663543701 0.825832188129425 16.4620361328125 1.12715220451355 17.99006652832031 1.746992230415344 C 21.16533660888672 3.035042285919189 21.54348564147949 5.066472053527832 21.7049560546875 5.933932304382324 C 21.76503562927246 6.256682395935059 21.82715606689453 6.5904221534729 22.13574600219727 6.849652290344238 C 22.32221603393555 7.006302356719971 22.56121635437012 7.092572212219238 22.80870628356934 7.092572212219238 C 23.11270713806152 7.092572212219238 23.34661674499512 6.974071979522705 23.67036628723145 6.810072422027588 C 24.18262672424316 6.550562381744385 25.03998565673828 6.116232395172119 26.09775543212891 6.116232395172119 C 26.91317558288574 6.116232395172119 27.7204761505127 6.383712291717529 28.49723625183105 6.911231994628906 C 29.44387626647949 7.554121971130371 30.03699684143066 8.462451934814453 30.31048583984375 9.688101768493652 C 30.54828643798828 10.75377178192139 30.4776668548584 11.79732227325439 30.43546676635742 12.42082214355469 C 30.39885711669922 12.9617919921875 30.37675666809082 13.28832244873047 30.60034561157227 13.62391185760498 C 30.92183685302734 14.10643196105957 31.4162654876709 14.11689186096191 31.93973731994629 14.12796211242676 C 32.57938766479492 14.14149188995361 33.64997482299805 14.1641321182251 34.51999664306641 14.65996265411377 C 35.53018569946289 15.23568248748779 36.02125549316406 16.33545303344727 36.02125549316406 18.02214241027832 C 36.02125549316406 19.13459205627441 35.66035461425781 19.96239280700684 34.885498046875 20.62729263305664 C 34.11125564575195 21.29165267944336 32.93763732910156 21.78608131408691 31.29754638671875 22.13883209228516 C 27.99675559997559 22.84878158569336 23.31869697570801 22.84878158569336 18.365966796875 22.84878158569336 C 16.48701667785645 22.84878158569336 14.66810607910156 22.93665313720703 12.90909671783447 23.02164268493652 C 11.33121681213379 23.09787178039551 9.840856552124023 23.16987228393555 8.460526466369629 23.16987228393555 Z" stroke="none"/>
      <path d="M 13.96865653991699 1.825832366943359 C 12.25605583190918 1.825832366943359 10.61450576782227 2.576911926269531 8.479736328125 4.337263107299805 C 6.325956344604492 6.113292694091797 6.436117172241211 7.906091690063477 6.70634651184082 9.100112915039063 C 6.763206481933594 9.351381301879883 6.833976745605469 9.664102554321289 6.771286010742188 10.06726264953613 C 6.63200569152832 10.96291255950928 6.04975700378418 11.361891746521 5.375576019287109 11.82387256622314 C 4.685546875 12.29671192169189 3.530647277832031 13.08809185028076 2.555908203125 14.07528209686279 C 1.612384796142578 15.03084182739258 1.092777252197266 15.931471824646 1.092777252197266 16.61128234863281 C 1.092777252197266 19.6538028717041 2.072597503662109 20.64851188659668 2.809604644775391 21.13205337524414 C 3.903587341308594 21.84979248046875 5.646396636962891 22.16987228393555 8.460525512695313 22.16987228393555 C 9.816717147827148 22.16987228393555 11.29536628723145 22.09843254089355 12.8608455657959 22.02280235290527 C 14.63171577453613 21.93725204467773 16.46287727355957 21.84878158569336 18.365966796875 21.84878158569336 C 23.26401519775391 21.84878158569336 27.89042663574219 21.84878158569336 31.08726692199707 21.16119194030762 C 32.53986740112305 20.84876251220703 33.59867477416992 20.41380310058594 34.23428726196289 19.86839294433594 C 34.78590774536133 19.39506149291992 35.02125549316406 18.8429126739502 35.02125549316406 18.02214241027832 C 35.02125549316406 16.09663200378418 34.27129745483398 15.66922187805176 34.02485656738281 15.52877235412598 C 33.37521743774414 15.15854263305664 32.46338653564453 15.13926219940186 31.91858673095703 15.12774181365967 C 31.34274673461914 15.11556243896484 30.37896728515625 15.09518241882324 29.76813697814941 14.17837238311768 C 29.3560962677002 13.55992221832275 29.39575576782227 12.97382259368896 29.43774604797363 12.35330200195313 C 29.55853652954102 10.5684118270874 29.46013641357422 8.773983001708984 27.93540573120117 7.738481521606445 C 27.31887626647949 7.319772720336914 26.71777725219727 7.116231918334961 26.09775543212891 7.116231918334961 C 25.27882766723633 7.116231918334961 24.58282661437988 7.468822479248047 24.12226676940918 7.702131271362305 C 23.74335670471191 7.894083023071289 23.35154724121094 8.092571258544922 22.80870628356934 8.092571258544922 C 22.32619667053223 8.092571258544922 21.85869598388672 7.92302131652832 21.49252700805664 7.615331649780273 C 20.90961647033691 7.125652313232422 20.79661560058594 6.518621444702148 20.72184753417969 6.116931915283203 C 20.57919692993164 5.350603103637695 20.28236770629883 3.756002426147461 17.61416625976563 2.673652648925781 C 16.20792579650879 2.103212356567383 15.01555633544922 1.825881958007813 13.96882629394531 1.825832366943359 L 13.96865653991699 1.825832366943359 M 13.96904373168945 -0.1741657257080078 C 15.30917549133301 -0.1741008758544922 16.73504638671875 0.1587486267089844 18.365966796875 0.8203315734863281 C 22.79952621459961 2.618803024291992 22.57676696777344 5.914112091064453 22.77896499633789 6.083972930908203 C 22.78591537475586 6.089809417724609 22.79582405090332 6.092569351196289 22.80870819091797 6.092569351196289 C 23.0504207611084 6.092569351196289 24.32268142700195 5.116233825683594 26.09775161743164 5.116233825683594 C 26.98184204101563 5.116233825683594 27.9907054901123 5.358417510986328 29.05905532836914 6.083972930908203 C 32.38678741455078 8.343952178955078 31.25091552734375 12.7968225479126 31.43255615234375 13.0694522857666 C 31.61420631408691 13.34209251403809 37.02125549316406 12.20611190795898 37.02125549316406 18.02214241027832 C 37.02125549316406 23.83818244934082 28.53718566894531 23.84878158569336 18.365966796875 23.84878158569336 C 14.8205738067627 23.84878158569336 11.40589332580566 24.16987228393555 8.460529327392578 24.16987228393555 C 2.956089019775391 24.16987228393555 -0.9072227478027344 23.04780960083008 -0.9072227478027344 16.61128234863281 C -0.9072227478027344 13.02457237243652 4.760866165161133 9.979692459106445 4.795036315917969 9.759952545166016 C 4.829206466674805 9.54022216796875 3.397605895996094 5.935762405395508 7.207326889038086 2.794221878051758 C 9.61561393737793 0.8083324432373047 11.66611671447754 -0.1742763519287109 13.96904373168945 -0.1741657257080078 Z" stroke="none" fill="#0a0a0a"/>
    </g>
  </g>
</svg>
