<svg xmlns="http://www.w3.org/2000/svg" width="68.362" height="57.501" viewBox="0 0 68.362 57.501">
  <g id="Group_19" data-name="Group 19" transform="translate(2 2)">
    <g id="Path_81" data-name="Path 81" transform="translate(0.046)" fill="#fff" stroke-linecap="round" stroke-linejoin="round">
      <path d="M 58.24826431274414 54.50111770629883 L 58.11171722412109 54.50111770629883 L 6.193295478820801 54.50111770629883 L 6.105005264282227 54.50111770629883 L 6.018075466156006 54.48564529418945 C 5.901265621185303 54.4648551940918 3.137115478515625 53.95570755004883 1.380435466766357 52.14597702026367 C -0.3554345071315765 50.35769653320313 -0.9698545336723328 47.42899703979492 -0.9951645135879517 47.30519866943359 L -1.015424489974976 47.20608520507813 L -1.015424489974976 47.10492706298828 L -1.015424489974976 15.9641284942627 C -1.046617150306702 15.64265632629395 -1.137942433357239 14.31462001800537 -0.7083845138549805 12.82703685760498 C -0.05517948046326637 10.56487560272217 1.467841267585754 8.988712310791016 3.699579000473022 8.262772560119629 C 4.050623416900635 8.087625503540039 4.661886692047119 7.949596405029297 6.11482572555542 7.829297065734863 C 7.080865383148193 7.749307155609131 8.354855537414551 7.684026718139648 9.901385307312012 7.635246753692627 C 11.79668235778809 7.575471878051758 13.65123271942139 7.555224418640137 14.54079151153564 7.548572540283203 L 18.66896629333496 1.128666996955872 L 18.75858497619629 0.9892969727516174 L 18.88837623596191 0.8862769603729248 L 20.2990550994873 -0.2334430515766144 L 20.43865585327148 -0.3442530632019043 L 20.60794639587402 -0.4000130593776703 L 22.27738571166992 -0.9498230814933777 L 22.42976570129395 -1.000003099441528 L 22.59019470214844 -1.000003099441528 L 41.0334358215332 -1.000003099441528 L 41.21303558349609 -1.000003099441528 L 41.38141632080078 -0.9375030398368835 L 42.86269378662109 -0.3876930475234985 L 42.96377563476563 -0.3501730561256409 L 43.05454635620117 -0.2919630408287048 L 44.64600372314453 0.7286369204521179 L 44.77780532836914 0.8131569623947144 L 44.87745666503906 0.9339169263839722 L 50.33571243286133 7.548095226287842 C 51.17953872680664 7.554229259490967 53.03424835205078 7.573972702026367 54.8859748840332 7.635296821594238 C 56.36226654052734 7.684186935424805 57.55192565917969 7.749736785888672 58.42191696166992 7.830126762390137 C 59.37217330932617 7.917936325073242 60.07685470581055 8.007716178894043 60.51427459716797 8.296963691711426 C 62.46120071411133 8.954861640930176 63.90508651733398 10.6136360168457 64.69874572753906 13.11022663116455 C 65.2861328125 14.95797729492188 65.31509399414063 16.63040733337402 65.31604766845703 16.70069694519043 L 65.31613922119141 16.70741653442383 L 65.31613922119141 16.71414756774902 L 65.31613922119141 47.55995559692383 L 65.31613922119141 47.77188873291016 L 65.23016357421875 47.96559524536133 C 65.18333435058594 48.07112884521484 64.06395721435547 50.56847763061523 62.38967514038086 52.17172622680664 C 60.67678451538086 53.81192779541016 58.47279739379883 54.43863677978516 58.37981414794922 54.46450805664063 L 58.24826431274414 54.50111770629883 Z" stroke="none"/>
      <path d="M 22.59019470214844 -3.814697265625e-06 L 20.92075729370117 0.5498085021972656 L 19.51007461547852 1.669525146484375 L 15.08866500854492 8.545455932617188 C 15.08866500854492 8.545455932617188 5.003505706787109 8.570266723632813 4.098075866699219 9.185367584228516 C -0.6725082397460938 10.66789627075195 -0.01542282104492188 15.91164779663086 -0.01542282104492188 15.91164779663086 L -0.01542282104492188 47.10492706298828 C -0.01542282104492188 47.10492706298828 0.5457954406738281 49.85041809082031 2.097976684570313 51.44945526123047 C 3.650154113769531 53.04850769042969 6.193294525146484 53.50111770629883 6.193294525146484 53.50111770629883 L 58.11171722412109 53.50111770629883 C 58.11171722412109 53.50111770629883 60.14694595336914 52.93474578857422 61.69804382324219 51.44945526123047 C 63.2491569519043 49.96416854858398 64.31613922119141 47.55995559692383 64.31613922119141 47.55995559692383 L 64.31613922119141 16.71413803100586 C 64.31613922119141 16.71413803100586 64.23147583007813 10.42116546630859 60.00693511962891 9.185367584228516 C 59.78904724121094 8.570266723632813 49.86223602294922 8.545455932617188 49.86223602294922 8.545455932617188 L 44.10616302490234 1.570407867431641 L 42.51471710205078 0.5498085021972656 L 41.0334358215332 -3.814697265625e-06 L 22.59019470214844 -3.814697265625e-06 M 22.59019470214844 -2.000003814697266 L 41.0334358215332 -2.000003814697266 C 41.27100372314453 -2.000003814697266 41.50666809082031 -1.957672119140625 41.72938537597656 -1.875011444091797 L 43.21066284179688 -1.325202941894531 C 43.34506607055664 -1.275314331054688 43.47370529174805 -1.211124420166016 43.59437561035156 -1.133743286132813 L 45.18582534790039 -0.1131439208984375 C 45.36049652099609 -0.00112152099609375 45.51666641235352 0.1373863220214844 45.64873504638672 0.2974281311035156 L 50.81013870239258 6.551876068115234 C 51.76725006103516 6.561069488525391 53.32876586914063 6.583179473876953 54.91907501220703 6.635845184326172 C 56.41494750976563 6.685386657714844 57.62442398071289 6.752178192138672 58.51392364501953 6.834365844726563 C 59.09900665283203 6.888435363769531 59.55491638183594 6.94964599609375 59.90771484375 7.021526336669922 C 60.10945510864258 7.0626220703125 60.52569961547852 7.147430419921875 60.93729019165039 7.385078430175781 C 63.14494323730469 8.168876647949219 64.77049255371094 10.03512954711914 65.65174865722656 12.80726623535156 C 66.27286529541016 14.76112747192383 66.31337738037109 16.49585723876953 66.31595611572266 16.68723678588867 C 66.31607818603516 16.69619750976563 66.31613159179688 16.70516586303711 66.31613159179688 16.71413803100586 L 66.31613159179688 47.55995559692383 C 66.31613159179688 47.83942794799805 66.257568359375 48.11579895019531 66.14419555664063 48.37124633789063 C 66.01861572265625 48.65422821044922 64.86571502685547 51.18526840209961 63.08127593994141 52.89398574829102 C 61.22095489501953 54.67538833618164 58.90577697753906 55.35614776611328 58.64790344238281 55.42789840698242 C 58.47331619262695 55.47648620605469 58.29293441772461 55.50111770629883 58.11171722412109 55.50111770629883 L 6.193294525146484 55.50111770629883 C 6.075794219970703 55.50111770629883 5.958534240722656 55.49076843261719 5.842857360839844 55.47017669677734 C 5.517536163330078 55.41227722167969 2.608306884765625 54.84664535522461 0.6628837585449219 52.84248733520508 C -1.241592407226563 50.88050842285156 -1.905471801757813 47.84512710571289 -1.974906921386719 47.50547790527344 C -2.001846313476563 47.3736572265625 -2.015426635742188 47.23946762084961 -2.015426635742188 47.10492706298828 L -2.015426635742188 16.01219177246094 C -2.057319641113281 15.54471969604492 -2.127655029296875 14.13750076293945 -1.669136047363281 12.54960632324219 C -1.3369140625 11.39907836914063 -0.797515869140625 10.38946533203125 -0.0659332275390625 9.548828125 C 0.8144378662109375 8.5372314453125 1.950538635253906 7.793849945068359 3.313426971435547 7.337169647216797 C 3.785083770751953 7.115840911865234 4.501461029052734 6.959457397460938 6.032306671142578 6.832706451416016 C 7.015247344970703 6.751327514648438 8.306385040283203 6.68505859375 9.869853973388672 6.635746002197266 C 11.44754409790039 6.585983276367188 12.99743270874023 6.563465118408203 13.9918098449707 6.553394317626953 L 17.82784652709961 0.5878067016601563 C 17.94653701782227 0.4032363891601563 18.09479522705078 0.2394485473632813 18.26666641235352 0.1030158996582031 L 19.67734527587891 -1.016704559326172 C 19.86203384399414 -1.163291931152344 20.07117462158203 -1.27606201171875 20.29513549804688 -1.349822998046875 L 21.96457672119141 -1.899631500244141 C 22.16645431518555 -1.966121673583984 22.37764358520508 -2.000003814697266 22.59019470214844 -2.000003814697266 Z" stroke="none" fill="#0a0a0a"/>
    </g>
    <g id="Path_82" data-name="Path 82" transform="translate(19.344 20.005)" fill="#4dd8d3">
      <path d="M 12.86050891876221 26.72101974487305 C 9.158239364624023 26.72101974487305 5.677558898925781 25.27926826477051 3.059648990631104 22.66136932373047 C 0.4417489171028137 20.04345893859863 -1.000001072883606 16.56277847290039 -1.000001072883606 12.86050891876221 C -1.000001072883606 9.158239364624023 0.4417489171028137 5.677558898925781 3.059648990631104 3.059648990631104 C 5.677558898925781 0.4417489171028137 9.158239364624023 -1.000001072883606 12.86050891876221 -1.000001072883606 C 16.56277847290039 -1.000001072883606 20.04345893859863 0.4417489171028137 22.66136932373047 3.059648990631104 C 25.27926826477051 5.677558898925781 26.72101974487305 9.158239364624023 26.72101974487305 12.86050891876221 C 26.72101974487305 16.56277847290039 25.27926826477051 20.04345893859863 22.66136932373047 22.66136932373047 C 20.04345893859863 25.27926826477051 16.56277847290039 26.72101974487305 12.86050891876221 26.72101974487305 Z" stroke="none"/>
      <path d="M 12.86050891876221 -1.9073486328125e-06 C 5.757848739624023 -1.9073486328125e-06 -1.9073486328125e-06 5.757848739624023 -1.9073486328125e-06 12.86050891876221 C -1.9073486328125e-06 19.96316909790039 5.757848739624023 25.72101974487305 12.86050891876221 25.72101974487305 C 19.96316909790039 25.72101974487305 25.72101974487305 19.96316909790039 25.72101974487305 12.86050891876221 C 25.72101974487305 5.757848739624023 19.96316909790039 -1.9073486328125e-06 12.86050891876221 -1.9073486328125e-06 M 12.86050891876221 -2.000001907348633 C 16.82988929748535 -2.000001907348633 20.56169891357422 -0.4542407989501953 23.36847877502441 2.3525390625 C 26.17525863647461 5.159318923950195 27.72101974487305 8.891128540039063 27.72101974487305 12.86050891876221 C 27.72101974487305 16.82988929748535 26.17525863647461 20.56169891357422 23.36847877502441 23.36847877502441 C 20.56169891357422 26.17525863647461 16.82988929748535 27.72101974487305 12.86050891876221 27.72101974487305 C 8.891128540039063 27.72101974487305 5.159318923950195 26.17525863647461 2.3525390625 23.36847877502441 C -0.4542407989501953 20.56169891357422 -2.000001907348633 16.82988929748535 -2.000001907348633 12.86050891876221 C -2.000001907348633 8.891128540039063 -0.4542407989501953 5.159318923950195 2.3525390625 2.3525390625 C 5.159318923950195 -0.4542407989501953 8.891128540039063 -2.000001907348633 12.86050891876221 -2.000001907348633 Z" stroke="none" fill="#0a0a0a"/>
    </g>
    <path id="Path_83" data-name="Path 83" d="M2.858,0A4.385,4.385,0,0,0,1.286.389,4.692,4.692,0,0,0,0,1.429" transform="translate(28.437 23.675) rotate(11)" fill="none" stroke="#be0951" stroke-linecap="round" stroke-width="2"/>
    <path id="Path_84" data-name="Path 84" d="M5.02,0A9.5,9.5,0,0,0,3.387.589,7.875,7.875,0,0,0,1.377,2.1,9.117,9.117,0,0,0,0,4.142" transform="translate(21.325 30.352) rotate(-34)" fill="none" stroke="#be0951" stroke-linecap="round" stroke-width="2"/>
  </g>
</svg>
