<svg xmlns="http://www.w3.org/2000/svg" width="70.694" height="70.114" viewBox="0 0 70.694 70.114">
  <g id="Group_34" data-name="Group 34" transform="translate(67.336 11.709) rotate(99)">
    <g id="PLANET" transform="translate(0 0)">
      <g id="Path_1" data-name="Path 1" transform="translate(0.472)" fill="#fff">
        <path d="M 25.49223327636719 57.38453674316406 C 22.41291236877441 57.38453674316406 19.14729309082031 56.56465530395508 15.78609275817871 54.94766616821289 C 12.94649314880371 53.58159637451172 10.09128284454346 51.65578460693359 7.529162883758545 49.37842559814453 C 5.705903053283691 47.75783538818359 4.143893241882324 45.82303619384766 2.886523008346558 43.62777709960938 C 1.751323103904724 41.64582824707031 0.8291630744934082 39.38811492919922 0.1456630676984787 36.9173469543457 C -0.9770769476890564 32.85878753662109 -1.499996900558472 28.24296569824219 -1.499996900558472 22.39107704162598 C -1.499996900558472 19.89872741699219 -1.213266968727112 17.76546669006348 -0.6234269142150879 15.8693962097168 C -0.05953693017363548 14.05673599243164 0.785783052444458 12.45016670227051 1.960833072662354 10.95787620544434 C 4.183253288269043 8.135456085205078 7.321433067321777 6.038716316223145 10.955153465271 3.610886573791504 C 13.49387264251709 1.914636492729187 15.95158290863037 0.6865764856338501 18.46869277954102 -0.1434735357761383 C 21.23675346374512 -1.056283593177795 24.09450340270996 -1.500003576278687 27.20526313781738 -1.500003576278687 C 35.26784133911133 -1.500003576278687 42.21038436889648 0.9242464900016785 47.28234481811523 5.510656356811523 C 50.13558197021484 8.090756416320801 52.48610305786133 11.45203685760498 54.07978439331055 15.23113632202148 C 55.67656326293945 19.01755714416504 56.52057266235352 23.24386596679688 56.52057266235352 27.45317649841309 C 56.52057266235352 28.20612716674805 56.55955123901367 28.96059608459473 56.60082244873047 29.75936698913574 C 56.68624496459961 31.41278648376465 56.77457427978516 33.12249755859375 56.50304412841797 34.88319778442383 C 55.91473388671875 38.69865798950195 54.10874176025391 42.14590835571289 52.69731140136719 44.36590576171875 C 50.21336364746094 48.27288818359375 46.16646194458008 51.59115600585938 40.99412155151367 53.96195602416992 C 36.17896270751953 56.16903686523438 30.67362213134766 57.38453674316406 25.49223327636719 57.38453674316406 Z" stroke="none"/>
        <path d="M 27.20526313781738 -3.814697265625e-06 C 21.13439178466797 -3.814697265625e-06 16.37024307250977 1.796817779541016 11.78847122192383 4.858116149902344 C 4.442073822021484 9.766517639160156 3.814697265625e-06 12.84599685668945 3.814697265625e-06 22.39107513427734 C 3.814697265625e-06 31.90510559082031 1.401744842529297 41.92519760131836 8.525684356689453 48.25729751586914 C 13.1009521484375 52.32404708862305 19.39006423950195 55.88453674316406 25.49223327636719 55.88453674316406 C 35.45339202880859 55.88453674316406 46.55631256103516 51.229248046875 51.43148422241211 43.56111526489258 C 53.07968139648438 40.96871566772461 54.52787399291992 37.84993743896484 55.02057266235352 34.65457916259766 C 55.39216232299805 32.24504852294922 55.02057266235352 29.83453559875488 55.02057266235352 27.45317649841309 C 55.02057266235352 19.24711608886719 51.74090194702148 11.56472778320313 46.27626419067383 6.623237609863281 C 41.33763122558594 2.157367706298828 34.62510299682617 -3.814697265625e-06 27.20526313781738 -3.814697265625e-06 M 27.20526313781738 -3.000003814697266 C 35.64574432373047 -3.000003814697266 42.93618392944336 -0.4417839050292969 48.28840255737305 4.398086547851563 C 51.30308151245117 7.124164581298828 53.78364181518555 10.66861724853516 55.4619140625 14.64827728271484 C 57.13580322265625 18.61755752563477 58.02057266235352 23.04541778564453 58.02057266235352 27.45317649841309 C 58.02057266235352 28.16740608215332 58.0585823059082 28.90308570861816 58.09882354736328 29.68196678161621 C 58.18815231323242 31.41100692749023 58.28052139282227 33.19890594482422 57.98552322387695 35.11182403564453 C 57.35760498046875 39.18413543701172 55.45154190063477 42.82961654663086 53.963134765625 45.17069625854492 C 51.32360458374023 49.32239532470703 47.05511474609375 52.83389663696289 41.61913299560547 55.32553482055664 C 36.61205291748047 57.62059783935547 30.88474273681641 58.88453674316406 25.49223327636719 58.88453674316406 C 22.18594360351563 58.88453674316406 18.70154190063477 58.01476669311523 15.13581466674805 56.29938507080078 C 12.17239379882813 54.87375640869141 9.197463989257813 52.86820602416992 6.532634735107422 50.49956512451172 C 4.587791442871094 48.77089691162109 2.923133850097656 46.709716796875 1.584903717041016 44.37329864501953 C 0.387481689453125 42.28270721435547 -0.5831565856933594 39.90871429443359 -1.300037384033203 37.31727600097656 C -2.459827423095703 33.12480926513672 -2.999996185302734 28.38190650939941 -2.999996185302734 22.39107513427734 C -2.999996185302734 11.13083648681641 2.790634155273438 7.261905670166016 10.12183380126953 2.363655090332031 C 12.77476119995117 0.5911178588867188 15.35138320922852 -0.6949539184570313 17.99893188476563 -1.568012237548828 C 20.92096328735352 -2.531593322753906 23.93238258361816 -3.000003814697266 27.20526313781738 -3.000003814697266 Z" stroke="none" fill="#0a0a0a"/>
      </g>
      <path id="Path_12" data-name="Path 12" d="M2.257,0c1.563,0,3.4,1.247,3.4,2.81a3.74,3.74,0,0,1-3.4,3.237C.694,6.047,0,4.373,0,2.81S.694,0,2.257,0Z" transform="translate(47.067 30.542)" fill="#fff" opacity="0.65"/>
      <path id="Path_13" data-name="Path 13" d="M1.92.054c.984,0,1.86-.333,1.86.651S2.9,3.618,1.92,3.618,0,3.327,0,2.343.935.054,1.92.054Z" transform="translate(23.982 49.511)" fill="#fff" opacity="0.65"/>
      <path id="Path_11" data-name="Path 11" d="M7.133,0c3.879,0,6.744.434,6.744,2.091S11.012,6,7.133,6,0,5.319,0,3.662,3.254,0,7.133,0Z" transform="matrix(0.485, -0.875, 0.875, 0.485, 1.677, 21.683)" fill="#fff"/>
      <g id="Ellipse_4" data-name="Ellipse 4" transform="translate(34.426 15.005)" fill="#fff" stroke="#0a0a0a" stroke-width="3" opacity="0.65">
        <ellipse cx="0.824" cy="1.154" rx="0.824" ry="1.154" stroke="none"/>
        <ellipse cx="0.824" cy="1.154" rx="0.676" ry="0.346" fill="none"/>
      </g>
      <g id="Path_17" data-name="Path 17" transform="translate(50.192 30.822) rotate(59)" fill="none" opacity="0.65">
        <path d="M2.257,0c1.563,0,3.4,1.247,3.4,2.81a3.74,3.74,0,0,1-3.4,3.237C.694,6.047,0,4.373,0,2.81S.694,0,2.257,0Z" stroke="none"/>
        <path d="M 2.256719350814819 0 C 3.819789409637451 0 5.65787935256958 1.246510028839111 5.65787935256958 2.809580087661743 C 5.65787935256958 4.372640132904053 3.819789409637451 6.046500205993652 2.256719350814819 6.046500205993652 C 0.6936593055725098 6.046500205993652 -4.76837158203125e-07 4.372640132904053 -4.76837158203125e-07 2.809580087661743 C -4.76837158203125e-07 1.246510028839111 0.6936593055725098 0 2.256719350814819 0 Z" stroke="none" fill="#0a0a0a"/>
      </g>
      <g id="Path_18" data-name="Path 18" transform="matrix(0.208, -0.978, 0.978, 0.208, 23.667, 52.44)" fill="none" opacity="0.65">
        <path d="M2.283.064c1.17,0,2.212-.4,2.212.775S3.453,4.3,2.283,4.3,0,3.957,0,2.787,1.112.064,2.283.064Z" stroke="none"/>
        <path d="M 3.576566934585571 -1.192092895507813e-06 C 4.124005317687988 -1.192092895507813e-06 4.494484901428223 0.1408445835113525 4.494484901428223 0.8390915393829346 C 4.494484901428223 2.009561538696289 3.45342493057251 4.303051471710205 2.282964944839478 4.303051471710205 C 1.112494945526123 4.303051471710205 4.76837158203125e-06 3.957171440124512 4.76837158203125e-06 2.786701679229736 C 4.76837158203125e-06 1.616241455078125 1.112494945526123 0.06442141532897949 2.282964944839478 0.06442141532897949 C 2.755177974700928 0.06442141532897949 3.206343173980713 -1.192092895507813e-06 3.576566934585571 -1.192092895507813e-06 Z" stroke="none" fill="#0a0a0a"/>
      </g>
      <g id="Path_19" data-name="Path 19" transform="matrix(0.485, -0.875, 0.875, 0.485, 0, 21.476)" fill="none" opacity="0.65">
        <path d="M7.133,0c3.879,0,6.744.449,6.744,2.16S11.012,6.2,7.133,6.2,0,5.495,0,3.783,3.254,0,7.133,0Z" stroke="none"/>
        <path d="M 7.133085250854492 3.000004291534424 C 6.615494251251221 3.000004291534424 6.09104585647583 3.05245566368103 5.584170341491699 3.15254807472229 C 6.043270587921143 3.180697917938232 6.558160305023193 3.197304248809814 7.133085250854492 3.197304248809814 C 7.691206932067871 3.197304248809814 8.18537425994873 3.129346609115601 8.611377716064453 3.028569936752319 C 8.181626319885254 3.010603904724121 7.691394805908203 3.000004291534424 7.133085250854492 3.000004291534424 M 7.133085250854492 4.291534423828125e-06 C 11.01180553436279 4.291534423828125e-06 13.87735557556152 0.4486541748046875 13.87735557556152 2.159994125366211 C 13.87735557556152 3.871334314346313 11.01180553436279 6.197304248809814 7.133085250854492 6.197304248809814 C 3.254364967346191 6.197304248809814 -4.76837158203125e-06 5.494594097137451 -4.76837158203125e-06 3.783254384994507 C -4.76837158203125e-06 2.071914196014404 3.254364967346191 4.291534423828125e-06 7.133085250854492 4.291534423828125e-06 Z" stroke="none" fill="#0a0a0a"/>
      </g>
      <g id="Ellipse_7" data-name="Ellipse 7" transform="translate(34.108 13.962) rotate(19)" fill="none" stroke="#0a0a0a" stroke-width="3" opacity="0.65">
        <ellipse cx="1.484" cy="1.814" rx="1.484" ry="1.814" stroke="none"/>
        <ellipse cx="1.484" cy="1.814" rx="0.016" ry="0.314" fill="none"/>
      </g>
    </g>
    <g id="LAYERS" transform="translate(0.638 0)">
      <path id="Path_38" data-name="Path 38" d="M0,33.436A31.892,31.892,0,0,0,8.753,26.6c1.692-1.853,4.861-4.542,6.671-6.992C21.6,11.254,24.719,0,24.719,0" transform="translate(0.66 0)" fill="none"/>
      <path id="Path_39" data-name="Path 39" d="M0,26.2s.226-.709,2.2-1.664c1.465-.706,4.428-1.286,6.855-4.329a34.107,34.107,0,0,0,4.329-5.863c.97-1.771,1.3-4.138,2.165-5.592S16.116,5.6,16.725,4.42C18.5.96,18.619,0,18.619,0" transform="translate(0 1.303)" fill="none"/>
      <path id="Path_40" data-name="Path 40" d="M0,40.471A31.892,31.892,0,0,0,8.753,33.64c1.692-1.853,4.861-4.542,6.671-6.992,2.3-3.11,6.225-7.1,8.015-11.585A48.122,48.122,0,0,0,26.506,0" transform="translate(3.298 0.22)" fill="none"/>
      <path id="Path_41" data-name="Path 41" d="M0,43.746s11.028-4.45,15.321-9.153c1.692-1.853,4.861-4.542,6.671-6.992,2.3-3.11,6.225-7.1,8.015-11.585A50.805,50.805,0,0,0,33.012,0" transform="translate(6.623 2.566)" fill="none"/>
      <path id="Path_42" data-name="Path 42" d="M0,43.872S12.684,39.3,16.977,34.593c1.692-1.853,4.861-4.542,6.671-6.992,2.3-3.11,6.225-7.1,8.015-11.585A50.806,50.806,0,0,0,34.667,0" transform="translate(9.034 8.899) rotate(-7)" fill="none"/>
      <path id="Path_43" data-name="Path 43" d="M0,38.124s9.47-6.65,13.491-10.7c1.585-1.6,6.595-7.686,8.291-9.8,1.46-1.817,1.164-2.745,3.078-4.347.8-.669,4.153-1.451,4.693-2.7A31.19,31.19,0,0,0,32.4,0" transform="translate(19.746 18.213) rotate(-7)" fill="none"/>
      <path id="Path_44" data-name="Path 44" d="M0,38.124s9.47-6.65,13.491-10.7c1.585-1.6,6.595-7.686,8.291-9.8,1.46-1.817,1.164-2.745,3.078-4.347.8-.669,4.153-1.451,4.693-2.7A31.19,31.19,0,0,0,32.4,0" transform="translate(19.746 18.213) rotate(-7)" fill="none"/>
      <path id="Path_45" data-name="Path 45" d="M0,21.139A91.064,91.064,0,0,0,10.5,15.6c1.315-.909,5.471-4.373,6.878-5.573,1.211-1.034.966-1.562,2.554-2.474.664-.381,3.445-.826,3.893-1.533C26.106,2.414,26.183,0,26.183,0" transform="matrix(0.993, -0.122, 0.122, 0.993, 29.032, 34.439)" fill="none"/>
    </g>
  </g>
</svg>
