<svg xmlns="http://www.w3.org/2000/svg" width="83.396" height="73.17" viewBox="0 0 83.396 73.17">
  <g id="Group_32" data-name="Group 32" transform="translate(2.298 0.43)">
    <g id="Group_29" data-name="Group 29" transform="translate(45.419 1.06) rotate(17)">
      <g id="Path_106" data-name="Path 106" transform="translate(1.963 2.006)" fill="#fcfcfc">
        <path d="M 33.34269332885742 53.04353713989258 C 33.33073043823242 53.04353713989258 33.31877136230469 53.04336547851563 33.30673980712891 53.04302597045898 L 4.098781585693359 52.22257614135742 C 3.102071523666382 52.19457626342773 2.23211145401001 51.01523590087891 2.199081420898438 49.64727783203125 L 1.083561539649963 3.448326826095581 C 1.064891576766968 2.675266742706299 1.307831525802612 1.972046732902527 1.750091552734375 1.518976807594299 C 1.946741461753845 1.317526817321777 2.275231599807739 1.077396750450134 2.723451614379883 1.077396750450134 C 2.735411405563354 1.077396750450134 2.747371435165405 1.077566742897034 2.759401559829712 1.077906727790833 L 31.96736145019531 1.898356795310974 C 32.96407318115234 1.926356792449951 33.83403015136719 3.105696678161621 33.86706161499023 4.47365665435791 L 34.98258972167969 50.672607421875 C 35.00125122070313 51.4456672668457 34.7583122253418 52.14888763427734 34.3160514831543 52.60195541381836 C 34.11940002441406 52.80340576171875 33.79091262817383 53.04353713989258 33.34269332885742 53.04353713989258 Z" stroke="none"/>
        <path d="M 2.72344970703125 2.077396392822266 C 2.643150329589844 2.077396392822266 2.556430816650391 2.124538421630859 2.465682983398438 2.217494964599609 C 2.271522521972656 2.416397094726563 2.069103240966797 2.837848663330078 2.083263397216797 3.424186706542969 L 3.19879150390625 49.62313842773438 C 3.222381591796875 50.60006713867188 3.813079833984375 51.21415710449219 4.126861572265625 51.22297668457031 L 33.33466339111328 52.04341506958008 L 33.34268951416016 52.04353713989258 C 33.42299270629883 52.04353713989258 33.50971221923828 51.99639511108398 33.60046005249023 51.90343475341797 C 33.79461288452148 51.70453643798828 33.99703216552734 51.28308868408203 33.98287200927734 50.69674682617188 L 32.86735153198242 4.497795104980469 C 32.8437614440918 3.520866394042969 32.2530632019043 2.906776428222656 31.93928146362305 2.897956848144531 L 2.731479644775391 2.077518463134766 L 2.72344970703125 2.077396392822266 M 2.723453521728516 0.07739639282226563 C 2.744747161865234 0.07739639282226563 2.766059875488281 0.07769393920898438 2.787483215332031 0.07829666137695313 L 31.99544143676758 0.8987464904785156 C 33.53493118286133 0.9419975280761719 34.82046127319336 2.531726837158203 34.86677169799805 4.449516296386719 L 35.98229217529297 50.64846801757813 C 36.02795791625977 52.53956985473633 34.85153961181641 54.04353713989258 33.34268951416016 54.04353713989258 C 33.32139587402344 54.04353713989258 33.30008316040039 54.04323959350586 33.27865982055664 54.04263687133789 L 4.070701599121094 53.22218704223633 C 2.531211853027344 53.17893600463867 1.245681762695313 51.58919525146484 1.199371337890625 49.67141723632813 L 0.08384323120117188 3.472465515136719 C 0.03818511962890625 1.581363677978516 1.214603424072266 0.07739639282226563 2.723453521728516 0.07739639282226563 Z" stroke="none" fill="#0a0a0a"/>
      </g>
      <path id="Path_109" data-name="Path 109" d="M0,0,30.066.663l.15,4.878L.15,4.878Z" transform="translate(4.904 4.962)" fill="#a5a5a5" opacity="0.41"/>
      <path id="Path_110" data-name="Path 110" d="M1.413.036A1.587,1.587,0,0,1,2.867,1.629,1.4,1.4,0,0,1,1.5,3.15,1.587,1.587,0,0,1,.042,1.557,1.4,1.4,0,0,1,1.413.036Z" transform="translate(25.467 6.071)" fill="#4dd87c"/>
      <path id="Path_105" data-name="Path 105" d="M1.392.035A1.578,1.578,0,0,1,2.825,1.628a1.392,1.392,0,0,1-1.35,1.523A1.578,1.578,0,0,1,.042,1.558,1.392,1.392,0,0,1,1.392.035Z" transform="translate(29.882 6.071)" fill="#f93939"/>
      <path id="Path_111" data-name="Path 111" d="M0,0,25.185.583l.178,6.067L.178,6.067Z" transform="translate(7.263 15.395)" fill="#a5a5a5" opacity="0.41"/>
      <path id="Path_112" data-name="Path 112" d="M0,0,16.52-.444l-.38,15.071-16.52.444Z" transform="translate(32.629 26.258) rotate(90)" fill="#a5a5a5" opacity="0.41"/>
      <path id="Path_113" data-name="Path 113" d="M0,0,16.7-.432l-.2,7.464L-.2,7.464Z" transform="translate(14.965 25.691) rotate(90)" fill="#a5a5a5" opacity="0.41"/>
      <g id="Path_114" data-name="Path 114" transform="translate(5.093 18.309)" fill="none">
        <path d="M4.846.123,24.287.614a5.187,5.187,0,0,1,4.977,5.014L29.9,29.186a4.574,4.574,0,0,1-4.715,4.769L5.74,33.463A5.187,5.187,0,0,1,.763,28.449L.131,4.892A4.574,4.574,0,0,1,4.846.123Z" stroke="none"/>
        <path d="M 4.722124099731445 2.121006011962891 C 4.007453918457031 2.121006011962891 3.348472595214844 2.393606185913086 2.866582870483398 2.888586044311523 C 2.371793746948242 3.396825790405273 2.110363006591797 4.089237213134766 2.130443572998047 4.838266372680664 L 2.762092590332031 28.39520645141602 C 2.783422470092773 29.19078636169434 3.114513397216797 29.95067596435547 3.694374084472656 30.53489685058594 C 4.269474029541016 31.11433601379395 5.013843536376953 31.44426727294922 5.790353775024414 31.46390724182129 L 25.23201370239258 31.95569610595703 C 25.25652313232422 31.9563159942627 25.28073310852051 31.95662689208984 25.30508422851563 31.95662689208984 C 26.01975250244141 31.95662689208984 26.67873382568359 31.68402671813965 27.16062355041504 31.18904685974121 C 27.6554126739502 30.68080711364746 27.91684341430664 29.98839569091797 27.89676284790039 29.23936653137207 L 27.26511383056641 5.682426452636719 C 27.24378395080566 4.886846542358398 26.91269302368164 4.126956939697266 26.33283233642578 3.542736053466797 C 25.75773239135742 2.963296890258789 25.01337432861328 2.633365631103516 24.23686218261719 2.613725662231445 L 4.795192718505859 2.121936798095703 C 4.770683288574219 2.121316909790039 4.74647331237793 2.121006011962891 4.722124099731445 2.121006011962891 M 4.722126007080078 0.1210098266601563 C 4.763338088989258 0.1210098266601563 4.804304122924805 0.1215286254882813 4.845792770385742 0.1225776672363281 L 24.28744316101074 0.6143646240234375 C 26.96369361877441 0.68206787109375 29.19195365905762 2.927106857299805 29.2643928527832 5.628816604614258 L 29.89604377746582 29.18575668334961 C 29.96735954284668 31.8455810546875 27.92220687866211 33.95662307739258 25.30508041381836 33.95662307739258 C 25.26386833190918 33.95662307739258 25.22290420532227 33.95610427856445 25.1814136505127 33.95505523681641 L 5.739772796630859 33.4632682800293 C 3.063512802124023 33.39556503295898 0.8352527618408203 31.15052604675293 0.7628135681152344 28.44881629943848 L 0.1311626434326172 4.891876220703125 C 0.05984687805175781 2.232049942016602 2.104999542236328 0.1210098266601563 4.722126007080078 0.1210098266601563 Z" stroke="none" fill="#0a0a0a"/>
      </g>
    </g>
    <g id="Group_31" data-name="Group 31" transform="translate(0 14.76) rotate(-22)">
      <g id="Path_106-2" data-name="Path 106" transform="translate(-0.303 -0.488)" fill="#fcfcfc">
        <path d="M 1.24873423576355 53.24686431884766 C 0.729354202747345 53.24686431884766 0.3600441813468933 52.97863388061523 0.1416741907596588 52.75360488891602 C -0.3061358034610748 52.29213333129883 -0.5497658252716064 51.58800506591797 -0.5267358422279358 50.82177352905273 L 0.8928542137145996 3.580834865570068 C 0.9353941679000854 2.164934873580933 1.898914217948914 0.9383948445320129 2.996864080429077 0.9024748206138611 L 34.05602264404297 -0.1139251664280891 C 34.07265472412109 -0.1144651621580124 34.0892333984375 -0.1147351637482643 34.10574340820313 -0.1147351637482643 C 34.62512588500977 -0.1147351637482643 34.99444580078125 0.1535048335790634 35.21280288696289 0.3785248398780823 C 35.66062545776367 0.8399948477745056 35.90425491333008 1.544124841690063 35.8812255859375 2.310364723205566 L 34.46164321899414 49.55130386352539 C 34.41909408569336 50.96719360351563 33.45557403564453 52.19373321533203 32.35762405395508 52.22965621948242 L 1.298454165458679 53.24605560302734 C 1.281824231147766 53.2465934753418 1.265244245529175 53.24686431884766 1.24873423576355 53.24686431884766 Z" stroke="none"/>
        <path d="M 34.10574340820313 0.8852653503417969 C 34.10003280639648 0.8852653503417969 34.09429550170898 0.8853645324707031 34.08872222900391 0.8855438232421875 L 3.029575347900391 1.901924133300781 C 2.526943206787109 1.918373107910156 1.92071533203125 2.668464660644531 1.89239501953125 3.610855102539063 L 0.4728126525878906 50.851806640625 C 0.4580841064453125 51.34199523925781 0.6025733947753906 51.7926139831543 0.8593254089355469 52.05720520019531 C 1.043373107910156 52.24686431884766 1.197944641113281 52.24686431884766 1.248733520507813 52.24686431884766 C 1.254444122314453 52.24686431884766 1.260185241699219 52.24676513671875 1.265754699707031 52.24658584594727 L 32.32492446899414 51.23019409179688 C 32.82754516601563 51.2137451171875 33.43377304077148 50.46366500854492 33.46208572387695 49.52126312255859 L 34.88167572021484 2.280315399169922 C 34.89640426635742 1.790122985839844 34.75191497802734 1.339515686035156 34.49516296386719 1.074935913085938 C 34.31111526489258 0.8852653503417969 34.15653228759766 0.8852653503417969 34.10574340820313 0.8852653503417969 M 34.10574340820313 -1.114734649658203 C 35.70310211181641 -1.114734649658203 36.93871307373047 0.4123916625976563 36.88077545166016 2.34039306640625 L 35.46118545532227 49.58133316040039 C 35.40226364135742 51.54238510131836 34.02738571166992 53.17555618286133 32.39033508300781 53.2291259765625 L 1.331165313720703 54.24551391601563 C 1.303585052490234 54.24641799926758 1.276103973388672 54.24686431884766 1.248733520507813 54.24686431884766 C -0.3486137390136719 54.24686431884766 -1.584224700927734 52.7197380065918 -1.526287078857422 50.79172515869141 L -0.1067047119140625 3.550785064697266 C -0.0477752685546875 1.589733123779297 1.327095031738281 -0.043426513671875 2.964153289794922 -0.09700393676757813 L 34.0233154296875 -1.113384246826172 C 34.0508918762207 -1.114288330078125 34.07837295532227 -1.114734649658203 34.10574340820313 -1.114734649658203 Z" stroke="none" fill="#0a0a0a"/>
      </g>
      <path id="Path_115" data-name="Path 115" d="M0,0,32.673-.788,32.478,4-.2,4.787Z" transform="translate(1.084 3.132)" fill="#a5a5a5" opacity="0.41"/>
      <path id="Path_116" data-name="Path 116" d="M1.413-.043A1.384,1.384,0,0,1,2.777,1.473a1.61,1.61,0,0,1-1.464,1.6A1.384,1.384,0,0,1-.05,1.56,1.61,1.61,0,0,1,1.413-.043Z" transform="translate(23.518 3.545)" fill="#4dd87c"/>
      <path id="Path_105-2" data-name="Path 105" d="M1.392-.043A1.376,1.376,0,0,1,2.735,1.475a1.6,1.6,0,0,1-1.442,1.6A1.376,1.376,0,0,1-.05,1.56,1.6,1.6,0,0,1,1.392-.043Z" transform="translate(28.507 3.544)" fill="#f93939"/>
      <path id="Path_117" data-name="Path 117" d="M0,0,28.032-.7,27.795,5.3l-28.032.7Z" transform="translate(3.217 14.98)" fill="#a5a5a5" opacity="0.41"/>
      <path id="Path_118" data-name="Path 118" d="M0,0,16.544.532,17,15.611.461,15.079Z" transform="translate(29.778 24.43) rotate(90)" fill="#a5a5a5" opacity="0.41"/>
      <path id="Path_119" data-name="Path 119" d="M0,0,16.767.515,17,7.945.238,7.43Z" transform="translate(10.925 24.876) rotate(90)" fill="#a5a5a5" opacity="0.41"/>
      <g id="Path_120" data-name="Path 120" transform="translate(2.054 16.697)" fill="none">
        <path d="M5.241-.148l21.222-.6a4.7,4.7,0,0,1,5.071,4.722L30.71,27.63A5.468,5.468,0,0,1,25.3,32.648l-21.222.6A4.7,4.7,0,0,1-.994,28.524L-.17,4.87A5.468,5.468,0,0,1,5.241-.148Z" stroke="none"/>
        <path d="M 26.62494277954102 1.251304626464844 C 26.58994293212891 1.251304626464844 26.5545539855957 1.251813888549805 26.51944351196289 1.25279426574707 L 5.297393798828125 1.851373672485352 C 4.382362365722656 1.87718391418457 3.511503219604492 2.231653213500977 2.845233917236328 2.849493026733398 C 2.216573715209961 3.432443618774414 1.855672836303711 4.174623489379883 1.829013824462891 4.939292907714844 L 1.004312515258789 28.59416389465332 C 0.9746837615966797 29.4439640045166 1.357723236083984 30.02542304992676 1.684282302856445 30.36355400085449 C 2.235424041748047 30.93425369262695 3.027584075927734 31.24854278564453 3.914854049682617 31.24854278564453 C 3.949853897094727 31.24854278564453 3.98524284362793 31.24803352355957 4.020353317260742 31.2470531463623 L 25.24241256713867 30.64847373962402 C 26.15744400024414 30.6226634979248 27.0283031463623 30.2681941986084 27.69457244873047 29.65035438537598 C 28.32323265075684 29.06740379333496 28.68413352966309 28.32522392272949 28.71079254150391 27.56055450439453 L 29.53549385070801 3.905693054199219 C 29.56512260437012 3.055883407592773 29.18207359313965 2.474424362182617 28.85551261901855 2.136283874511719 C 28.30437278747559 1.565593719482422 27.5122127532959 1.251304626464844 26.62494277954102 1.251304626464844 M 26.62494850158691 -0.7486953735351563 C 29.44194602966309 -0.7486953735351563 31.62629127502441 1.336193084716797 31.53428268432617 3.975374221801758 L 30.7095832824707 27.6302433013916 C 30.61581230163574 30.31965446472168 28.19333267211914 32.56603240966797 25.29880332946777 32.64767456054688 L 4.076744079589844 33.24625396728516 C 4.022682189941406 33.24777984619141 3.968461990356445 33.24854278564453 3.914848327636719 33.24854278564453 C 1.097860336303711 33.24854278564453 -1.086496353149414 31.16365432739258 -0.994476318359375 28.52447319030762 L -0.1697769165039063 4.869604110717773 C -0.07600593566894531 2.180192947387695 2.346473693847656 -0.06618499755859375 5.241003036499023 -0.1478271484375 L 26.46305274963379 -0.7464065551757813 C 26.51711273193359 -0.7479324340820313 26.57133483886719 -0.7486953735351563 26.62494850158691 -0.7486953735351563 Z" stroke="none" fill="#0a0a0a"/>
      </g>
    </g>
    <g id="Group_30" data-name="Group 30" transform="translate(21.045 0.205)">
      <g id="Path_106-3" data-name="Path 106" transform="translate(0 0)" fill="#fcfcfc">
        <path d="M 38.04177093505859 55.36504364013672 L 3.3142409324646 55.36504364013672 C 2.038161039352417 55.36504364013672 1.000000953674316 54.16147994995117 1.000000953674316 52.68210220336914 L 1.000000953674316 3.682941913604736 C 1.000000953674316 2.203561782836914 2.038161039352417 1.000001788139343 3.3142409324646 1.000001788139343 L 38.04177093505859 1.000001788139343 C 39.31785202026367 1.000001788139343 40.35602188110352 2.203561782836914 40.35602188110352 3.682941913604736 L 40.35602188110352 52.68210220336914 C 40.35602188110352 54.16147994995117 39.31785202026367 55.36504364013672 38.04177093505859 55.36504364013672 Z" stroke="none"/>
        <path d="M 3.314239501953125 2 C 2.601852416992188 2 2 2.77069091796875 2 3.682941436767578 L 2 52.68210220336914 C 2 53.59435272216797 2.601852416992188 54.36504364013672 3.314239501953125 54.36504364013672 L 38.04177093505859 54.36504364013672 C 38.75416946411133 54.36504364013672 39.35602188110352 53.59435272216797 39.35602188110352 52.68210220336914 L 39.35602188110352 3.682941436767578 C 39.35602188110352 2.77069091796875 38.75416946411133 2 38.04177093505859 2 L 3.314239501953125 2 M 3.314239501953125 0 L 38.04177093505859 0 C 39.8721809387207 0 41.35602188110352 1.648910522460938 41.35602188110352 3.682941436767578 L 41.35602188110352 52.68210220336914 C 41.35602188110352 54.71613311767578 39.8721809387207 56.36504364013672 38.04177093505859 56.36504364013672 L 3.314239501953125 56.36504364013672 C 1.483840942382813 56.36504364013672 0 54.71613311767578 0 52.68210220336914 L 0 3.682941436767578 C 0 1.648910522460938 1.483840942382813 0 3.314239501953125 0 Z" stroke="none" fill="#0a0a0a"/>
      </g>
      <rect id="Rectangle_3" data-name="Rectangle 3" width="35" height="7" transform="translate(3.392 4.036)" fill="#a5a5a5" opacity="0.41"/>
      <ellipse id="Ellipse_9" data-name="Ellipse 9" cx="1.5" cy="2" rx="1.5" ry="2" transform="translate(27.392 6.036)" fill="#4dd87c"/>
      <path id="Path_105-3" data-name="Path 105" d="M1.657,0A1.757,1.757,0,0,1,3.314,1.841,1.757,1.757,0,0,1,1.657,3.683,1.757,1.757,0,0,1,0,1.841,1.757,1.757,0,0,1,1.657,0Z" transform="translate(31.846 5.925)" fill="#f93939"/>
      <rect id="Rectangle_4" data-name="Rectangle 4" width="30" height="8" transform="translate(5.392 16.036)" fill="#a5a5a5" opacity="0.41"/>
      <rect id="Rectangle_5" data-name="Rectangle 5" width="19" height="18" transform="translate(35.392 26.036) rotate(90)" fill="#a5a5a5" opacity="0.41"/>
      <rect id="Rectangle_6" data-name="Rectangle 6" width="19" height="9" transform="translate(14.392 26.036) rotate(90)" fill="#a5a5a5" opacity="0.41"/>
      <g id="Rectangle_7" data-name="Rectangle 7" transform="translate(3.392 13.036)" fill="none" stroke="#0a0a0a" stroke-width="2">
        <rect width="35" height="39" rx="5" stroke="none"/>
        <rect x="1" y="1" width="33" height="37" rx="4" fill="none"/>
      </g>
    </g>
    <g id="Path_107" data-name="Path 107" transform="translate(5.875 44.849)" fill="#4dd8d3">
      <path d="M 64.85182952880859 26.89127731323242 L 6.885507583618164 26.89127731323242 C 3.640227556228638 26.89127731323242 0.999997615814209 24.46278762817383 0.999997615814209 21.4777774810791 L 0.999997615814209 6.413496971130371 C 0.999997615814209 3.428486824035645 3.640227556228638 0.9999967217445374 6.885507583618164 0.9999967217445374 L 26.67936515808105 0.9999967217445374 C 26.86728096008301 1.928633570671082 27.27801513671875 3.449597597122192 28.13418769836426 4.978416919708252 C 29.96647834777832 8.250216484069824 32.93044662475586 9.979597091674805 36.70565795898438 9.979597091674805 C 36.80118942260742 9.979597091674805 36.89761734008789 9.978507041931152 36.99496841430664 9.976286888122559 C 41.9220085144043 9.864067077636719 44.22114944458008 7.119496822357178 45.28229904174805 4.836846828460693 C 45.96237945556641 3.373907804489136 46.21860504150391 1.92842960357666 46.31464767456055 0.9999967217445374 L 64.85182952880859 0.9999967217445374 C 68.09710693359375 0.9999967217445374 70.73733520507813 3.428486824035645 70.73733520507813 6.413496971130371 L 70.73733520507813 21.4777774810791 C 70.73733520507813 24.46278762817383 68.09710693359375 26.89127731323242 64.85182952880859 26.89127731323242 Z" stroke="none"/>
      <path d="M 6.885498046875 2.000003814697266 C 4.191619873046875 2.000003814697266 2 3.979892730712891 2 6.413503646850586 L 2 21.47776985168457 C 2 23.91138076782227 4.191619873046875 25.89126968383789 6.885498046875 25.89126968383789 L 64.85182189941406 25.89126968383789 C 67.54570007324219 25.89126968383789 69.73733520507813 23.91138076782227 69.73733520507813 21.47776985168457 L 69.73733520507813 6.413503646850586 C 69.73733520507813 3.979892730712891 67.54570007324219 2.000003814697266 64.85182189941406 2.000003814697266 L 47.18881607055664 2.000003814697266 C 47.03018188476563 2.930208206176758 46.73539733886719 4.083250045776367 46.18910217285156 5.258403778076172 C 45.00834655761719 7.798358917236328 42.45872497558594 10.85210418701172 37.01778030395508 10.97602653503418 C 36.91371154785156 10.97840309143066 36.80870056152344 10.9796028137207 36.70566940307617 10.9796028137207 C 32.54701232910156 10.9796028137207 29.28133392333984 9.073392868041992 27.26169967651367 5.467037200927734 C 26.56241607666016 4.218366622924805 26.13893127441406 2.969108581542969 25.88689041137695 2.000003814697266 L 6.885498046875 2.000003814697266 M 6.885498046875 3.814697265625e-06 L 27.52921295166016 3.814697265625e-06 C 27.52921295166016 3.814697265625e-06 28.41032791137695 8.97960090637207 36.70566558837891 8.97960090637207 C 36.79367446899414 8.97960090637207 36.88251495361328 8.97859001159668 36.97220230102539 8.976547241210938 C 45.51527786254883 8.781959533691406 45.37146759033203 3.814697265625e-06 45.37146759033203 3.814697265625e-06 L 64.85182189941406 3.814697265625e-06 C 68.65458679199219 3.814697265625e-06 71.73733520507813 2.871425628662109 71.73733520507813 6.413503646850586 L 71.73733520507813 21.47776985168457 C 71.73733520507813 25.01984786987305 68.65458679199219 27.89126968383789 64.85182189941406 27.89126968383789 L 6.885498046875 27.89126968383789 C 3.082748413085938 27.89126968383789 0 25.01984786987305 0 21.47776985168457 L 0 6.413503646850586 C 0 2.871425628662109 3.082748413085938 3.814697265625e-06 6.885498046875 3.814697265625e-06 Z" stroke="none" fill="#0a0a0a"/>
    </g>
    <rect id="Rectangle_8" data-name="Rectangle 8" width="11" height="5" rx="2.5" transform="translate(13.437 48.24)" fill="#2d9793"/>
  </g>
</svg>
