<svg xmlns="http://www.w3.org/2000/svg" xmlns:xlink="http://www.w3.org/1999/xlink" width="82.106" height="73.4" viewBox="0 0 82.106 73.4">
  <defs>
    <linearGradient id="linear-gradient" x1="0.571" y1="0.054" x2="0.5" y2="1" gradientUnits="objectBoundingBox">
      <stop offset="0" stop-color="#04ddff"/>
      <stop offset="1" stop-color="#a7eef9"/>
    </linearGradient>
  </defs>
  <g id="Group_28" data-name="Group 28" transform="translate(82.105 73.4) rotate(180)">
    <g id="Path_89" data-name="Path 89" transform="translate(6.925 1.425)" fill="url(#linear-gradient)">
      <path d="M 35.98730087280273 70.97460174560547 C 31.26360130310059 70.97460174560547 26.68173027038574 70.0496826171875 22.36897087097168 68.22554016113281 C 18.20283126831055 66.46340942382813 14.46104049682617 63.9405517578125 11.24754047393799 60.7270622253418 C 8.034050941467285 57.5135612487793 5.511190891265869 53.77177047729492 3.749060869216919 49.60562896728516 C 1.924920916557312 45.29286956787109 1.000000834465027 40.71100234985352 1.000000834465027 35.98730087280273 C 1.000000834465027 31.26360130310059 1.924920916557312 26.68173027038574 3.749060869216919 22.36897087097168 C 5.511190891265869 18.20283126831055 8.034050941467285 14.46104049682617 11.24754047393799 11.24754047393799 C 14.46104049682617 8.034050941467285 18.20283126831055 5.511190891265869 22.36897087097168 3.749060869216919 C 26.68173027038574 1.924920916557312 31.26360130310059 1.000000834465027 35.98730087280273 1.000000834465027 C 40.71100234985352 1.000000834465027 45.29286956787109 1.924920916557312 49.60562896728516 3.749060869216919 C 53.77177047729492 5.511190891265869 57.5135612487793 8.034050941467285 60.7270622253418 11.24754047393799 C 63.9405517578125 14.46104049682617 66.46340942382813 18.20283126831055 68.22554016113281 22.36897087097168 C 70.0496826171875 26.68173027038574 70.97460174560547 31.26360130310059 70.97460174560547 35.98730087280273 C 70.97460174560547 40.71100234985352 70.0496826171875 45.29286956787109 68.22554016113281 49.60562896728516 C 66.46340942382813 53.77177047729492 63.9405517578125 57.5135612487793 60.7270622253418 60.7270622253418 C 57.5135612487793 63.9405517578125 53.77177047729492 66.46340942382813 49.60562896728516 68.22554016113281 C 45.29286956787109 70.0496826171875 40.71100234985352 70.97460174560547 35.98730087280273 70.97460174560547 Z" stroke="none"/>
      <path d="M 35.98730087280273 2 C 31.39816665649414 2 26.94735717773438 2.898345947265625 22.75852203369141 4.670066833496094 C 18.71157836914063 6.381790161132813 15.07663345336914 8.832668304443359 11.95465469360352 11.95465469360352 C 8.832668304443359 15.07663345336914 6.381790161132813 18.71157836914063 4.670066833496094 22.75852203369141 C 2.898345947265625 26.94735717773438 2 31.39816665649414 2 35.98730087280273 C 2 40.57643508911133 2.898345947265625 45.02724456787109 4.670066833496094 49.21607971191406 C 6.381790161132813 53.26302337646484 8.832668304443359 56.89796829223633 11.95465469360352 60.01994323730469 C 15.07663345336914 63.14193344116211 18.71157836914063 65.59281158447266 22.75852203369141 67.30453491210938 C 26.94735717773438 69.07625579833984 31.39816665649414 69.97460174560547 35.98730087280273 69.97460174560547 C 40.57643508911133 69.97460174560547 45.02724456787109 69.07625579833984 49.21607971191406 67.30453491210938 C 53.26302337646484 65.59281158447266 56.89796829223633 63.14193344116211 60.01994323730469 60.01994323730469 C 63.14193344116211 56.89796829223633 65.59281158447266 53.26302337646484 67.30453491210938 49.21607971191406 C 69.07625579833984 45.02724456787109 69.97460174560547 40.57643508911133 69.97460174560547 35.98730087280273 C 69.97460174560547 31.39816665649414 69.07625579833984 26.94735717773438 67.30453491210938 22.75852203369141 C 65.59281158447266 18.71157836914063 63.14193344116211 15.07663345336914 60.01994323730469 11.95465469360352 C 56.89796829223633 8.832668304443359 53.26302337646484 6.381790161132813 49.21607971191406 4.670066833496094 C 45.02724456787109 2.898345947265625 40.57643508911133 2 35.98730087280273 2 M 35.98730087280273 0 C 55.86253356933594 0 71.97460174560547 16.11206817626953 71.97460174560547 35.98730087280273 C 71.97460174560547 55.86253356933594 55.86253356933594 71.97460174560547 35.98730087280273 71.97460174560547 C 16.11206817626953 71.97460174560547 0 55.86253356933594 0 35.98730087280273 C 0 16.11206817626953 16.11206817626953 0 35.98730087280273 0 Z" stroke="none" fill="#0a0a0a"/>
    </g>
    <g id="Path_86" data-name="Path 86" transform="matrix(0.978, -0.208, 0.208, 0.978, 32.85, 8.048)" fill="#43ff00">
      <path d="M 15.10288047790527 53.79997253417969 C 14.08708000183105 53.79997253417969 13.36867046356201 53.34816360473633 12.77350997924805 52.33501434326172 C 12.17389965057373 51.31428527832031 11.81999015808105 49.9006233215332 11.50774955749512 48.65337371826172 C 11.2390604019165 47.58007431030273 10.98526000976563 46.5662956237793 10.58963012695313 45.83536529541016 C 10.46212959289551 45.59981536865234 10.32357025146484 45.27588272094727 10.3874397277832 45.07027435302734 C 10.4412202835083 44.89715576171875 10.64291000366211 44.68166351318359 10.8564395904541 44.45351409912109 C 11.29362010955811 43.98642349243164 11.89235973358154 43.34671401977539 11.92949962615967 42.31767272949219 C 11.96049022674561 41.45811462402344 11.48425006866455 40.78447341918945 11.0640697479248 40.19013595581055 C 10.82155990600586 39.84710311889648 10.51976013183594 39.42020416259766 10.54411029815674 39.20729446411133 C 10.62808990478516 38.47310256958008 10.71928977966309 37.77039337158203 10.79975986480713 37.15040588378906 C 10.97054958343506 35.83446502685547 11.05154037475586 35.18586349487305 11.02661991119385 34.82435607910156 C 10.99695014953613 34.39376449584961 10.74824047088623 33.83370590209961 9.731889724731445 33.61085510253906 C 9.362469673156738 33.52985382080078 8.887450218200684 33.47990417480469 8.337430000305176 33.42206573486328 C 7.045130252838135 33.28617477416992 5.275259971618652 33.10005569458008 3.805540084838867 32.39701461791992 C 2.18806004524231 31.6232738494873 1.292710065841675 30.37551498413086 1.068320035934448 28.58240509033203 C 0.9004579782485962 27.21457481384277 0.9901418685913086 22.80806922912598 1.891069293022156 20.60777854919434 C 3.342728137969971 19.12583160400391 5.263826370239258 17.65432357788086 8.438449859619141 17.65432357788086 C 10.29485034942627 17.65432357788086 12.47527027130127 18.15908432006836 14.91913986206055 19.15457344055176 L 14.99149036407471 19.18404388427734 L 15.06752967834473 19.20192527770996 C 15.27085971832275 19.24972343444824 15.46809005737305 19.27396392822266 15.65373992919922 19.27396392822266 C 16.77813911437988 19.27396392822266 17.26878929138184 18.43978500366211 17.53237915039063 17.99162483215332 C 17.77313995361328 17.58228492736816 17.79311943054199 17.58228492736816 17.92313003540039 17.58228492736816 C 18.13054084777832 17.58228492736816 18.63862991333008 17.67152404785156 19.71113967895508 18.2691650390625 C 20.58254051208496 18.7547435760498 21.3112907409668 18.99078369140625 21.93902969360352 18.99078369140625 C 22.59299087524414 18.99078369140625 23.15875053405762 18.72514343261719 23.53210067749023 18.24278450012207 C 24.3688793182373 17.16169357299805 24.04994964599609 15.34876441955566 23.62759971618652 13.71792411804199 C 23.60995864868164 13.64980697631836 23.58816528320313 13.56568336486816 23.58159637451172 13.53622436523438 C 23.35380744934082 12.28709697723389 22.42144584655762 12.18979454040527 22.1406307220459 12.18979454040527 C 21.67771911621094 12.18979454040527 21.24333953857422 12.39588451385498 20.78347015380859 12.61406421661377 C 20.29694938659668 12.84488391876221 19.74551010131836 13.10650444030762 19.20568084716797 13.1065845489502 C 19.20450019836426 13.1065845489502 19.20329284667969 13.1065845489502 19.20208930969238 13.1065845489502 C 18.95669555664063 13.1065845489502 18.2235221862793 13.10046863555908 17.28244972229004 11.82558441162109 L 17.02066040039063 11.47094440460205 L 16.5822696685791 11.42493438720703 C 16.52083969116211 11.41848468780518 16.45561027526855 11.41522407531738 16.38839912414551 11.41522407531738 C 15.88743019104004 11.41522407531738 15.19124031066895 11.59928417205811 14.22768974304199 11.85404396057129 C 12.95594024658203 12.19028472900391 11.37320995330811 12.60875415802002 10.11050987243652 12.60875415802002 C 8.559940338134766 12.60875415802002 8.406430244445801 12.0075740814209 8.382089614868164 11.39181423187256 L 8.380270004272461 11.34580421447754 L 8.37423038482666 11.30015468597412 C 8.194009780883789 9.937984466552734 8.02826976776123 8.493444442749023 8.035679817199707 7.158544540405273 C 8.046910285949707 5.136294364929199 8.463089942932129 4.521794319152832 8.641500473022461 4.35146427154541 C 8.80543041229248 4.194954395294189 9.273909568786621 3.909784317016602 10.56974029541016 3.758264303207397 C 11.5901403427124 3.638954401016235 12.78524971008301 3.634684324264526 13.94099998474121 3.630564451217651 C 15.41012001037598 3.625314474105835 16.67889022827148 3.620784282684326 17.58444976806641 3.396974325180054 C 19.27127075195313 2.979984283447266 19.51256942749023 1.74325430393219 19.6285400390625 1.148914337158203 C 19.63751602172852 1.102915644645691 19.64793395996094 1.04951012134552 19.65852165222168 1.000071883201599 C 21.48805236816406 1.008984446525574 23.63044166564941 1.914589405059814 25.85671043395996 3.620364427566528 C 27.98253059387207 5.249184131622314 30.12021064758301 7.545584201812744 32.03863143920898 10.26128482818604 C 34.11442947387695 13.19978427886963 35.79322052001953 16.44794464111328 36.76575088500977 19.40743446350098 C 37.76197052001953 22.43901443481445 37.97259902954102 25.06184387207031 37.35882949829102 26.79278373718262 C 37.22737121582031 27.16352462768555 37.12842178344727 27.56318473815918 37.03274154663086 27.94967460632324 C 36.662841796875 29.44375419616699 36.34337997436523 30.73409461975098 34.37768936157227 31.3003044128418 C 34.01816940307617 31.40386390686035 33.61231994628906 31.45637512207031 33.17142868041992 31.45638465881348 C 31.73714065551758 31.45642471313477 30.1548900604248 30.92306518554688 28.7588996887207 30.45248413085938 C 27.62627983093262 30.0706844329834 26.64812088012695 29.74095344543457 25.86055946350098 29.74095344543457 C 25.79570960998535 29.74095344543457 25.73159980773926 29.74317359924316 25.67001914978027 29.74754524230957 C 24.46504020690918 29.83300399780273 24.19156074523926 30.47819519042969 24.13578033447266 30.85518455505371 C 23.99398040771484 31.81364440917969 25.04573059082031 32.43113327026367 25.49485015869141 32.6948127746582 C 26.05925941467285 33.02618408203125 26.81841087341309 33.38240432739258 27.57762908935547 33.67215347290039 C 28.2310905456543 33.92152404785156 28.98391914367676 34.09958267211914 29.78095054626465 34.28809356689453 C 30.67756080627441 34.50016403198242 31.60467910766602 34.71944427490234 32.32748031616211 35.03637313842773 C 33.41886901855469 35.51482391357422 34.04512023925781 36.21564483642578 33.96189880371094 36.86538314819336 C 33.93428039550781 37.0810661315918 33.6950798034668 37.6707649230957 32.07452011108398 38.48654556274414 C 30.8557300567627 39.10007476806641 29.38075065612793 39.58137512207031 28.19559097290039 39.96810531616211 C 26.74216079711914 40.44237518310547 26.19832992553711 40.61982345581055 25.8880500793457 41.04736328125 C 25.70796966552734 41.29551315307617 25.63138961791992 41.57777404785156 25.36702919006348 42.61770248413086 C 24.86969947814941 44.5740852355957 23.83484077453613 48.64499282836914 22.07472991943359 50.22834396362305 L 21.9182300567627 50.36912536621094 L 21.8317699432373 50.56104278564453 C 21.5899600982666 51.09781265258789 21.47707939147949 51.62564468383789 21.38637924194336 52.04976272583008 C 21.33284568786621 52.30009841918945 21.25266456604004 52.67506408691406 21.18074226379395 52.77861022949219 C 19.96539115905762 53.58618927001953 16.67746543884277 53.79997253417969 15.10288047790527 53.79997253417969 Z" stroke="none"/>
      <path d="M 20.42843437194824 2.063484191894531 C 20.15805625915527 2.871158599853516 19.52109909057617 3.948326110839844 17.82438087463379 4.367763519287109 C 16.80240058898926 4.620346069335938 15.47805976867676 4.625072479248047 13.94459915161133 4.630542755126953 C 12.87231063842773 4.634372711181641 11.76350975036621 4.638336181640625 10.82633018493652 4.735984802246094 C 9.808931350708008 4.841983795166016 9.437034606933594 5.017353057861328 9.342128753662109 5.072257995605469 C 9.277158737182617 5.188648223876953 9.022003173828125 5.750633239746094 9.0360107421875 7.371925354003906 C 9.048080444335938 8.769065856933594 9.254629135131836 10.33026504516602 9.365589141845703 11.16899490356445 L 9.377670288085938 11.26029586791992 L 9.381309509277344 11.35231399536133 C 9.3843994140625 11.43046951293945 9.392105102539063 11.48565673828125 9.399326324462891 11.52201843261719 C 9.489038467407227 11.55446243286133 9.70045280456543 11.6087532043457 10.11050987243652 11.6087532043457 C 11.24324989318848 11.6087532043457 12.75630950927734 11.20871353149414 13.97207069396973 10.88727569580078 C 15.00856971740723 10.61322402954102 15.75745964050293 10.41522598266602 16.38839912414551 10.41522598266602 C 16.49019050598145 10.41522598266602 16.59041976928711 10.42031478881836 16.686279296875 10.43036270141602 L 17.56329917907715 10.52223587036133 L 18.08699989318848 11.23169326782227 C 18.38161087036133 11.63081359863281 18.81487083435059 12.10658264160156 19.20582962036133 12.10658264160156 C 19.5203800201416 12.10658264160156 19.96369934082031 11.89623260498047 20.35482978820801 11.71064376831055 C 20.89447021484375 11.45457458496094 21.45248985290527 11.18979263305664 22.1406307220459 11.18979263305664 C 23.07248687744141 11.18979263305664 24.26006889343262 11.75111770629883 24.56026840209961 13.32941055297852 C 24.56874847412109 13.36434173583984 24.5810661315918 13.41086196899414 24.59565925598145 13.46720504760742 C 25.07881927490234 15.3328742980957 25.42425918579102 17.43194580078125 24.32290077209473 18.85487365722656 C 23.75592041015625 19.58738327026367 22.90932083129883 19.99079513549805 21.93902969360352 19.99079513549805 C 21.13645935058594 19.99079513549805 20.24847984313965 19.71337509155273 19.22438049316406 19.14269256591797 C 18.79539680480957 18.90364837646484 18.48912239074707 18.76638031005859 18.28085899353027 18.6876106262207 C 17.92841148376465 19.2551155090332 17.16146469116211 20.27395248413086 15.65374946594238 20.27395248413086 C 15.39109992980957 20.27395248413086 15.11684989929199 20.24078369140625 14.83860969543457 20.17535400390625 L 14.68655967712402 20.13960266113281 L 14.54190063476563 20.08068466186523 C 12.21814918518066 19.13411331176758 10.1646900177002 18.65422439575195 8.438571929931641 18.65432357788086 C 5.732612609863281 18.65447616577148 4.085838317871094 19.82861328125 2.747322082519531 21.16423416137695 C 2.006416320800781 23.17968368530273 1.898830413818359 27.14018821716309 2.060581207275391 28.4582347869873 C 2.244281768798828 29.92619514465332 2.915531158447266 30.86274528503418 4.237060546875 31.49490356445313 C 5.55126953125 32.12356567382813 7.222061157226563 32.29925537109375 8.442008972167969 32.42754364013672 C 9.021699905395508 32.48850250244141 9.522340774536133 32.54115295410156 9.946069717407227 32.63405609130859 C 11.71655082702637 33.02226257324219 11.98921012878418 34.24704360961914 12.02425956726074 34.7556037902832 C 12.05583953857422 35.21390533447266 11.98041915893555 35.82306671142578 11.79144096374512 37.27911376953125 C 11.71834564208984 37.8422966003418 11.63634300231934 38.47414016723633 11.5593376159668 39.13321304321289 C 11.6341724395752 39.26425552368164 11.77825355529785 39.46806335449219 11.8806209564209 39.61286544799805 C 12.34120941162109 40.26436614990234 12.97200012207031 41.15662384033203 12.9288501739502 42.35374450683594 C 12.87821006774902 43.75680541992188 12.06965065002441 44.62069320678711 11.58654022216797 45.13685607910156 C 11.54017639160156 45.18639373779297 11.48613929748535 45.2441291809082 11.43720245361328 45.2982292175293 C 11.44659996032715 45.31700897216797 11.45717811584473 45.33737564086914 11.46907043457031 45.35934448242188 C 11.92470932006836 46.20115661621094 12.19338035583496 47.27433395385742 12.47781944274902 48.4105224609375 C 12.77367973327637 49.59234619140625 13.1090202331543 50.93184280395508 13.63574028015137 51.82849502563477 C 14.1109504699707 52.63745498657227 14.54943084716797 52.79996490478516 15.10287094116211 52.79996490478516 C 17.20480155944824 52.79996490478516 19.41097450256348 52.49199295043945 20.35432052612305 52.08827972412109 C 20.37308692932129 52.00617980957031 20.39212608337402 51.91714859008789 20.40848922729492 51.84063339233398 C 20.50913047790527 51.37002563476563 20.63438034057617 50.78434371948242 20.92001914978027 50.15029525756836 L 21.09295082092285 49.76645278930664 L 21.40593910217285 49.48489379882813 C 22.9404296875 48.1045036315918 23.96174049377441 44.0869140625 24.39785003662109 42.37133407592773 C 24.67491912841797 41.28140258789063 24.77858924865723 40.87358474731445 25.07872009277344 40.46001434326172 C 25.57960891723633 39.76983642578125 26.25461006164551 39.54957580566406 27.8853702545166 39.01743316650391 C 28.91003036499023 38.68308258056641 30.18524932861328 38.26696395874023 31.27315902709961 37.76299285888672 C 32.40660095214844 37.23793792724609 32.81637191772461 36.85205841064453 32.94622802734375 36.69986724853516 C 32.86869812011719 36.56340789794922 32.59670257568359 36.24626922607422 31.9259204864502 35.95220184326172 C 31.28620910644531 35.67171478271484 30.40398025512695 35.46304321289063 29.55078125 35.26124572753906 C 28.75712966918945 35.07353210449219 27.93645095825195 34.87942504882813 27.2210807800293 34.60642242431641 C 26.41236877441406 34.29780578613281 25.5986499786377 33.91536712646484 24.98855018615723 33.55717468261719 C 24.47348022460938 33.25476455688477 22.90603065490723 32.33451461791992 23.14654922485352 30.70882415771484 C 23.20915031433105 30.28568458557129 23.5710391998291 28.8939037322998 25.59922981262207 28.75004386901855 C 25.68428993225098 28.74401473999023 25.77220916748047 28.74095344543457 25.86056137084961 28.74095344543457 C 26.81212997436523 28.74095344543457 27.86233901977539 29.0949649810791 29.0783805847168 29.50486373901367 C 30.40151023864746 29.95087432861328 31.90118026733398 30.45638465881348 33.17145156860352 30.45638465881348 C 33.51863861083984 30.45638465881348 33.83134841918945 30.41701507568359 34.10089111328125 30.33937454223633 C 35.45447158813477 29.94948387145996 35.68029022216797 29.25133514404297 36.06203842163086 27.70935440063477 C 36.16352844238281 27.2994441986084 36.26847076416016 26.87557411193848 36.41632843017578 26.45858383178711 C 36.95648956298828 24.93523406982422 36.74319076538086 22.54195404052734 35.81573104858398 19.71962356567383 C 34.87337112426758 16.85194396972656 33.24190139770508 13.69781494140625 31.22185897827148 10.83825302124023 C 29.36087036132813 8.203845977783203 27.29531860351563 5.982414245605469 25.24850082397461 4.414134979248047 C 23.51636505126953 3.086963653564453 21.86818504333496 2.285568237304688 20.42843437194824 2.063484191894531 M 19.6311206817627 -3.814697265625e-06 C 28.90647888183594 -3.814697265625e-06 41.09249877929688 19.25543594360352 38.30133056640625 27.12698364257813 C 37.71797943115234 28.77213478088379 37.79462051391602 31.35672378540039 34.65447998046875 32.26123428344727 C 34.17820739746094 32.39842224121094 33.67984008789063 32.45639038085938 33.17145156860352 32.45639038085938 C 30.4052906036377 32.45639038085938 27.33748245239258 30.74095726013184 25.86056327819824 30.74095726013184 C 25.81927299499512 30.74095726013184 25.77953147888184 30.74228477478027 25.74077033996582 30.74503517150879 C 24.06069946289063 30.86419486999512 26.15061950683594 32.05721282958984 27.93418121337891 32.73787689208984 C 29.25790977478027 33.24303436279297 31.27204132080078 33.48168182373047 32.72904968261719 34.12054443359375 C 34.21847152709961 34.77348327636719 35.10052871704102 35.84676361083984 34.95380020141602 36.99242401123047 C 34.61032104492188 39.67445373535156 27.10873985290527 41.06790542602539 26.69738006591797 41.63472366333008 C 26.38599014282227 42.06381225585938 25.35818099975586 48.61971282958984 22.74352073669434 50.97179412841797 C 22.25687026977539 52.05202484130859 22.39125061035156 53.16654586791992 21.75576972961426 53.59701538085938 C 20.13339996337891 54.6960334777832 16.08070945739746 54.79996490478516 15.10287094116211 54.79996490478516 C 10.81768035888672 54.79996490478516 10.91072082519531 48.52936553955078 9.710189819335938 46.31137466430664 C 8.509651184082031 44.0933952331543 10.8712100982666 43.9146842956543 10.93014907836914 42.2816047668457 C 10.96925926208496 41.19670486450195 9.420040130615234 40.23490524291992 9.550590515136719 39.09364318847656 C 9.779010772705078 37.09674453735352 10.05953025817871 35.33623504638672 10.02898979187012 34.89311218261719 C 9.957809448242188 33.86023712158203 0.9312782287597656 35.54077529907227 0.07606124877929688 28.70657348632813 C -0.0945587158203125 27.31630516052246 -0.05836868286132813 22.49879455566406 1.045101165771484 20.04359436035156 C 2.753078460693359 18.26820755004883 4.921340942382813 16.65452194213867 8.438457489013672 16.65431976318359 C 10.30177688598633 16.65421295166016 12.54320526123047 17.10696792602539 15.29639053344727 18.22845458984375 C 15.4290771484375 18.25965118408203 15.54751014709473 18.27395629882813 15.65374565124512 18.27395629882813 C 16.81015014648438 18.27395629882813 16.54081726074219 16.58241271972656 17.92313003540039 16.58228302001953 C 18.42018890380859 16.58224105834961 19.13065147399902 16.80091857910156 20.19791030883789 17.39563369750977 C 20.95201301574707 17.81584930419922 21.51844215393066 17.99079132080078 21.93903350830078 17.99079132080078 C 23.92114639282227 17.99079132080078 22.66823577880859 14.10826110839844 22.59869956970215 13.72049331665039 C 22.52870750427246 13.33016204833984 22.37088584899902 13.18979644775391 22.14062881469727 13.18979644775391 C 21.5519847869873 13.18979644775391 20.48895645141602 14.10658264160156 19.20582580566406 14.10658264160156 C 18.3669548034668 14.10658264160156 17.43428230285645 13.7150993347168 16.4778995513916 12.41947555541992 C 16.45060348510742 12.41661071777344 16.42066192626953 12.41521835327148 16.38839912414551 12.41521835327148 C 15.44079208374023 12.41521835327148 12.39928817749023 13.60874938964844 10.11050605773926 13.60874938964844 C 8.620040893554688 13.60874938964844 7.448940277099609 13.10271835327148 7.382869720458984 11.43131256103516 C 7.076091766357422 9.112525939941406 6.574489593505859 4.942295074462891 7.950950622558594 3.628166198730469 C 9.574409484863281 2.078193664550781 15.19895935058594 2.956462860107422 17.34450912475586 2.426185607910156 C 19.39653968811035 1.918914794921875 17.96949005126953 -3.814697265625e-06 19.6311206817627 -3.814697265625e-06 Z" stroke="none" fill="#0a0a0a"/>
    </g>
    <g id="Path_87" data-name="Path 87" transform="matrix(0.719, 0.695, -0.695, 0.719, 21.657, 7.542)" fill="#43ff00">
      <path d="M 7.487029552459717 26.65236663818359 C 7.399011611938477 26.53059768676758 7.281787872314453 26.34117126464844 7.141721248626709 26.0515079498291 C 6.284991264343262 24.27982902526855 5.377151012420654 22.84699821472168 4.576181411743164 21.58283805847168 C 2.815531253814697 18.80404853820801 1.424861192703247 16.60918807983398 1.424861192703247 12.27245807647705 C 1.424861192703247 10.86355876922607 1.309141159057617 9.438268661499023 1.19723117351532 8.059908866882324 C 0.9572511911392212 5.104178428649902 0.7305811643600464 2.312368392944336 1.825581192970276 1.280028462409973 C 1.875381231307983 1.233038425445557 2.175581216812134 0.9999984502792358 3.226001262664795 0.9999984502792358 C 3.954865217208862 0.9999984502792358 4.861268043518066 1.110608339309692 5.921119689941406 1.328851938247681 C 8.843878746032715 2.407514333724976 9.620190620422363 3.64716100692749 9.968931198120117 4.608668327331543 C 10.48344135284424 6.027178287506104 10.33556079864502 7.885268688201904 10.14833164215088 10.2376880645752 C 10.09326076507568 10.92955875396729 10.03632164001465 11.64497852325439 9.991070747375488 12.41016864776611 C 9.858370780944824 14.65424823760986 9.528450965881348 18.15194892883301 9.000471115112305 21.2386589050293 C 8.37327766418457 24.90542602539063 7.7729811668396 26.21002769470215 7.487029552459717 26.65236663818359 Z" stroke="none"/>
      <path d="M 3.226000785827637 1.999998092651367 C 2.783384323120117 1.999998092651367 2.547691345214844 2.048892974853516 2.448991775512695 2.076911926269531 C 2.299489974975586 2.267620086669922 2.09392261505127 2.716741561889648 2.024500846862793 3.764688491821289 C 1.946901321411133 4.936168670654297 2.066901206970215 6.414188385009766 2.193951606750488 7.978979110717773 C 2.30747127532959 9.377208709716797 2.424860954284668 10.82302856445313 2.424860954284668 12.27245903015137 C 2.424860954284668 16.31904983520508 3.68156099319458 18.30246734619141 5.420901298522949 21.04762840270996 C 6.021500587463379 21.99554252624512 6.681113719940186 23.03659820556641 7.339313983917236 24.24799346923828 C 7.564710140228271 23.42034149169922 7.82429838180542 22.2520580291748 8.090751647949219 20.61466979980469 C 8.569531440734863 17.67255783081055 8.870651245117188 14.41689872741699 8.992820739746094 12.35113906860352 C 9.038671493530273 11.57577896118164 9.09602165222168 10.85520935058594 9.151481628417969 10.15834808349609 C 9.32909107208252 7.926788330078125 9.46937084197998 6.164157867431641 9.028861045837402 4.949647903442383 C 8.756394386291504 4.198446273803711 8.123818397521973 3.221414566040039 5.64539623260498 2.293207168579102 C 4.695477962493896 2.101211547851563 3.861413478851318 1.999998092651367 3.226000785827637 1.999998092651367 M 3.22599983215332 0 C 4.123034477233887 0 5.1701340675354 0.150115966796875 6.196251392364502 0.3646392822265625 C 12.55154132843018 2.67869758605957 11.35502147674561 6.285228729248047 10.98933124542236 12.46919822692871 C 10.6843433380127 17.62652587890625 9.464631080627441 27.8178653717041 7.501012325286865 27.8178653717041 C 7.110127925872803 27.8178653717041 6.689963817596436 27.41436386108398 6.241451263427734 26.48684883117676 C 3.539821624755859 20.89993858337402 0.424860954284668 18.95761871337891 0.424860954284668 12.27245903015137 C 0.424860954284668 7.60624885559082 -0.9044389724731445 2.479488372802734 1.13960075378418 0.5524082183837891 C 1.561465263366699 0.1543712615966797 2.316617012023926 0 3.22599983215332 0 Z" stroke="none" fill="#0a0a0a"/>
    </g>
    <g id="Path_88" data-name="Path 88" transform="translate(13.13 32.268) rotate(34)" fill="#43ff00">
      <path d="M 27.66003036499023 22.48025894165039 C 27.5302619934082 22.48025894165039 27.38114166259766 22.47999954223633 27.2084903717041 22.47968864440918 C 26.96981048583984 22.47927856445313 26.68645095825195 22.47877883911133 26.34754180908203 22.47877883911133 C 25.36029052734375 22.47877883911133 24.64313125610352 21.37700843811035 23.55477142333984 19.57934951782227 C 22.7734317779541 18.28878784179688 21.88783073425293 16.8260383605957 20.59365081787109 15.54670906066895 C 19.58316040039063 14.54780864715576 19.0476016998291 13.63627910614014 18.57508087158203 12.8320484161377 C 17.89413070678711 11.6730785369873 17.19000053405762 10.47463893890381 15.38007068634033 10.47463893890381 C 15.00470066070557 10.47463893890381 14.59289073944092 10.52538871765137 14.12109088897705 10.62976837158203 C 11.97119140625 11.10543823242188 9.984411239624023 12.92802906036377 8.388001441955566 14.39249897003174 C 7.850078105926514 14.88597106933594 7.13653564453125 15.54053783416748 6.781079769134521 15.7555046081543 C 5.716073036193848 15.30094528198242 4.86487865447998 14.33662986755371 4.040020942687988 13.40216827392578 C 3.776681184768677 13.10382843017578 3.50438117980957 12.79533863067627 3.23051118850708 12.51051902770996 C 3.022731065750122 12.29447841644287 2.820780992507935 12.09160900115967 2.625471115112305 11.89541912078857 C 1.587351083755493 10.8526086807251 1.000001072883606 10.22639846801758 1.000001072883606 9.482868194580078 C 1.000001072883606 9.445818901062012 1.000001072883606 9.43333911895752 1.066861152648926 9.370648384094238 C 1.21281111240387 9.233808517456055 1.490571141242981 9.079148292541504 1.784641146659851 8.915398597717285 C 2.251111030578613 8.655658721923828 2.831651210784912 8.332398414611816 3.349851131439209 7.831028461456299 C 6.101241111755371 5.168338775634766 11.77366065979004 2.338498592376709 16.86701202392578 2.338498592376709 C 17.7767505645752 2.338498592376709 18.63728141784668 2.431558609008789 19.42468070983887 2.615088701248169 C 19.89684104919434 2.725148677825928 20.33783149719238 2.778648614883423 20.77286148071289 2.778648614883423 C 22.03400039672852 2.778648614883423 22.94045066833496 2.325958728790283 23.81705093383789 1.888168692588806 C 24.73164176940918 1.431418657302856 25.59550094604492 0.9999986290931702 27.00124168395996 0.9999986290931702 C 27.62309074401855 0.9999986290931702 28.29296112060547 1.082858681678772 29.04911041259766 1.25329864025116 L 29.1280517578125 1.271088600158691 L 29.20882034301758 1.275958657264709 C 31.04134178161621 1.386428594589233 32.27180099487305 2.004498720169067 33.08115005493164 3.221048593521118 C 33.83644485473633 4.356348991394043 34.14141845703125 5.883191585540771 34.3543586730957 7.371007442474365 C 34.36418151855469 7.678881168365479 34.42835235595703 8.000144958496094 34.4959716796875 8.338688850402832 C 34.71234512329102 9.42198371887207 34.98113632202148 10.76803493499756 33.77354049682617 12.52392673492432 C 32.23276901245117 14.289719581604 31.8796272277832 16.58538246154785 31.56777191162109 18.61286926269531 C 31.3783016204834 19.84471321105957 31.19877815246582 21.0119457244873 30.78058242797852 21.83072662353516 C 30.54348754882813 22.03400993347168 30.42197418212891 22.12714195251465 30.3602237701416 22.167724609375 C 30.33942794799805 22.16836166381836 30.31526947021484 22.16888046264648 30.29379081726074 22.16933822631836 C 30.08981132507324 22.17370796203613 29.78155136108398 22.1803092956543 29.2772216796875 22.27786827087402 C 28.95613098144531 22.33997917175293 28.76322174072266 22.38600921630859 28.62237167358398 22.41961860656738 C 28.37781143188477 22.47797775268555 28.36826133728027 22.48025894165039 27.66003036499023 22.48025894165039 Z" stroke="none"/>
      <path d="M 27.00127029418945 1.999998092651367 L 27.00129127502441 1.999998092651367 C 25.83135986328125 2.000028610229492 25.1396312713623 2.345478057861328 24.26386070251465 2.782829284667969 C 23.37546157836914 3.226499557495117 22.26982116699219 3.778648376464844 20.77286148071289 3.778648376464844 C 20.26047134399414 3.778648376464844 19.74523162841797 3.716608047485352 19.19768142700195 3.5889892578125 C 18.48458099365234 3.422779083251953 17.70043182373047 3.338499069213867 16.86701202392578 3.338499069213867 C 14.71015167236328 3.338499069213867 12.17014122009277 3.916818618774414 9.714870452880859 4.966928482055664 C 7.474231719970703 5.925239562988281 5.407781600952148 7.231048583984375 4.045192718505859 8.549708366394043 C 3.432731628417969 9.142278671264648 2.7613525390625 9.516119003295898 2.271129608154297 9.789088249206543 C 2.231037139892578 9.81141185760498 2.187824249267578 9.83547306060791 2.14385986328125 9.860171318054199 C 2.372585296630859 10.22396564483643 2.843666076660156 10.69718933105469 3.334171295166016 11.18990898132324 C 3.532470703125 11.38909912109375 3.737522125244141 11.59507846832275 3.951339721679688 11.81740856170654 C 4.239982604980469 12.11758899688721 4.519460678100586 12.43420886993408 4.789731979370117 12.74039840698242 C 5.422157287597656 13.456862449646 6.027910232543945 14.14310550689697 6.68707275390625 14.57304191589355 C 6.999078750610352 14.30960178375244 7.392305374145508 13.94887828826904 7.712011337280273 13.65559864044189 C 9.307682037353516 12.19178867340088 11.4930305480957 10.18704891204834 13.90507125854492 9.653378486633301 C 14.44869041442871 9.533108711242676 14.93117141723633 9.474638938903809 15.38007164001465 9.474638938903809 C 17.76229095458984 9.474638938903809 18.73039054870605 11.12235832214355 19.43727111816406 12.32546901702881 C 19.87875175476074 13.07686901092529 20.37913131713867 13.92852878570557 21.29666137695313 14.83552932739258 C 22.67904090881348 16.20204925537109 23.59876251220703 17.72116851806641 24.41021156311035 19.06144905090332 C 25.06225204467773 20.1384391784668 25.87374114990234 21.47877883911133 26.34753036499023 21.47877883911133 C 26.68716049194336 21.47877883911133 26.97111129760742 21.47927856445313 27.21028137207031 21.47969818115234 C 27.38224029541016 21.47999954223633 27.53077125549316 21.48025894165039 27.66002082824707 21.48025894165039 C 27.81787490844727 21.48025894165039 28.18122673034668 21.48025703430176 28.28310012817383 21.47196578979492 C 28.30551910400391 21.46715354919434 28.35195922851563 21.45606994628906 28.39025115966797 21.44692802429199 C 28.53153228759766 21.41322898864746 28.74501037597656 21.36227798461914 29.0872917175293 21.29606819152832 C 29.46996879577637 21.22204399108887 29.76194381713867 21.19281578063965 29.98078155517578 21.18011093139648 C 30.26530838012695 20.5028247833252 30.41849327087402 19.50692558288574 30.57939147949219 18.46083831787109 C 30.89308547973633 16.42141342163086 31.28224182128906 13.89161777496338 32.97948455810547 11.91336059570313 C 33.91353988647461 10.52789974212646 33.71115112304688 9.514901161193848 33.51534271240234 8.534558296203613 C 33.44623565673828 8.188568115234375 33.37508773803711 7.83236026763916 33.3572883605957 7.463115692138672 C 32.8686408996582 4.090478897094727 32.09681701660156 2.451881408691406 29.14864158630371 2.274148941040039 L 28.98711013793945 2.264408111572266 L 28.8292407989502 2.228818893432617 C 28.15557098388672 2.07697868347168 27.54055023193359 1.999988555908203 27.00127029418945 1.999998092651367 M 27.00124168395996 1.9073486328125e-06 C 27.65127944946289 -1.33514404296875e-05 28.39619064331055 0.08103561401367188 29.26900100708008 0.2777690887451172 C 34.00518035888672 0.5632991790771484 34.89073181152344 4.026128768920898 35.35306167602539 7.291098594665527 C 35.35306167602539 8.32891845703125 36.48126220703125 10.39692878723145 34.56225204467773 13.14140892028809 C 32.1982307434082 15.79931831359863 32.93090057373047 20.10400772094727 31.57228088378906 22.46806907653809 C 30.4033203125 23.4876594543457 30.77333068847656 23.00698852539063 29.4671516418457 23.25966835021973 C 28.43513107299805 23.45930290222168 28.82424736022949 23.48025703430176 27.6600227355957 23.48025703430176 C 27.35073089599609 23.48025703430176 26.93186187744141 23.47877883911133 26.34753036499023 23.47877883911133 C 23.67198181152344 23.47877883911133 22.89323043823242 19.22602844238281 19.8906307220459 16.25787925720215 C 17.25529289245605 13.65276718139648 17.50921058654785 11.47463989257813 15.38006782531738 11.47463989257813 C 15.08335113525391 11.47463989257813 14.74068832397461 11.51686763763428 14.33712196350098 11.60615825653076 C 11.15530776977539 12.31013774871826 7.914937973022461 16.80098915100098 6.780410766601563 16.80098915100098 C 6.73847770690918 16.80098915100098 6.699432373046875 16.79485702514648 6.663360595703125 16.78216934204102 C 4.856740951538086 16.14676856994629 3.695960998535156 14.43734836578369 2.509681701660156 13.20362854003906 C 1.195590972900391 11.8372688293457 0 10.89178848266602 0 9.482868194580078 C 0 8.316688537597656 1.550640106201172 8.180368423461914 2.654510498046875 7.112348556518555 C 5.678306579589844 4.186037063598633 11.62354850769043 1.338502883911133 16.86701202392578 1.338502883911133 C 17.82635688781738 1.338502883911133 18.76144599914551 1.433698654174805 19.65168190002441 1.641199111938477 C 20.06291389465332 1.737051010131836 20.43276786804199 1.778644561767578 20.77286148071289 1.778644561767578 C 22.99765396118164 1.778644561767578 23.95647811889648 8.20159912109375e-05 27.00124168395996 1.9073486328125e-06 Z" stroke="none" fill="#0a0a0a"/>
    </g>
  </g>
</svg>
