<svg id="Group_20" data-name="Group 20" xmlns="http://www.w3.org/2000/svg" width="77.398" height="58.141" viewBox="0 0 77.398 58.141">
  <g id="Ellipse_8" data-name="Ellipse 8" fill="#f9db62" stroke="#0a0a0a" stroke-width="2">
    <ellipse cx="22.5" cy="22" rx="22.5" ry="22" stroke="none"/>
    <ellipse cx="22.5" cy="22" rx="21.5" ry="21" fill="none"/>
  </g>
  <g id="Path_85" data-name="Path 85" transform="translate(5.311 11.465)" fill="#4dd8d3">
    <path d="M 54.05857467651367 45.6763801574707 C 51.3795051574707 45.67642974853516 48.50010681152344 45.53730773925781 45.45163345336914 45.39001846313477 C 42.07763671875 45.22700881958008 38.58876419067383 45.05844116210938 34.99534606933594 45.05844116210938 C 25.41315460205078 45.05844116210938 16.36237525939941 45.05844116210938 9.91380500793457 43.67145919799805 C 6.602985382080078 42.95935821533203 4.210965156555176 41.94166946411133 2.601055383682251 40.56023788452148 C 0.9132353067398071 39.11195755004883 0.09277530014514923 37.24247741699219 0.09277530014514923 34.844970703125 C 0.09277530014514923 32.87609100341797 0.4375353157520294 31.23505973815918 1.117475271224976 29.96747016906738 C 1.66484534740448 28.94702911376953 2.44920539855957 28.14078903198242 3.448755264282227 27.5711498260498 C 5.326885223388672 26.50079917907715 7.534035205841064 26.4541187286377 8.852755546569824 26.42623901367188 C 9.773565292358398 26.40676879882813 10.32936573028564 26.39500999450684 10.68056488037109 25.8679084777832 C 10.93663501739502 25.48355865478516 10.90977573394775 25.08658981323242 10.84487533569336 24.12752914428711 C 10.67792510986328 21.66040992736816 10.28694534301758 15.88287925720215 14.97804546356201 12.69699954986572 C 16.62896537780762 11.57579898834229 18.3574047088623 11.00730895996094 20.11533546447754 11.00730895996094 C 22.37218475341797 11.00730895996094 24.21506500244141 11.9409294128418 25.20513534545898 12.44250965118408 C 25.76973533630371 12.72852897644043 26.08073616027832 12.88608932495117 26.44465446472168 12.88628959655762 C 26.4448299407959 12.88628959655762 26.44504737854004 12.88628959655762 26.44522285461426 12.88628959655762 C 26.7043342590332 12.88628959655762 26.95303535461426 12.79722023010254 27.1456356048584 12.63542938232422 C 27.48590469360352 12.34957885742188 27.55535507202148 11.97650909423828 27.66047477722168 11.41178894042969 C 27.96982574462891 9.749929428100586 28.79156494140625 5.335469245910645 35.37124633789063 2.666429281234741 C 38.42445373535156 1.427899241447449 41.06943511962891 0.8258392810821533 43.45734405517578 0.8258392810821533 C 47.47099685668945 0.8258392810821533 51.1724853515625 2.465979337692261 55.83422470092773 6.310079097747803 C 58.38634490966797 8.414568901062012 59.92415618896484 10.86077880859375 60.40494537353516 13.58073902130127 C 60.78962707519531 15.75695896148682 60.38581466674805 17.54127883911133 60.21337509155273 18.30321884155273 C 60.13230514526367 18.66144943237305 60.087646484375 18.85877990722656 60.12483596801758 19.09790992736816 C 60.20369720458984 19.60505867004395 60.47294616699219 19.78955841064453 61.60616683959961 20.56608009338379 C 64.19917297363281 22.34291839599609 71.08709716796875 27.06279945373535 71.08709716796875 32.12973785400391 C 71.08709716796875 34.97969055175781 70.66944885253906 37.3661994934082 69.84575653076172 39.22296905517578 C 69.09123229980469 40.92379760742188 67.99579620361328 42.2286376953125 66.49683380126953 43.21207046508789 C 65.10284423828125 44.12661743164063 63.3592643737793 44.76422882080078 61.16646575927734 45.16132736206055 C 59.22643661499023 45.51266098022461 56.96785354614258 45.67631912231445 54.05857467651367 45.6763801574707 Z" stroke="none"/>
    <path d="M 43.45733642578125 1.825832366943359 C 41.20071411132813 1.825832366943359 38.67868041992188 2.403911590576172 35.74714660644531 3.593090057373047 C 33.10839080810547 4.663501739501953 31.16926956176758 6.141643524169922 29.98363494873047 7.986465454101563 C 29.0427360534668 9.450489044189453 28.79286956787109 10.79278945922852 28.64358139038086 11.59478759765625 C 28.5255126953125 12.22901153564453 28.40343475341797 12.88481140136719 27.78915786743164 13.40084457397461 C 27.41666793823242 13.7138786315918 26.93936920166016 13.88628005981445 26.44516754150391 13.88628005981445 C 25.84209060668945 13.88628005981445 25.38518142700195 13.65481185913086 24.75279235839844 13.33444595336914 C 23.77295684814453 12.83807754516602 22.13300323486328 12.00728988647461 20.11533355712891 12.0073127746582 C 18.5613899230957 12.00732421875 17.02198028564453 12.5176887512207 15.53986740112305 13.52425765991211 C 13.73470306396484 14.75020217895508 12.60345840454102 16.48323440551758 12.08148956298828 18.82237815856934 C 11.62622451782227 20.86262321472168 11.76166915893555 22.86413383483887 11.84259033203125 24.05999946594238 C 11.91413497924805 25.11709976196289 11.95731353759766 25.75515556335449 11.51274490356445 26.42239952087402 C 10.8722038269043 27.38374519348145 9.901546478271484 27.40427780151367 8.8739013671875 27.42601203918457 C 7.6500244140625 27.45188903808594 5.601638793945313 27.49521064758301 3.943893432617188 28.43995666503906 C 2.025382995605469 29.53332328796387 1.092765808105469 31.6284122467041 1.092765808105469 34.84496688842773 C 1.092765808105469 36.96221160888672 1.778961181640625 38.53713226318359 3.252243041992188 39.80133438110352 C 4.732490539550781 41.07150268554688 6.980293273925781 42.01764678955078 10.12406921386719 42.69380950927734 C 16.46868896484375 44.05843353271484 25.46782302856445 44.05843353271484 34.99534606933594 44.05843353271484 C 38.61325836181641 44.05843353271484 42.11471557617188 44.22760009765625 45.50089263916016 44.39118957519531 C 48.53660202026367 44.53784561157227 51.40396881103516 44.67637634277344 54.05861282348633 44.67637634277344 C 59.85652542114258 44.67637634277344 63.52343368530273 43.96692276000977 65.94828033447266 42.37603378295898 C 67.28160095214844 41.50126647949219 68.25746917724609 40.33726501464844 68.93165588378906 38.81750106811523 C 69.69834899902344 37.08921051025391 70.08708953857422 34.8391227722168 70.08708953857422 32.12974548339844 C 70.08708953857422 30.27984428405762 68.96026611328125 28.2006778717041 66.73793792724609 25.94998931884766 C 64.737548828125 23.9240894317627 62.33279037475586 22.2762451171875 61.04085540771484 21.39096641540527 C 59.83317947387695 20.56342315673828 59.28197860717773 20.18572235107422 59.13669204711914 19.25152206420898 C 59.07021331787109 18.82400131225586 59.14426803588867 18.49677848815918 59.238037109375 18.08250045776367 C 59.41064453125 17.31978988647461 59.76982498168945 15.73271179199219 59.42021179199219 13.75483322143555 C 58.98200225830078 11.27569961547852 57.56144714355469 9.030498504638672 55.19802474975586 7.081600189208984 C 50.73049163818359 3.397655487060547 47.21925735473633 1.825832366943359 43.45733642578125 1.825832366943359 M 43.45733642578125 -0.174163818359375 C 47.88937759399414 -0.174163818359375 51.83561706542969 1.716667175292969 56.47042465209961 5.538555145263672 C 63.80233383178711 11.58449935913086 61.04719161987305 18.5213451385498 61.11294555664063 18.94423294067383 C 61.1787109375 19.36711120605469 72.08708953857422 25.2270450592041 72.08708953857422 32.12974548339844 C 72.08708953857422 44.51694869995117 64.65205383300781 46.67637634277344 54.05861663818359 46.67637634277344 C 48.39019012451172 46.67637634277344 41.81855010986328 46.05843353271484 34.99534606933594 46.05843353271484 C 15.42058944702148 46.05843353271484 -0.9072341918945313 46.03803253173828 -0.9072341918945313 34.84496688842773 C -0.9072341918945313 23.65190124511719 9.498767852783203 25.83811187744141 9.848369598388672 25.31342315673828 C 10.19794464111328 24.78873443603516 8.011924743652344 16.21911239624023 14.41622543334961 11.86973190307617 C 16.47229385375977 10.47339248657227 18.41386795043945 10.00732040405273 20.11532211303711 10.00730895996094 C 23.531494140625 10.00728225708008 25.9799919128418 11.88628005981445 26.44517135620117 11.88628005981445 C 26.46996688842773 11.88628005981445 26.48904037475586 11.88096618652344 26.50241470336914 11.86973190307617 C 26.89155578613281 11.5428352355957 26.46286773681641 5.200954437255859 34.99534606933594 1.739765167236328 C 38.13409423828125 0.4665374755859375 40.87822341918945 -0.174163818359375 43.45733642578125 -0.174163818359375 Z" stroke="none" fill="#0a0a0a"/>
  </g>
</svg>
