<svg xmlns="http://www.w3.org/2000/svg" width="79.421" height="71" viewBox="0 0 79.421 71">
  <g id="Group_21" data-name="Group 21" transform="translate(0 0)">
    <g id="Path_89" data-name="Path 89" transform="translate(6.7 1.379)" fill="#22b3e9">
      <path d="M 34.8106803894043 68.62136077880859 C 30.24583053588867 68.62136077880859 25.81805038452148 67.72754669189453 21.65034103393555 65.96475982666016 C 17.62430953979492 64.26188659667969 14.00835037231445 61.82387924194336 10.90292072296143 58.71844100952148 C 7.797480583190918 55.61301040649414 5.359470367431641 51.99705123901367 3.656600475311279 47.97101974487305 C 1.893810391426086 43.80331039428711 1.000000357627869 39.37553024291992 1.000000357627869 34.8106803894043 C 1.000000357627869 30.24583053588867 1.893810391426086 25.81805038452148 3.656600475311279 21.65034103393555 C 5.359470367431641 17.62430953979492 7.797480583190918 14.00835037231445 10.90292072296143 10.90292072296143 C 14.00835037231445 7.797480583190918 17.62430953979492 5.359470367431641 21.65034103393555 3.656600475311279 C 25.81805038452148 1.893810391426086 30.24583053588867 1.000000357627869 34.8106803894043 1.000000357627869 C 39.37553024291992 1.000000357627869 43.80331039428711 1.893810391426086 47.97101974487305 3.656600475311279 C 51.99705123901367 5.359470367431641 55.61301040649414 7.797480583190918 58.71844100952148 10.90292072296143 C 61.82387924194336 14.00835037231445 64.26188659667969 17.62430953979492 65.96475982666016 21.65034103393555 C 67.72754669189453 25.81805038452148 68.62136077880859 30.24583053588867 68.62136077880859 34.8106803894043 C 68.62136077880859 39.37553024291992 67.72754669189453 43.80331039428711 65.96475982666016 47.97101974487305 C 64.26188659667969 51.99705123901367 61.82387924194336 55.61301040649414 58.71844100952148 58.71844100952148 C 55.61301040649414 61.82387924194336 51.99705123901367 64.26188659667969 47.97101974487305 65.96475982666016 C 43.80331039428711 67.72754669189453 39.37553024291992 68.62136077880859 34.8106803894043 68.62136077880859 Z" stroke="none"/>
      <path d="M 34.8106803894043 2 C 30.38037872314453 2 26.08366775512695 2.867233276367188 22.03989028930664 4.577606201171875 C 18.133056640625 6.230056762695313 14.62394714355469 8.596103668212891 11.61002349853516 11.61002349853516 C 8.596103668212891 14.62394714355469 6.230056762695313 18.133056640625 4.577606201171875 22.03989028930664 C 2.867233276367188 26.08366775512695 2 30.38037872314453 2 34.8106803894043 C 2 39.24098205566406 2.867233276367188 43.53768920898438 4.577606201171875 47.58146667480469 C 6.230056762695313 51.48830413818359 8.596103668212891 54.99741363525391 11.61002349853516 58.01133728027344 C 14.62394714355469 61.0252571105957 18.133056640625 63.39130401611328 22.03989028930664 65.04376220703125 C 26.08366775512695 66.75412750244141 30.38037872314453 67.62136077880859 34.8106803894043 67.62136077880859 C 39.24098205566406 67.62136077880859 43.53768920898438 66.75412750244141 47.58146667480469 65.04376220703125 C 51.48830413818359 63.39130401611328 54.99741363525391 61.0252571105957 58.01133728027344 58.01133728027344 C 61.0252571105957 54.99741363525391 63.39130401611328 51.48830413818359 65.04376220703125 47.58146667480469 C 66.75412750244141 43.53768920898438 67.62136077880859 39.24098205566406 67.62136077880859 34.8106803894043 C 67.62136077880859 30.38037872314453 66.75412750244141 26.08366775512695 65.04376220703125 22.03989028930664 C 63.39130401611328 18.133056640625 61.0252571105957 14.62394714355469 58.01133728027344 11.61002349853516 C 54.99741363525391 8.596103668212891 51.48830413818359 6.230056762695313 47.58146667480469 4.577606201171875 C 43.53768920898438 2.867233276367188 39.24098205566406 2 34.8106803894043 2 M 34.8106803894043 0 C 54.03609085083008 0 69.62136077880859 15.58526992797852 69.62136077880859 34.8106803894043 C 69.62136077880859 54.03609085083008 54.03609085083008 69.62136077880859 34.8106803894043 69.62136077880859 C 15.58526992797852 69.62136077880859 0 54.03609085083008 0 34.8106803894043 C 0 15.58526992797852 15.58526992797852 0 34.8106803894043 0 Z" stroke="none" fill="#0a0a0a"/>
    </g>
    <g id="Path_86" data-name="Path 86" transform="matrix(0.978, -0.208, 0.208, 0.978, 31.777, 7.785)" fill="#2eb15a">
      <path d="M 14.60907649993896 52.00826263427734 C 13.63942718505859 52.00826263427734 12.95320701599121 51.57620239257813 12.38406658172607 50.60733032226563 C 11.80643653869629 49.62404251098633 11.46471691131592 48.259033203125 11.16321659088135 47.05470275878906 C 10.90278720855713 46.01443099975586 10.65680694580078 45.0318603515625 10.2721471786499 44.32118988037109 C 10.15181636810303 44.09888076782227 10.02062702178955 43.79440307617188 10.07903671264648 43.60638046264648 C 10.1288366317749 43.44609069824219 10.32144641876221 43.24030303955078 10.52536678314209 43.02242279052734 C 10.9517765045166 42.56682968139648 11.5357666015625 41.9428825378418 11.57213687896729 40.93526077270508 C 11.60250663757324 40.09276962280273 11.11818695068359 39.40769958496094 10.72902679443359 38.85723114013672 C 10.50986671447754 38.5472297668457 10.209716796875 38.12266159057617 10.23185634613037 37.92912292480469 C 10.31307697296143 37.21908187866211 10.40128707885742 36.53940200805664 10.47911643981934 35.93974304199219 C 10.64458656311035 34.66479110717773 10.72304725646973 34.03629302978516 10.69872665405273 33.68352127075195 C 10.66925716400146 33.25585174560547 10.42360687255859 32.69990158081055 9.420717239379883 32.47999954223633 C 9.061596870422363 32.40125274658203 8.601266860961914 32.35285186767578 8.068256378173828 32.29680252075195 C 6.820576667785645 32.16559982299805 5.111806869506836 31.98591041564941 3.695226907730103 31.30828094482422 C 2.14147686958313 30.56503105163574 1.281396746635437 29.36638069152832 1.065836787223816 27.64383125305176 C 0.9039274454116821 26.32451438903809 0.9900072813034058 22.07707023620605 1.8570556640625 19.95232772827148 C 3.255962610244751 18.52529525756836 5.107103824615479 17.10980224609375 8.162556648254395 17.10980224609375 C 9.95401668548584 17.10980224609375 12.05899715423584 17.59724044799805 14.41903686523438 18.55858039855957 L 14.49136638641357 18.58805084228516 L 14.56740665435791 18.60593223571777 C 14.76654720306396 18.65275192260742 14.95985698699951 18.67649078369141 15.14194679260254 18.67649078369141 C 16.24828720092773 18.67649078369141 16.72905731201172 17.85909080505371 16.98733711242676 17.41996192932129 C 17.21074676513672 17.04012107849121 17.22757720947266 17.04012107849121 17.33712768554688 17.04012107849121 C 17.53457641601563 17.04012107849121 18.01977729797363 17.12590217590332 19.05076599121094 17.70041084289551 C 19.89866638183594 18.17290115356445 20.60879707336426 18.4025707244873 21.22172737121582 18.4025707244873 C 21.86463737487793 18.4025707244873 22.42108726501465 18.14111137390137 22.7885570526123 17.66635131835938 C 23.60662651062012 16.60943222045898 23.29725646972656 14.84642124176025 22.8867359161377 13.26123142242432 C 22.86983108520508 13.19594097137451 22.84894752502441 13.11530876159668 22.84258651733398 13.08688545227051 C 22.66348838806152 12.10768032073975 21.9892406463623 11.75855159759521 21.4167366027832 11.75855159759521 C 20.96159744262695 11.75855159759521 20.53818702697754 11.95942115783691 20.08992767333984 12.17210102081299 C 19.62242698669434 12.39389133453369 19.0925464630127 12.64528179168701 18.57772636413574 12.64536094665527 C 18.57657623291016 12.64536190032959 18.57540893554688 12.64536190032959 18.5742359161377 12.64536190032959 C 18.34092712402344 12.64536190032959 17.64412689208984 12.63936519622803 16.74369621276855 11.41953086853027 L 16.48190689086914 11.06489086151123 L 16.04351615905762 11.01888084411621 C 15.98296642303467 11.01253128051758 15.91871643066406 11.00930118560791 15.85256671905518 11.00930118560791 C 15.36372661590576 11.00930118560791 14.6885871887207 11.18781089782715 13.75414657592773 11.43487167358398 C 12.52581691741943 11.75963115692139 10.99710655212402 12.16381168365479 9.779936790466309 12.16381168365479 C 9.20695686340332 12.16381168365479 8.768166542053223 12.07025146484375 8.51099681854248 11.8932409286499 C 8.416616439819336 11.82828140258789 8.16590690612793 11.65572166442871 8.14069652557373 11.01807117462158 L 8.138876914978027 10.97206115722656 L 8.13283634185791 10.92642116546631 C 7.958666801452637 9.60991096496582 7.798486709594727 8.21394157409668 7.805646896362305 6.924681186676025 C 7.816436767578125 4.981071472167969 8.211977005004883 4.394721508026123 8.381536483764648 4.232841491699219 C 9.086007118225098 3.560251235961914 11.7334566116333 3.550801277160645 13.48532676696777 3.544551372528076 C 14.90849685668945 3.539471387863159 16.13760757446289 3.535091400146484 17.01735687255859 3.317651271820068 C 18.66928672790527 2.909281253814697 18.90539741516113 1.699161291122437 19.01886749267578 1.117611289024353 C 19.02595329284668 1.08129608631134 19.03399276733398 1.040089964866638 19.04225921630859 1.000264525413513 C 22.52467155456543 1.034780144691467 27.08666038513184 4.455341339111328 30.96440696716309 9.94465160369873 C 32.97051620483398 12.78449153900146 34.59286499023438 15.92338085174561 35.53262710571289 18.78311157226563 C 36.49402618408203 21.70873069763184 36.69785690307617 24.23830223083496 36.1065559387207 25.90586090087891 C 35.97885513305664 26.2659912109375 35.8829460144043 26.65337181091309 35.79019546508789 27.02800178527832 C 35.4348258972168 28.46339225769043 35.12792587280273 29.70303153991699 33.24464797973633 30.24551200866699 C 32.89981842041016 30.34484100341797 32.51028823852539 30.39520072937012 32.08686828613281 30.39521217346191 C 30.70483589172363 30.3952522277832 29.17702674865723 29.8802318572998 27.82905769348145 29.42584037780762 C 26.73074722290039 29.05561065673828 25.78220748901367 28.73587226867676 25.01504707336426 28.73587226867676 C 24.95154762268066 28.73587226867676 24.88876724243164 28.73804092407227 24.82842636108398 28.7423210144043 C 23.64005661010742 28.82661056518555 23.36969757080078 29.46722221374512 23.31431770324707 29.84158134460449 C 23.17392730712891 30.7905216217041 24.2046070098877 31.3956413269043 24.64473724365234 31.6540412902832 C 25.19218635559082 31.97545051574707 25.92828750610352 32.32089233398438 26.664306640625 32.60177993774414 C 27.29842758178711 32.84377288818359 28.02767753601074 33.01625061035156 28.79974746704102 33.19886016845703 C 29.66560745239258 33.40365219116211 30.56094741821289 33.61540985107422 31.25739669799805 33.92079162597656 C 32.28349685668945 34.37061309814453 32.89646530151367 35.05168151855469 32.81907653808594 35.65591049194336 C 32.79874801635742 35.81463241577148 32.60829544067383 36.39500045776367 31.01112747192383 37.19900131225586 C 29.83439636230469 37.79136276245117 28.4089469909668 38.25650024414063 27.26357650756836 38.63025283813477 C 25.8503360748291 39.09140014648438 25.32153701782227 39.26395034790039 25.01516723632813 39.68611145019531 C 24.83009719848633 39.94112014770508 24.74841690063477 40.2624397277832 24.50594711303711 41.21626281738281 C 24.02567672729492 43.10555267333984 23.02630615234375 47.03686141967773 21.33112716674805 48.56180953979492 L 21.17462730407715 48.70259094238281 L 21.08816719055176 48.89451217651367 C 20.85282707214355 49.41690063476563 20.74323654174805 49.92935943603516 20.65517616271973 50.34113311767578 C 20.60510063171387 50.57529830932617 20.53034400939941 50.92485046386719 20.46427345275879 51.02961730957031 C 19.37382698059082 51.74737548828125 16.3715991973877 52.00826263427734 14.60907649993896 52.00826263427734 Z" stroke="none"/>
      <path d="M 19.80500221252441 2.069252014160156 C 19.5296459197998 2.858066558837891 18.89451217651367 3.883712768554688 17.25728607177734 4.288440704345703 C 16.26110649108887 4.534652709960938 14.97643661499023 4.539230346679688 13.48891639709473 4.544540405273438 C 12.46241760253906 4.548210144042969 11.40097618103027 4.551990509033203 10.50243759155273 4.643772125244141 C 9.559299468994141 4.740104675292969 9.191444396972656 4.8975830078125 9.085174560546875 4.954353332519531 C 9.01732063293457 5.086505889892578 8.790380477905273 5.643722534179688 8.806217193603516 7.157619476318359 C 8.820247650146484 8.497722625732422 9.017976760864258 9.9923095703125 9.124197006225586 10.79526138305664 L 9.136276245117188 10.88655090332031 L 9.139917373657227 10.97857284545898 C 9.141841888427734 11.02729034423828 9.14569091796875 11.06585693359375 9.149906158447266 11.09547424316406 C 9.245349884033203 11.12419509887695 9.438850402832031 11.16381072998047 9.779926300048828 11.16381072998047 C 10.86713600158691 11.16381072998047 12.3261775970459 10.77804946899414 13.4985466003418 10.46808242797852 C 14.50592613220215 10.20174026489258 15.2337760925293 10.00930023193359 15.85257720947266 10.00930023193359 C 15.95345687866211 10.00930023193359 16.05280685424805 10.01436233520508 16.14784622192383 10.02433013916016 L 17.02465629577637 10.1163330078125 L 17.54824638366699 10.82563018798828 C 17.82428741455078 11.19959259033203 18.22698593139648 11.64536285400391 18.57787704467773 11.64536285400391 C 18.8674259185791 11.64536285400391 19.28918647766113 11.44524002075195 19.66129684448242 11.26867294311523 C 20.16521644592285 11.02956008911133 20.73637771606445 10.75855255126953 21.4167366027832 10.75855255126953 C 22.34279632568359 10.75855255126953 23.52272796630859 11.31509017944336 23.82114028930664 12.8795051574707 C 23.82929420471191 12.9129638671875 23.84098815917969 12.95717620849609 23.85480690002441 13.01052093505859 C 24.32613754272461 14.83053970336914 24.66199684143066 16.87968063354492 23.57934761047363 18.2784309387207 C 23.01825714111328 19.00334167480469 22.18096733093262 19.40257263183594 21.22172737121582 19.40257263183594 C 20.43395614624023 19.40257263183594 19.56460762023926 19.13152313232422 18.56401634216309 18.57395172119141 C 18.18436431884766 18.36240005493164 17.9058780670166 18.23440933227539 17.70991706848145 18.15707015991211 C 17.35079193115234 18.7232780456543 16.59540939331055 19.67649078369141 15.14194679260254 19.67649078369141 C 14.88287734985352 19.67649078369141 14.61254692077637 19.6438102722168 14.33848762512207 19.57937240600586 L 14.18643760681152 19.54362106323242 L 14.04178619384766 19.48470306396484 C 11.80187606811523 18.57229232788086 9.823856353759766 18.10971069335938 8.162675857543945 18.10980224609375 C 5.575553894042969 18.10995101928711 3.996799468994141 19.23077392578125 2.713771820068359 20.50850296020508 C 2.004901885986328 22.45092964172363 1.902595520019531 26.25256729125977 2.058097839355469 27.51966094970703 C 2.232715606689453 28.91511154174805 2.870716094970703 29.80535125732422 4.126747131347656 30.40618133544922 C 5.3878173828125 31.00942039489746 6.99749755859375 31.17869186401367 8.172836303710938 31.30228042602539 C 8.735517501831055 31.36145210266113 9.221456527709961 31.41255187988281 9.6348876953125 31.50320053100586 C 11.43995666503906 31.89899063110352 11.66911697387695 33.21949005126953 11.69634628295898 33.61472320556641 C 11.72734642028809 34.06427001953125 11.65416717529297 34.65559387207031 11.47078704833984 36.06854248046875 C 11.40090179443359 36.60698318481445 11.32259750366211 37.21031188964844 11.24888610839844 37.83970642089844 C 11.32168769836426 37.96326065063477 11.45208358764648 38.147705078125 11.54557609558105 38.27995300292969 C 11.99648666381836 38.91776275634766 12.61402702331543 39.79128265380859 12.57148742675781 40.97133255004883 C 12.52161598205566 42.35297012329102 11.72901725769043 43.19980239868164 11.25546646118164 43.70576095581055 C 11.22031021118164 43.74332427978516 11.18045234680176 43.78590774536133 11.14218521118164 43.82764053344727 C 11.14521217346191 43.83335876464844 11.14833831787109 43.83919906616211 11.15157699584961 43.84518051147461 C 11.59625625610352 44.66670989990234 11.85710716247559 45.70869064331055 12.13327598571777 46.81185150146484 C 12.41839599609375 47.95075225830078 12.74155616760254 49.24160003662109 13.24629592895508 50.10082244873047 C 13.69018745422363 50.85646057128906 14.09683609008789 51.00826263427734 14.60907745361328 51.00826263427734 C 16.61540031433105 51.00826263427734 18.71663093566895 50.71930694580078 19.63230133056641 50.33884048461914 C 19.64797019958496 50.26910400390625 19.66361618041992 50.1959342956543 19.67728614807129 50.13201141357422 C 19.77011680603027 49.69792938232422 19.89725685119629 49.10343170166016 20.17641639709473 48.48376083374023 L 20.34934616088867 48.09992218017578 L 20.6623363494873 47.818359375 C 21.06725692749023 47.4541015625 21.6961669921875 46.63360977172852 22.39274597167969 44.79346084594727 C 22.91655731201172 43.40970993041992 23.28979682922363 41.94145965576172 23.53677749633789 40.96987915039063 C 23.80703735351563 39.90674209594727 23.90815734863281 39.50894165039063 24.20583724975586 39.09875106811523 C 24.70281600952148 38.41396331787109 25.4080867767334 38.18382263183594 26.95336723327637 37.67958068847656 C 27.93360710144043 37.35972213745117 29.15354537963867 36.96163940429688 30.19680786132813 36.48117065429688 C 31.2252082824707 36.00753784179688 31.6381950378418 35.6524658203125 31.78765487670898 35.49277496337891 C 31.69405364990234 35.35669708251953 31.43244934082031 35.08940505981445 30.85582733154297 34.83662414550781 C 30.24247741699219 34.56768035888672 29.39202690124512 34.36653137207031 28.56957626342773 34.17201232910156 C 27.79978561401367 33.98994064331055 27.00378799438477 33.80167388916016 26.3077564239502 33.53604888916016 C 25.52224731445313 33.23628234863281 24.7315673828125 32.86463165283203 24.13843727111816 32.51640319824219 C 23.63078689575195 32.21836090087891 22.08597755432129 31.31139183044434 22.32507705688477 29.69522094726563 C 22.38743591308594 29.27373123168945 22.74714660644531 27.88743209838867 24.75761795043945 27.74483108520508 C 24.84136581420898 27.73888206481934 24.92797660827637 27.73587226867676 25.01503753662109 27.73587226867676 C 25.94621658325195 27.73587226867676 26.966796875 28.07989120483398 28.14853668212891 28.47823143005371 C 29.42364692687988 28.90805053710938 30.86887741088867 29.39521217346191 32.08689880371094 29.39521217346191 C 32.41659545898438 29.39521217346191 32.71299743652344 29.35799217224121 32.96784591674805 29.28458213806152 C 34.24233627319336 28.91747093200684 34.45652770996094 28.2538013458252 34.81950759887695 26.78767204284668 C 34.91805648803711 26.3896312713623 35.01995849609375 25.97803115844727 35.16405487060547 25.5716609954834 C 35.68173599243164 24.11169052124023 35.47523498535156 21.81167221069336 34.58259582519531 19.09529113769531 C 33.67301559448242 16.32736968994141 32.09797668457031 13.28251266479492 30.14762687683105 10.52160263061523 C 28.35123634338379 7.978652954101563 26.35793685913086 5.834762573242188 24.38320541381836 4.321720123291016 C 22.73807334899902 3.061210632324219 21.17352294921875 2.293838500976563 19.80500221252441 2.069252014160156 M 18.98926734924316 0 C 27.96137619018555 0 39.74895858764648 18.62586975097656 37.04905700683594 26.24006080627441 C 36.48477554321289 27.8314208984375 36.55890655517578 30.33150100708008 33.52143859863281 31.20644187927246 C 33.06073760986328 31.33914566040039 32.57866287231445 31.39521598815918 32.08689498901367 31.39521598815918 C 29.41117477416992 31.39521598815918 26.44367027282715 29.73586845397949 25.01503753662109 29.73586845397949 C 24.97509956359863 29.73586845397949 24.93666076660156 29.73715209960938 24.89916610717773 29.73981094360352 C 23.27402687072754 29.85508155822754 25.29561614990234 31.00909042358398 27.0208568572998 31.66750144958496 C 28.30130767822266 32.15615081787109 30.24958801269531 32.38698196411133 31.65896606445313 33.00495910644531 C 33.09967803955078 33.63655090332031 33.95290756225586 34.67474365234375 33.81097793579102 35.78292846679688 C 33.47872543334961 38.37728118896484 26.2224063873291 39.72517013549805 25.82449722290039 40.27346038818359 C 25.52328681945801 40.68852233886719 24.52908706665039 47.03007125854492 21.99991607666016 49.30525970458984 C 21.52917671203613 50.35017013549805 21.65915679931641 51.42825317382813 21.04445648193359 51.84463119506836 C 19.47513771057129 52.90772247314453 15.5549373626709 53.00826263427734 14.60907745361328 53.00826263427734 C 10.46398735046387 53.00826263427734 10.55398750305176 46.94267272949219 9.392705917358398 44.79721069335938 C 8.231426239013672 42.65174102783203 10.51576614379883 42.4788703918457 10.57278633117676 40.89919281005859 C 10.61061668395996 39.84976196289063 9.11204719543457 38.91940307617188 9.238336563110352 37.81546020507813 C 9.45927619934082 35.88386154174805 9.730636596679688 34.18090057373047 9.701086044311523 33.75227355957031 C 9.632236480712891 32.75315856933594 0.9008255004882813 34.37876129150391 0.073577880859375 27.76800155639648 C -0.09147262573242188 26.42318153381348 -0.05646133422851563 21.76319122314453 1.010936737060547 19.38825988769531 C 2.663063049316406 17.67092132568359 4.760429382324219 16.1099967956543 8.162559509277344 16.10980224609375 C 9.964956283569336 16.10969924926758 12.13310623168945 16.54764938354492 14.7962760925293 17.63247299194336 C 14.92462539672852 17.66264724731445 15.03918647766113 17.67648696899414 15.14194869995117 17.67648696899414 C 16.26054000854492 17.67648696899414 16.00000762939453 16.04024505615234 17.33712577819824 16.04012298583984 C 17.81793403625488 16.04007720947266 18.50517082214355 16.25160598754883 19.53753662109375 16.82688140869141 C 20.26698303222656 17.23335647583008 20.81488800048828 17.4025764465332 21.22172546386719 17.4025764465332 C 23.13902854919434 17.4025764465332 21.92708587646484 13.64698028564453 21.85982704162598 13.27189254760742 C 21.79212188720703 12.89432144165039 21.63945960998535 12.75854873657227 21.41673278808594 12.75854873657227 C 20.84733200073242 12.75854873657227 19.81905937194824 13.64535903930664 18.577880859375 13.64535903930664 C 17.76643753051758 13.64535903930664 16.86425971984863 13.26667404174805 15.93914604187012 12.01341247558594 C 15.91274261474609 12.01063919067383 15.8837833404541 12.00929641723633 15.85257530212402 12.00929641723633 C 14.93595314025879 12.00929641723633 11.9938793182373 13.16381454467773 9.779926300048828 13.16381454467773 C 8.338193893432617 13.16381454467773 7.205387115478516 12.6743278503418 7.141475677490234 11.05757141113281 C 6.844738006591797 8.814590454101563 6.359527587890625 4.780712127685547 7.690996170043945 3.509540557861328 C 9.261377334594727 2.010250091552734 14.7020263671875 2.85980224609375 16.77741622924805 2.34686279296875 C 18.76236724853516 1.856170654296875 17.38196754455566 0 18.98926734924316 0 Z" stroke="none" fill="#0a0a0a"/>
    </g>
    <g id="Path_87" data-name="Path 87" transform="matrix(0.719, 0.695, -0.695, 0.719, 20.949, 7.295)" fill="#2eb15a">
      <path d="M 7.240638732910156 25.72197341918945 C 7.160491466522217 25.60568237304688 7.057996273040771 25.43439292907715 6.937648773193359 25.18551254272461 C 6.108118534088135 23.47006225585938 5.229418754577637 22.08324241638184 4.454168796539307 20.85967254638672 C 2.753928661346436 18.17621231079102 1.410968661308289 16.0566520690918 1.410968661308289 11.87120246887207 C 1.410968661308289 10.50704193115234 1.298978686332703 9.127681732177734 1.190668702125549 7.793742179870605 C 0.969378650188446 5.068161964416504 0.7405486702919006 2.249782085418701 1.788318634033203 1.261972188949585 C 1.834928631782532 1.217992186546326 2.116808652877808 1.000002145767212 3.120528697967529 1.000002145767212 C 3.822787761688232 1.000002145767212 4.696541786193848 1.106607913970947 5.718520164489746 1.316928744316101 C 8.531519889831543 2.355498313903809 9.277405738830566 3.545921564102173 9.612268447875977 4.469141960144043 C 10.10752868652344 5.834602355957031 9.964728355407715 7.628822326660156 9.783928871154785 9.900382041931152 C 9.730658531188965 10.56978225708008 9.675559043884277 11.26197242736816 9.631768226623535 12.00248241424561 C 9.503898620605469 14.1648120880127 9.186128616333008 17.5369930267334 8.67775821685791 20.51659202575684 C 8.0877685546875 23.97452926635742 7.522527694702148 25.26296806335449 7.240638732910156 25.72197341918945 Z" stroke="none"/>
      <path d="M 3.120528221130371 2.000001907348633 C 2.727551460266113 2.000001907348633 2.50821590423584 2.04033088684082 2.408124923706055 2.066129684448242 C 2.282167434692383 2.23859977722168 2.088947296142578 2.658748626708984 2.023558616638184 3.645931243896484 C 1.948808670043945 4.7742919921875 2.064698219299316 6.201652526855469 2.18738842010498 7.712812423706055 C 2.297308921813965 9.066621780395508 2.410968780517578 10.46651268005371 2.410968780517578 11.87120246887207 C 2.410968780517578 15.76651191711426 3.622318744659424 17.6783618927002 5.298888683319092 20.3244514465332 C 5.856637477874756 21.20473861694336 6.466989517211914 22.16805839538574 7.078458786010742 23.28059768676758 C 7.286556243896484 22.49056625366211 7.52288818359375 21.40111923217773 7.765178680419922 19.90867233276367 C 8.225958824157715 17.07039260864258 8.51585865020752 13.93308258056641 8.633518218994141 11.94344139099121 C 8.677908897399902 11.19278144836426 8.73340892791748 10.49543190002441 8.787088394165039 9.821043014526367 C 8.958258628845215 7.670341491699219 9.09345817565918 5.971582412719727 8.672188758850098 4.810111999511719 C 8.413608551025391 4.097188949584961 7.810913562774658 3.169137954711914 5.44271183013916 2.281272888183594 C 4.530245780944824 2.097078323364258 3.729819774627686 2.000001907348633 3.120528221130371 2.000001907348633 M 3.120526313781738 -1.9073486328125e-06 C 3.988232612609863 -1.9073486328125e-06 5.001095294952393 0.1452045440673828 5.993658542633057 0.3527126312255859 C 12.14116859436035 2.591121673583984 10.98376846313477 6.079732894897461 10.63002872467041 12.0615119934082 C 10.33501529693604 17.05022430419922 9.155185699462891 26.90835380554199 7.255763053894043 26.90835380554199 C 6.877657890319824 26.90835380554199 6.471229076385498 26.51804161071777 6.037378787994385 25.62085151672363 C 3.424088478088379 20.21660232543945 0.4109687805175781 18.33779144287109 0.4109687805175781 11.87120246887207 C 0.4109687805175781 7.357563018798828 -0.8748712539672852 2.398422241210938 1.102338790893555 0.5343513488769531 C 1.510409355163574 0.149322509765625 2.240875244140625 -1.9073486328125e-06 3.120526313781738 -1.9073486328125e-06 Z" stroke="none" fill="#0a0a0a"/>
    </g>
    <g id="Path_88" data-name="Path 88" transform="translate(12.701 31.213) rotate(34)" fill="#2eb15a">
      <path d="M 26.75578689575195 21.71255874633789 C 26.63025665283203 21.71255874633789 26.48599624633789 21.71230888366699 26.31897735595703 21.71200942993164 C 26.08810615539551 21.71160888671875 25.81399726867676 21.71112823486328 25.48608779907227 21.71112823486328 C 24.54865646362305 21.71112823486328 23.85946655273438 20.65136909484863 22.81260681152344 18.92226791381836 C 22.05582618713379 17.67227935791016 21.19806671142578 16.25550842285156 19.94331741333008 15.01514911651611 C 18.96890640258789 14.05190849304199 18.45199775695801 13.17214870452881 17.99594688415527 12.39593887329102 C 17.33259773254395 11.26692867279053 16.64666748046875 10.09947872161865 14.87720680236816 10.09947872161865 C 14.51171684265137 10.09947872161865 14.11105728149414 10.14880847930908 13.65233707427979 10.25029850006104 C 11.56415748596191 10.71230888366699 9.638747215270996 12.47859859466553 8.091647148132324 13.8978385925293 C 7.579448223114014 14.36771965026855 6.901431083679199 14.98968982696533 6.556640148162842 15.20359897613525 C 5.540336608886719 14.76394939422607 4.723827838897705 13.83889579772949 3.932417154312134 12.94230842590332 C 3.677477121353149 12.65347862243652 3.413846969604492 12.35481834411621 3.148457050323486 12.07881832122803 C 2.947277069091797 11.86963844299316 2.751827001571655 11.67330837249756 2.562817096710205 11.48343849182129 C 1.564707040786743 10.48082828521729 0.999997079372406 9.879179000854492 0.999997079372406 9.172828674316406 C 0.999997079372406 9.153878211975098 1.001937031745911 9.146228790283203 1.001957058906555 9.146158218383789 C 1.056937098503113 9.034038543701172 1.485897064208984 8.795188903808594 1.742197036743164 8.652478218078613 C 2.19508695602417 8.400299072265625 2.758727073669434 8.086448669433594 3.263056993484497 7.598488807678223 C 5.919887065887451 5.027318477630615 11.39730739593506 2.294738531112671 16.31552696228027 2.294738531112671 C 17.19303703308105 2.294738531112671 18.02292633056641 2.384468555450439 18.78215789794922 2.561428546905518 C 19.24134635925293 2.668458700180054 19.67034721374512 2.720488548278809 20.09368705749512 2.720488548278809 C 21.32129669189453 2.720488548278809 22.20161628723145 2.280848741531372 23.05295753479004 1.855688691139221 C 23.9340877532959 1.41563868522644 24.766357421875 0.9999986290931702 26.11841773986816 0.9999986290931702 C 26.71748733520508 0.9999986290931702 27.36310768127441 1.079888701438904 28.09214782714844 1.244218707084656 L 28.17108726501465 1.262008666992188 L 28.25185775756836 1.266878604888916 C 30.01338768005371 1.37307870388031 31.19558715820313 1.966318607330322 31.97232627868652 3.133848667144775 C 32.69900131225586 4.226130962371826 32.99309158325195 5.69811487197876 33.19850540161133 7.132843971252441 C 33.20827102661133 7.432748794555664 33.2704963684082 7.744257926940918 33.3360481262207 8.072468757629395 C 33.5440788269043 9.113972663879395 33.80253601074219 10.40795230865479 32.64342498779297 12.09438514709473 C 31.14771461486816 13.80938720703125 30.80560302734375 16.03420448303223 30.50333786010742 17.99933815002441 C 30.32091331481934 19.18537139892578 30.14804458618164 20.30934143066406 29.74801445007324 21.09634780883789 C 29.5317440032959 21.28165626525879 29.41733360290527 21.37006568908691 29.35723304748535 21.41053009033203 C 29.339599609375 21.41101837158203 29.32016754150391 21.41143417358398 29.30262756347656 21.41180801391602 C 29.10420799255371 21.41605949401855 28.80435752868652 21.42247772216797 28.31377792358398 21.51737785339355 C 28.00256729125977 21.57758903503418 27.81557655334473 21.6221981048584 27.67903709411621 21.6547794342041 C 27.44595718383789 21.71038818359375 27.43685722351074 21.71255874633789 26.75578689575195 21.71255874633789 Z" stroke="none"/>
      <path d="M 26.11844635009766 1.999998092651367 L 26.11846733093262 1.999998092651367 C 25.00220680236816 2.000028610229492 24.33917617797852 2.331138610839844 23.499755859375 2.750349044799805 C 22.6342658996582 3.18256950378418 21.5571174621582 3.720489501953125 20.09368705749512 3.720489501953125 C 19.59990692138672 3.720489501953125 19.08226776123047 3.658187866210938 18.55514717102051 3.535327911376953 C 17.87024688720703 3.375688552856445 17.11673736572266 3.29473876953125 16.31552696228027 3.29473876953125 C 14.23782730102539 3.29473876953125 11.78998756408691 3.852277755737305 9.422937393188477 4.864658355712891 C 7.262617111206055 5.788618087768555 5.270927429199219 7.046948432922363 3.958406448364258 8.317168235778809 C 3.359807968139648 8.896328926086426 2.706047058105469 9.260358810424805 2.228687286376953 9.526158332824707 C 2.208763122558594 9.537252426147461 2.188011169433594 9.548807144165039 2.166782379150391 9.56065845489502 C 2.399116516113281 9.901602745056152 2.840370178222656 10.34484004974365 3.271507263183594 10.77792835235596 C 3.463516235351563 10.97079849243164 3.662057876586914 11.17023849487305 3.869297027587891 11.38570880889893 C 4.149457931518555 11.67707824707031 4.420246124267578 11.98385906219482 4.682126998901367 12.28054904937744 C 5.277774810791016 12.95534896850586 5.848798751831055 13.6022424697876 6.463628768920898 14.01495742797852 C 6.757566452026367 13.7646427154541 7.119510650634766 13.4326114654541 7.415647506713867 13.16094875335693 C 8.964607238769531 11.73998832702637 11.08598709106445 9.793918609619141 13.43631744384766 9.273919105529785 C 13.96682739257813 9.156538963317871 14.43814659118652 9.099478721618652 14.87720680236816 9.099478721618652 C 17.21894645690918 9.099478721618652 18.16636657714844 10.71196842193604 18.8581371307373 11.88935852050781 C 19.28314781188965 12.61273860931396 19.76487731933594 13.4326286315918 20.64632797241211 14.30396842956543 C 21.98927688598633 15.63151931762695 22.92011642456055 17.16897964477539 23.66804695129395 18.40435791015625 C 24.25743675231934 19.37786865234375 25.06463623046875 20.71112823486328 25.48608779907227 20.71112823486328 C 25.81476593017578 20.71112823486328 26.08949661254883 20.71160888671875 26.32089614868164 20.7120189666748 C 26.4871768951416 20.71230888366699 26.63079833984375 20.71255874633789 26.75578689575195 20.71255874633789 C 26.89220809936523 20.71255874633789 27.24595832824707 20.71255874633789 27.34902954101563 20.70503234863281 C 27.3712272644043 20.70014762878418 27.41257858276367 20.69027900695801 27.44695663452148 20.68207931518555 C 27.58413696289063 20.64934921264648 27.79145812988281 20.59987831115723 28.12384796142578 20.53557777404785 C 28.46775817871094 20.46905136108398 28.73398208618164 20.43938255310059 28.95567321777344 20.42510032653809 C 29.21787261962891 19.77878761291504 29.36282920837402 18.83637237548828 29.51495742797852 17.84731864929199 C 29.81952476501465 15.86719703674316 30.1973705291748 13.41115283966064 31.84928703308105 11.48394775390625 C 32.73511123657227 10.16959857940674 32.55059432983398 9.245480537414551 32.35541534423828 8.268338203430176 C 32.28823852539063 7.932027816772461 32.21909332275391 7.585861206054688 32.20146560668945 7.225033760070801 C 32.01326370239258 5.922819137573242 31.74922752380371 4.603887557983398 31.13973617553711 3.687747955322266 C 30.73801803588867 3.083898544311523 30.03987693786621 2.376487731933594 28.19168663024902 2.265068054199219 L 28.03013610839844 2.255329132080078 L 27.87226676940918 2.219738006591797 C 27.22533798217773 2.073919296264648 26.63527679443359 1.999988555908203 26.11844635009766 1.999998092651367 M 26.1184196472168 1.9073486328125e-06 C 26.7472038269043 -1.33514404296875e-05 27.46776580810547 0.07838630676269531 28.31203651428223 0.2686882019042969 C 32.89337539672852 0.5448780059814453 33.74996566772461 3.894498825073242 34.19717788696289 7.052719116210938 C 34.19717788696289 8.056608200073242 35.28849792480469 10.05699825286865 33.43222808837891 12.71174907684326 C 31.1454963684082 15.28275871276855 31.85421752929688 19.44669914245605 30.54001617431641 21.73346900939941 C 29.40927696228027 22.71971893310547 29.76718711853027 22.25475883483887 28.50370788574219 22.49917793273926 C 27.50550842285156 22.69227981567383 27.88163375854492 22.71255874633789 26.75579071044922 22.71255874633789 C 26.45658874511719 22.71255874633789 26.05147552490234 22.71112823486328 25.48608779907227 22.71112823486328 C 22.89801788330078 22.71112823486328 22.14472579956055 18.5974292755127 19.24029731750488 15.726318359375 C 16.69112014770508 13.20638656616211 16.93672752380371 11.09947395324707 14.8772029876709 11.09947395324707 C 14.59018707275391 11.09947395324707 14.25873947143555 11.14031887054443 13.86836624145508 11.22668838500977 C 10.79057884216309 11.90764904022217 7.656162261962891 16.25167465209961 6.558732986450195 16.25167465209961 C 6.518169403076172 16.25167465209961 6.480398178100586 16.24574089050293 6.445507049560547 16.23346900939941 C 4.697946548461914 15.61883926391602 3.575117111206055 13.96531867980957 2.427627563476563 12.77192878723145 C 1.156497955322266 11.45024871826172 -3.814697265625e-06 10.53567886352539 -3.814697265625e-06 9.172828674316406 C -3.814697265625e-06 8.044768333435059 1.499946594238281 7.912908554077148 2.567718505859375 6.87980842590332 C 5.492650985717773 4.049173355102539 11.24350738525391 1.294736862182617 16.31553077697754 1.294736862182617 C 17.24350929260254 1.294736862182617 18.14802932739258 1.386821746826172 19.00915718078613 1.58753776550293 C 19.40694427490234 1.680257797241211 19.76470947265625 1.720491409301758 20.09368133544922 1.720491409301758 C 22.24574089050293 1.720491409301758 23.1732063293457 7.62939453125e-05 26.1184196472168 1.9073486328125e-06 Z" stroke="none" fill="#0a0a0a"/>
    </g>
  </g>
</svg>
