<svg xmlns="http://www.w3.org/2000/svg" xmlns:xlink="http://www.w3.org/1999/xlink" width="100" height="100" viewBox=" -2 -2 40 40">
  <defs>
    <style>
      .cls-1, .cls-2, .cls-3 {
        fill: #fff;
      }

      .cls-3, .cls-4 {
        opacity: 0.65;
      }

      .cls-4, .cls-5, .cls-6 {
        fill: #4dd8d3;
      }

      .cls-5 {
        opacity: 0.51;
      }

      .cls-7 {
        fill: #0a0a0a;
      }

      .cls-8, .cls-9 {
        stroke: none;
      }

      .cls-9 {
        fill: #03131a;
      }

      .cls-10 {
        filter: url(#Path_5);
      }

      .cls-11 {
        filter: url(#Path_6);
      }

      .cls-12 {
        filter: url(#Path_31);
      }

      .cls-13 {
        filter: url(#Path_30);
      }

      .cls-14 {
        filter: url(#Path_29);
      }
    </style>
    <filter id="Path_29" x="0" y="0" width="104.292" height="103.926" filterUnits="userSpaceOnUse">
      <feOffset dx="4" dy="1" input="SourceAlpha"/>
      <feGaussianBlur stdDeviation="17" result="blur"/>
      <feFlood flood-color="#2a2727" flood-opacity="0.91"/>
      <feComposite operator="in" in2="blur"/>
      <feComposite in="SourceGraphic"/>
    </filter>
    <filter id="Path_30" x="11.117" y="12.946" width="104.292" height="103.926" filterUnits="userSpaceOnUse">
      <feOffset dx="4" dy="1" input="SourceAlpha"/>
      <feGaussianBlur stdDeviation="17" result="blur-2"/>
      <feFlood flood-color="#2a2727" flood-opacity="0.91"/>
      <feComposite operator="in" in2="blur-2"/>
      <feComposite in="SourceGraphic"/>
    </filter>
    <filter id="Path_31" x="14.669" y="26.524" width="104.421" height="103.652" filterUnits="userSpaceOnUse">
      <feOffset dx="4" dy="1" input="SourceAlpha"/>
      <feGaussianBlur stdDeviation="17" result="blur-3"/>
      <feFlood flood-color="#2a2727" flood-opacity="0.91"/>
      <feComposite operator="in" in2="blur-3"/>
      <feComposite in="SourceGraphic"/>
    </filter>
    <filter id="Path_6" x="27.093" y="53.66" width="36.485" height="35.855" filterUnits="userSpaceOnUse">
      <feOffset dy="1" input="SourceAlpha"/>
      <feGaussianBlur stdDeviation="3" result="blur-4"/>
      <feFlood flood-opacity="0.161"/>
      <feComposite operator="in" in2="blur-4"/>
      <feComposite in="SourceGraphic"/>
    </filter>
    <filter id="Path_5" x="27.089" y="54.06" width="35.915" height="35.512" filterUnits="userSpaceOnUse">
      <feOffset dy="1" input="SourceAlpha"/>
      <feGaussianBlur stdDeviation="3" result="blur-5"/>
      <feFlood flood-opacity="0.161"/>
      <feComposite operator="in" in2="blur-5"/>
      <feComposite in="SourceGraphic"/>
    </filter>
  </defs>
    <g id="Path_1" data-name="Path 1" class="cls-1" transform="translate(-5.436 -3.574)">
      <path class="cls-8" d="M 22.02507019042969 40.28007507324219 C 16.84627151489258 40.28007507324219 12.25431060791016 36.69546508789063 10.52042102813721 35.1542854309082 C 8.270100593566895 33.15409469604492 6.722920894622803 30.54327392578125 5.790480613708496 27.17261505126953 C 5.072110652923584 24.57580375671387 4.737530708312988 21.62312507629395 4.737530708312988 17.88037490844727 C 4.737530708312988 11.17600440979004 8.083250999450684 8.940614700317383 12.71390056610107 5.846704483032227 C 14.33912086486816 4.760824680328369 15.91269111633301 3.974574565887451 17.52453994750977 3.443044424057007 C 19.29738998413086 2.858424425125122 21.12754058837891 2.574234485626221 23.11957168579102 2.574234485626221 C 28.28141021728516 2.574234485626221 32.72679901123047 4.126854419708252 35.97515106201172 7.064244747161865 C 37.80263137817383 8.716774940490723 39.30802917480469 10.8694543838501 40.32862091064453 13.28956413269043 C 41.35097122192383 15.71386432647705 41.89136123657227 18.41973495483398 41.89136123657227 21.11466407775879 C 41.89136123657227 21.59466361999512 41.91624069213867 22.07618522644043 41.94258117675781 22.58598518371582 C 41.99727249145508 23.64449501037598 42.0538215637207 24.73903465270996 41.87968063354492 25.86821365356445 C 41.50270080566406 28.31311416625977 40.34604263305664 30.5211353302002 39.44210052490234 31.94290542602539 C 37.85074234008789 34.44594573974609 35.25894165039063 36.57142639160156 31.94690132141113 38.08953475952148 C 28.86507034301758 39.50212478637695 25.3414306640625 40.28007507324219 22.02507019042969 40.28007507324219 Z"/>
      <path class="cls-9" d="M 23.11957168579102 3.574234008789063 C 19.24075126647949 3.574234008789063 16.19683074951172 4.722255706787109 13.26945114135742 6.678195953369141 C 8.575672149658203 9.814273834228516 5.737529754638672 11.78182411193848 5.737529754638672 17.88037490844727 C 5.737529754638672 23.9590950012207 6.633140563964844 30.36115455627441 11.18477249145508 34.40686416625977 C 14.1080207824707 37.00520324707031 18.12627029418945 39.28007507324219 22.02507019042969 39.28007507324219 C 28.38947105407715 39.28007507324219 35.48337173461914 36.30570602416992 38.59822082519531 31.40637588500977 C 39.65129089355469 29.75003433227539 40.57657241821289 27.75737380981445 40.89136123657227 25.71579360961914 C 41.12879180908203 24.17629432678223 40.89136123657227 22.63616371154785 40.89136123657227 21.11466407775879 C 40.89136123657227 15.87163543701172 38.7959098815918 10.96318435668945 35.30443954467773 7.805965423583984 C 32.14904022216797 4.952625274658203 27.86026000976563 3.574234008789063 23.11957168579102 3.574234008789063 M 23.11957168579102 1.574234008789063 C 28.53334045410156 1.574234008789063 33.21066284179688 3.216163635253906 36.64587020874023 6.322532653808594 C 38.58097076416016 8.072376251220703 40.17307281494141 10.34717559814453 41.25004196166992 12.9009952545166 C 42.32379913330078 15.44719505310059 42.89136123657227 18.28743362426758 42.89136123657227 21.11466407775879 C 42.89136123657227 21.56884384155273 42.91559219360352 22.03784370422363 42.94124984741211 22.53438377380371 C 42.99854278564453 23.6433048248291 43.05779266357422 24.78998374938965 42.86799240112305 26.02064514160156 C 42.4646110534668 28.63676452636719 41.24124145507813 30.97694396972656 40.28599166870117 32.47942352294922 C 38.59090042114258 35.14561462402344 35.85137176513672 37.3999137878418 32.36357879638672 38.99858474731445 C 29.1537914276123 40.46982574462891 25.48217010498047 41.28007507324219 22.02507019042969 41.28007507324219 C 19.90002059936523 41.28007507324219 17.66162109375 40.72159576416016 15.37205123901367 39.62013626098633 C 13.4717903137207 38.70596313476563 11.56439208984375 37.4201545715332 9.856071472167969 35.90171432495117 C 7.490550994873047 33.79912567138672 5.798419952392578 30.95193481445313 4.826690673828125 27.43924331665039 C 4.083621978759766 24.75314521789551 3.737529754638672 21.71574401855469 3.737529754638672 17.88037490844727 C 3.737529754638672 10.64147567749023 7.453620910644531 8.158622741699219 12.15835952758789 5.015224456787109 C 15.67190170288086 2.667633056640625 19.15491104125977 1.574234008789063 23.11957168579102 1.574234008789063 Z"/>
    </g>
    <path id="Path_8" data-name="Path 8" class="cls-2" d="M.009.006c.053-.045.2.177.374.177S.672-.039.711.006.534.209.534.385.749.666.711.708.538.564.362.564.061.75.009.708.162.541.162.365-.044.051.009.006Z" transform="translate(18.963 3.78) rotate(-65)"/>
    <path id="Path_12" data-name="Path 12" class="cls-3" d="M1.442.1c1,0,2.173.8,2.173,1.8A2.389,2.389,0,0,1,1.442,3.962C.443,3.962,0,2.892,0,1.893S.443.1,1.442.1Z" transform="translate(30.072 19.416)"/>
    <path id="Path_13" data-name="Path 13" class="cls-3" d="M.57-.224c.629,0,1.188-.213,1.188.416S1.2,2.053.57,2.053-.656,1.867-.656,1.239-.059-.224.57-.224Z" transform="translate(15.979 31.892)"/>
    <path id="Path_11" data-name="Path 11" class="cls-3" d="M4.557,0C7.036,0,8.867.277,8.867,1.336s-1.831,2.5-4.309,2.5S0,3.4,0,2.34,2.079,0,4.557,0Z" transform="matrix(0.485, -0.875, 0.875, 0.485, 1.072, 13.854)"/>
    <circle id="Ellipse_4" data-name="Ellipse 4" class="cls-3" cx="0.5" cy="0.5" r="0.5" transform="translate(27.955 5.562)"/>
    <path id="Path_15" data-name="Path 15" class="cls-2" d="M.01.007c.067-.057.179.252.4.252S.859-.05.908.007.616.247.616.471.957.851.908.9.647.653.423.653.077.958.01.9.228.7.228.48-.057.065.01.007Z" transform="matrix(0.848, -0.53, 0.53, 0.848, 12.535, 31.425)"/>
    <path id="Path_16" data-name="Path 16" class="cls-2" d="M.013.009C.08-.048.237.188.461.188s.4-.236.449-.179S.735.221.735.445.96.853.911.907.658.769.434.769.08.96.013.907.16.7.16.473-.054.066.013.009Z" transform="translate(30.873 19.897) rotate(-76)"/>
    <path id="Path_17" data-name="Path 17" class="cls-4" d="M1.442,0c1,0,2.173.8,2.173,1.8A2.389,2.389,0,0,1,1.442,3.863C.443,3.863,0,2.794,0,1.8S.443,0,1.442,0Z" transform="translate(32.069 19.693) rotate(59)"/>
    <path id="Path_18" data-name="Path 18" class="cls-4" d="M1.459.041c.748,0,1.413-.253,1.413.495S2.206,2.749,1.459,2.749,0,2.528,0,1.78.711.041,1.459.041Z" transform="matrix(0.208, -0.978, 0.978, 0.208, 15.121, 33.505)"/>
    <path id="Path_19" data-name="Path 19" class="cls-4" d="M4.557,0C7.036,0,8.867.287,8.867,1.38S7.036,3.96,4.557,3.96,0,3.511,0,2.417,2.079,0,4.557,0Z" transform="matrix(0.485, -0.875, 0.875, 0.485, 0, 13.721)"/>
    <circle id="Ellipse_5" data-name="Ellipse 5" class="cls-4" cx="2" cy="2" r="2" transform="translate(25.955 4.562)"/>
    <path id="Path_21" data-name="Path 21" class="cls-2" d="M.745.7c.247-.206.091-.71.2-.7s-.077.479.128.691.766.059.74.134-.5-.046-.734.2-.115.782-.2.783.1-.526-.12-.777S0,.885,0,.8.5.9.745.7Z" transform="translate(14.975 24.34) rotate(-18)"/>
    <path id="Path_23" data-name="Path 23" class="cls-2" d="M.015.011C.094-.057.277.22.54.22s.468-.277.526-.21S.8.281.8.543s.322.456.264.519S.734.829.471.829s-.381.3-.46.234S.279.792.279.529-.064.078.015.011Z" transform="matrix(0.454, -0.891, 0.891, 0.454, 7.553, 29.131)"/>
    <path id="Path_24" data-name="Path 24" class="cls-2" d="M.914.854c.3-.252.111-.871.24-.854s-.095.587.156.847.939.073.908.165-.613-.057-.9.244-.141.96-.25.96.12-.645-.147-.953S0,1.086,0,.984.61,1.107.914.854Z" transform="translate(21.493 3.721) rotate(-15)"/>
    <path id="Path_25" data-name="Path 25" class="cls-2" d="M.009.006c.053-.045.2.177.374.177S.672-.039.711.006.534.209.534.385.749.666.711.708.538.564.362.564.061.75.009.708.162.541.162.365-.044.051.009.006Z" transform="translate(27.369 12.484) rotate(-65)"/>
    <path id="Path_26" data-name="Path 26" class="cls-2" d="M.009.006c.053-.045.2.177.374.177S.672-.039.711.006.534.209.534.385.749.666.711.708.538.564.362.564.061.75.009.708.162.541.162.365-.044.051.009.006Z" transform="translate(7.088 8.776) rotate(-65)"/>
    <path id="Path_27" data-name="Path 27" class="cls-2" d="M.009.006c.053-.045.2.177.374.177S.672-.039.711.006.534.209.534.385.749.666.711.708.538.564.362.564.061.75.009.708.162.541.162.365-.044.051.009.006Z" transform="translate(25.097 27.699) rotate(2)"/>
    <g class="cls-14" transform="matrix(1, 0, 0, 1, -35.37, -47.77)">
      <path id="Path_29-2" data-name="Path 29" class="cls-2" d="M.743.2C.856.183,1.012.183,1.21.16a.852.852,0,0,0,.1-.016c.026-.006.069-.02.108-.026s.1-.027.166-.037c.032,0,.073-.02.122-.03.028-.006.066-.007.1-.013s.08-.02.124-.026A1.329,1.329,0,0,1,2.134,0c.152,0,.3.125.3.227s-.109.292-.262.292a1.707,1.707,0,0,1-.327.057c-.055,0-.173-.016-.266-.018-.048,0-.136-.026-.2-.028-.013,0-.068-.02-.094-.021S1.2.48,1.155.477C1.014.468.869.447.763.435.376.388.005.379,0,.32S.356.243.743.2Z" transform="matrix(0.8, 0.6, -0.6, 0.8, 47.35, 50)"/>
    </g>
    <g class="cls-13" transform="matrix(1, 0, 0, 1, -35.37, -47.77)">
      <path id="Path_30-2" data-name="Path 30" class="cls-2" d="M.743.2C.856.183,1.012.183,1.21.16a.852.852,0,0,0,.1-.016c.026-.006.069-.02.108-.026s.1-.027.166-.037c.032,0,.073-.02.122-.03.028-.006.066-.007.1-.013s.08-.02.124-.026A1.329,1.329,0,0,1,2.134,0c.152,0,.3.125.3.227s-.109.292-.262.292a1.707,1.707,0,0,1-.327.057c-.055,0-.173-.016-.266-.018-.048,0-.136-.026-.2-.028-.013,0-.068-.02-.094-.021S1.2.48,1.155.477C1.014.468.869.447.763.435.376.388.005.379,0,.32S.356.243.743.2Z" transform="matrix(0.8, 0.6, -0.6, 0.8, 58.46, 62.95)"/>
    </g>
    <g class="cls-12" transform="matrix(1, 0, 0, 1, -35.37, -47.77)">
      <path id="Path_31-2" data-name="Path 31" class="cls-2" d="M.743.2C.856.183,1.012.183,1.21.16a.852.852,0,0,0,.1-.016c.026-.006.069-.02.108-.026s.1-.027.166-.037c.032,0,.073-.02.122-.03.028-.006.066-.007.1-.013s.08-.02.124-.026A1.329,1.329,0,0,1,2.134,0c.152,0,.3.125.3.227s-.109.292-.262.292a1.707,1.707,0,0,1-.327.057c-.055,0-.173-.016-.266-.018-.048,0-.136-.026-.2-.028-.013,0-.068-.02-.094-.021S1.2.48,1.155.477C1.014.468.869.447.763.435.376.388.005.379,0,.32S.356.243.743.2Z" transform="matrix(0.88, 0.47, -0.47, 0.88, 61.94, 76.52)"/>
    </g>
    <g id="Group_3" data-name="Group 3" transform="matrix(0.996, -0.087, 0.087, 0.996, -0.555, 15.041)">
      <g id="Group_2" data-name="Group 2" transform="translate(0)">
        <g class="cls-11" transform="matrix(1, 0.09, -0.09, 1, -29.21, -65.6)">
          <path id="Path_6-2" data-name="Path 6" class="cls-5" d="M.129,4.444,16.124,0a9.826,9.826,0,0,1,.986,4.29c-.024.31.008.7-.027,1.025A21.061,21.061,0,0,1,16.6,8.078L.288,8.606A9.339,9.339,0,0,1,0,6.618C.005,5.748.129,4.444.129,4.444Z" transform="matrix(0.74, -0.67, 0.67, 0.74, 36.09, 73.12)"/>
        </g>
        <g class="cls-10" transform="matrix(1, 0.09, -0.09, 1, -29.21, -65.6)">
          <path id="Path_5-2" data-name="Path 5" class="cls-6" d="M.346,5.243,16.616,0a12.955,12.955,0,0,0-1.071,3.94A8.447,8.447,0,0,0,16.907,8.3l-16.4.157A7.715,7.715,0,0,1,.295,6.71C.3,5.825.346,5.243.346,5.243Z" transform="matrix(0.73, -0.68, 0.68, 0.73, 35.87, 73.59)"/>
        </g>
      </g>
      <ellipse id="Ellipse_6" data-name="Ellipse 6" class="cls-7" cx="0.613" cy="1.84" rx="0.613" ry="1.84" transform="translate(14.111 3.134) rotate(-42)"/>
    </g>
</svg>
