<svg xmlns="http://www.w3.org/2000/svg" xmlns:xlink="http://www.w3.org/1999/xlink" width="99" height="102" viewBox="35.2 52.8 36.3 26.1"><defs><style>.a,.f{fill:#4dd8d3;}.b{fill:#fff;}.c{fill:#0f1010;opacity:0.51;}.d{fill:#0a0a0a;}.e{clip-path:url(#c);}.f,.g,.h{opacity:0.65;}.g{fill:#fb0969;}.h{fill:#ee7333;}.i{filter:url(#j);}.j{filter:url(#h);}.k{filter:url(#f);}.l{filter:url(#d);}.m{filter:url(#a);}</style><filter id="a" x="26.602" y="60.957" width="32.164" height="31.663" filterUnits="userSpaceOnUse"><feOffset dy="1" input="SourceAlpha"/><feGaussianBlur stdDeviation="3" result="b"/><feFlood flood-opacity="0.161"/><feComposite operator="in" in2="b"/><feComposite in="SourceGraphic"/></filter><clipPath id="c"><path class="a" d="M3,0H33a3,3,0,0,1,3,3V34a3,3,0,0,1-3,3H3a3,3,0,0,1-3-3V3A3,3,0,0,1,3,0Z" transform="translate(-0.045 -0.438)"/></clipPath><filter id="d" x="21.885" y="61.347" width="36.295" height="34.889" filterUnits="userSpaceOnUse"><feOffset dy="1" input="SourceAlpha"/><feGaussianBlur stdDeviation="3" result="e"/><feFlood flood-opacity="0.161"/><feComposite operator="in" in2="e"/><feComposite in="SourceGraphic"/></filter><filter id="f" x="0" y="0" width="104.292" height="103.926" filterUnits="userSpaceOnUse"><feOffset dx="4" dy="1" input="SourceAlpha"/><feGaussianBlur stdDeviation="17" result="g"/><feFlood flood-color="#2a2727" flood-opacity="0.91"/><feComposite operator="in" in2="g"/><feComposite in="SourceGraphic"/></filter><filter id="h" x="11.117" y="12.946" width="104.292" height="103.926" filterUnits="userSpaceOnUse"><feOffset dx="4" dy="1" input="SourceAlpha"/><feGaussianBlur stdDeviation="17" result="i"/><feFlood flood-color="#2a2727" flood-opacity="0.91"/><feComposite operator="in" in2="i"/><feComposite in="SourceGraphic"/></filter><filter id="j" x="14.669" y="26.524" width="104.421" height="103.652" filterUnits="userSpaceOnUse"><feOffset dx="4" dy="1" input="SourceAlpha"/><feGaussianBlur stdDeviation="17" result="k"/><feFlood flood-color="#2a2727" flood-opacity="0.91"/><feComposite operator="in" in2="k"/><feComposite in="SourceGraphic"/></filter></defs><g transform="translate(35.373 47.766)"><path class="b" d="M3,0H33a3,3,0,0,1,3,3V34a3,3,0,0,1-3,3H3a3,3,0,0,1-3-3V3A3,3,0,0,1,3,0Z" transform="translate(-0.045 -0.438)"/><g transform="translate(0.511 18.233)"><g transform="translate(0 0)"><g class="m" transform="matrix(1, 0, 0, 1, -35.88, -66)"><path class="c" d="M.084,4.444,10.2-.055a11.04,11.04,0,0,1,1,4.345c-.016.31.005.7-.018,1.025a13.38,13.38,0,0,1-.537,2.869L.189,8.606A13.95,13.95,0,0,1,0,6.618C0,5.748.084,4.444.084,4.444Z" transform="matrix(0.8, -0.6, 0.6, 0.8, 35.64, 75.75)"/></g></g><ellipse class="d" cx="0.613" cy="1.84" rx="0.613" ry="1.84" transform="matrix(0.788, -0.616, 0.616, 0.788, 8.839, 5.94)"/></g><g class="e"><g class="l" transform="matrix(1, 0, 0, 1, -35.37, -47.77)"><path class="a" d="M.051,5.243,16.321,0A12.955,12.955,0,0,0,15.25,3.94,8.447,8.447,0,0,0,16.613,8.3l-16.4.157A7.715,7.715,0,0,1,0,6.71C.006,5.825.051,5.243.051,5.243Z" transform="matrix(0.79, -0.62, 0.62, 0.79, 30.89, 79.57)"/></g></g><path class="a" d="M.009.006c.053-.045.2.177.374.177S.672-.039.711.006.534.209.534.385.749.666.711.708.538.564.362.564.061.75.009.708.162.541.162.365-.044.051.009.006Z" transform="translate(18.963 3.78) rotate(-65)"/><path class="f" d="M1.442.1c1,0,2.173.8,2.173,1.8A2.389,2.389,0,0,1,1.442,3.962C.443,3.962,0,2.892,0,1.893S.443.1,1.442.1Z" transform="translate(30.072 19.416)"/><path class="g" d="M.57-.224c.629,0,1.188-.213,1.188.416S1.2,2.053.57,2.053-.656,1.867-.656,1.239-.059-.224.57-.224Z" transform="translate(15.979 31.892)"/><path class="h" d="M4.557,0C7.036,0,8.867.277,8.867,1.336s-1.831,2.5-4.309,2.5S0,3.4,0,2.34,2.079,0,4.557,0Z" transform="matrix(0.485, -0.875, 0.875, 0.485, 1.072, 13.854)"/><circle class="f" cx="0.5" cy="0.5" r="0.5" transform="translate(27.955 5.562)"/><path class="a" d="M.01.007c.067-.057.179.252.4.252S.859-.05.908.007.616.247.616.471.957.851.908.9.647.653.423.653.077.958.01.9.228.7.228.48-.057.065.01.007Z" transform="matrix(0.848, -0.53, 0.53, 0.848, 12.535, 31.425)"/><path class="a" d="M.013.009C.08-.048.237.188.461.188s.4-.236.449-.179S.735.221.735.445.96.853.911.907.658.769.434.769.08.96.013.907.16.7.16.473-.054.066.013.009Z" transform="translate(30.873 19.897) rotate(-76)"/><path class="f" d="M1.442,0c1,0,2.173.8,2.173,1.8A2.389,2.389,0,0,1,1.442,3.863C.443,3.863,0,2.794,0,1.8S.443,0,1.442,0Z" transform="translate(32.069 19.693) rotate(59)"/><path class="g" d="M1.459.041c.748,0,1.413-.253,1.413.495S2.206,2.749,1.459,2.749,0,2.528,0,1.78.711.041,1.459.041Z" transform="matrix(0.208, -0.978, 0.978, 0.208, 15.121, 33.505)"/><path class="h" d="M4.557,0C7.036,0,8.867.287,8.867,1.38S7.036,3.96,4.557,3.96,0,3.511,0,2.417,2.079,0,4.557,0Z" transform="matrix(0.485, -0.875, 0.875, 0.485, 0, 13.721)"/><circle class="f" cx="2" cy="2" r="2" transform="translate(25.955 4.562)"/><path class="a" d="M.745.7c.247-.206.091-.71.2-.7s-.077.479.128.691.766.059.74.134-.5-.046-.734.2-.115.782-.2.783.1-.526-.12-.777S0,.885,0,.8.5.9.745.7Z" transform="translate(14.975 24.34) rotate(-18)"/><path class="a" d="M.015.011C.094-.057.277.22.54.22s.468-.277.526-.21S.8.281.8.543s.322.456.264.519S.734.829.471.829s-.381.3-.46.234S.279.792.279.529-.064.078.015.011Z" transform="matrix(0.454, -0.891, 0.891, 0.454, 4.553, 23.131)"/><path class="a" d="M.914.854c.3-.252.111-.871.24-.854s-.095.587.156.847.939.073.908.165-.613-.057-.9.244-.141.96-.25.96.12-.645-.147-.953S0,1.086,0,.984.61,1.107.914.854Z" transform="translate(21.493 3.721) rotate(-15)"/><path class="a" d="M.009.006c.053-.045.2.177.374.177S.672-.039.711.006.534.209.534.385.749.666.711.708.538.564.362.564.061.75.009.708.162.541.162.365-.044.051.009.006Z" transform="translate(27.369 12.484) rotate(-65)"/><path class="a" d="M.009.006c.053-.045.2.177.374.177S.672-.039.711.006.534.209.534.385.749.666.711.708.538.564.362.564.061.75.009.708.162.541.162.365-.044.051.009.006Z" transform="translate(7.088 8.776) rotate(-65)"/><path class="a" d="M.009.006c.053-.045.2.177.374.177S.672-.039.711.006.534.209.534.385.749.666.711.708.538.564.362.564.061.75.009.708.162.541.162.365-.044.051.009.006Z" transform="translate(25.097 27.699) rotate(2)"/><g class="k" transform="matrix(1, 0, 0, 1, -35.37, -47.77)"><path class="a" d="M.743.2C.856.183,1.012.183,1.21.16a.852.852,0,0,0,.1-.016c.026-.006.069-.02.108-.026s.1-.027.166-.037c.032,0,.073-.02.122-.03.028-.006.066-.007.1-.013s.08-.02.124-.026A1.329,1.329,0,0,1,2.134,0c.152,0,.3.125.3.227s-.109.292-.262.292a1.707,1.707,0,0,1-.327.057c-.055,0-.173-.016-.266-.018-.048,0-.136-.026-.2-.028-.013,0-.068-.02-.094-.021S1.2.48,1.155.477C1.014.468.869.447.763.435.376.388.005.379,0,.32S.356.243.743.2Z" transform="matrix(0.8, 0.6, -0.6, 0.8, 47.35, 50)"/></g><g class="j" transform="matrix(1, 0, 0, 1, -35.37, -47.77)"><path class="a" d="M.743.2C.856.183,1.012.183,1.21.16a.852.852,0,0,0,.1-.016c.026-.006.069-.02.108-.026s.1-.027.166-.037c.032,0,.073-.02.122-.03.028-.006.066-.007.1-.013s.08-.02.124-.026A1.329,1.329,0,0,1,2.134,0c.152,0,.3.125.3.227s-.109.292-.262.292a1.707,1.707,0,0,1-.327.057c-.055,0-.173-.016-.266-.018-.048,0-.136-.026-.2-.028-.013,0-.068-.02-.094-.021S1.2.48,1.155.477C1.014.468.869.447.763.435.376.388.005.379,0,.32S.356.243.743.2Z" transform="matrix(0.8, 0.6, -0.6, 0.8, 58.46, 62.95)"/></g><g class="i" transform="matrix(1, 0, 0, 1, -35.37, -47.77)"><path class="a" d="M.743.2C.856.183,1.012.183,1.21.16a.852.852,0,0,0,.1-.016c.026-.006.069-.02.108-.026s.1-.027.166-.037c.032,0,.073-.02.122-.03.028-.006.066-.007.1-.013s.08-.02.124-.026A1.329,1.329,0,0,1,2.134,0c.152,0,.3.125.3.227s-.109.292-.262.292a1.707,1.707,0,0,1-.327.057c-.055,0-.173-.016-.266-.018-.048,0-.136-.026-.2-.028-.013,0-.068-.02-.094-.021S1.2.48,1.155.477C1.014.468.869.447.763.435.376.388.005.379,0,.32S.356.243.743.2Z" transform="matrix(0.88, 0.47, -0.47, 0.88, 61.94, 76.52)"/></g></g></svg>