<svg xmlns="http://www.w3.org/2000/svg" width="28.534" height="28.316" viewBox="0 0 28.534 28.316">
  <defs>
    <style>
      .cls-1, .cls-2, .cls-3, .cls-4 {
        fill: #ee7333;
      }

      .cls-2, .cls-4, .cls-5, .cls-6 {
        opacity: 0.65;
      }

      .cls-4, .cls-6 {
        stroke: #fff;
        stroke-width: 2px;
      }

      .cls-5, .cls-6, .cls-7 {
        fill: none;
      }

      .cls-8, .cls-9 {
        stroke: none;
      }

      .cls-9 {
        fill: #fff;
      }
    </style>
  </defs>
  <g id="planet1" transform="translate(26.274 5.395) rotate(99)">
    <g id="PLANET">
      <g id="Path_1" data-name="Path 1" class="cls-1" transform="translate(0.177 0)">
        <path class="cls-8" d="M 9.568288803100586 21.97578430175781 C 6.384369373321533 21.97578430175781 3.589519262313843 19.79709434509277 2.535689115524292 18.86038589477539 C 1.171659231185913 17.64796447753906 0.1952192038297653 16.00365447998047 -0.3665007948875427 13.97311496734619 C -0.7987008094787598 12.41076469421387 -1.000000834465027 10.6412353515625 -1.000000834465027 8.404305458068848 C -1.000000834465027 4.245234966278076 1.148739218711853 2.809575080871582 3.869149208068848 0.9919649958610535 C 5.903129100799561 -0.3670350015163422 7.918379306793213 -0.9999949932098389 10.21125888824463 -0.9999949932098389 C 13.34756946563721 -0.9999949932098389 16.05473899841309 -0.05104498937726021 18.04010009765625 1.744255065917969 C 19.1580696105957 2.755204916000366 20.07819938659668 4.070205211639404 20.70101928710938 5.547084808349609 C 21.32280921936035 7.021554946899414 21.65147972106934 8.666584968566895 21.65147972106934 10.30432510375977 C 21.65147972106934 10.57565498352051 21.66582870483398 10.85336494445801 21.6810188293457 11.14737510681152 C 21.71422004699707 11.79000473022461 21.74855995178223 12.45451545715332 21.63979911804199 13.15972518920898 C 21.4074592590332 14.66663455963135 20.700439453125 16.01828575134277 20.14822959899902 16.8868350982666 C 19.17057991027832 18.42457580566406 17.58705902099609 19.72634506225586 15.5688591003418 20.65141487121582 C 13.70562934875488 21.50544548034668 11.5745792388916 21.97578430175781 9.568288803100586 21.97578430175781 Z"/>
        <path class="cls-9" d="M 10.21125030517578 5.7220458984375e-06 C 7.932610511779785 5.7220458984375e-06 6.144420623779297 0.6744251251220703 4.424699783325195 1.823455810546875 C 1.667289733886719 3.66578483581543 0 4.821634292602539 0 8.404305458068848 C 0 11.97530460357666 0.5261306762695313 15.73626518249512 3.200040817260742 18.11296463012695 C 4.917329788208008 19.63939476013184 7.277890205383301 20.97578430175781 9.568289756774902 20.97578430175781 C 13.30712032318115 20.97578430175781 17.47450065612793 19.22846412658691 19.30434989929199 16.35030555725098 C 19.9229907989502 15.37726497650146 20.46656036376953 14.20665550231934 20.65147972106934 13.00730514526367 C 20.79096031188965 12.1029052734375 20.65147972106934 11.19814491271973 20.65147972106934 10.30432510375977 C 20.65147972106934 7.224245071411133 19.42049026489258 4.340724945068359 17.36938095092773 2.48597526550293 C 15.51571083068848 0.8097553253173828 12.99623012542725 5.7220458984375e-06 10.21125030517578 5.7220458984375e-06 M 10.21125030517578 -1.999994277954102 C 13.59949016571045 -1.999994277954102 16.53858947753906 -0.9617347717285156 18.7108097076416 1.002544403076172 C 19.93641090393066 2.110815048217773 20.94322967529297 3.54792594909668 21.6224308013916 5.158505439758301 C 22.29564094543457 6.754884719848633 22.65147972106934 8.534275054931641 22.65147972106934 10.30432510375977 C 22.65147972106934 10.54983520507813 22.66518020629883 10.81502532958984 22.67968940734863 11.09578514099121 C 22.71383094787598 11.75653457641602 22.75251960754395 12.50545501708984 22.62811088562012 13.3121452331543 C 22.36936950683594 14.99027442932129 21.59564018249512 16.47409439086914 20.99212074279785 17.42335510253906 C 19.91073989868164 19.12424468994141 18.17948913574219 20.55484580993652 15.98554039001465 21.56046485900879 C 13.99435043334961 22.47314453125 11.71533012390137 22.97578430175781 9.568289756774902 22.97578430175781 C 7.084799766540527 22.97578430175781 4.279359817504883 21.74820518493652 1.871339797973633 19.6078052520752 C -1.598690032958984 16.52348518371582 -2 11.73661518096924 -2 8.404305458068848 C -2 6.262394905090332 -1.489370346069336 4.616304397583008 -0.3930206298828125 3.223955154418945 C 0.5822200775146484 1.98542594909668 1.908960342407227 1.098974227905273 3.313610076904297 0.1604843139648438 C 5.519650459289551 -1.313484191894531 7.711430549621582 -1.999994277954102 10.21125030517578 -1.999994277954102 Z"/>
      </g>
      <path id="Path_12" data-name="Path 12" class="cls-2" d="M.847,0c.587,0,1.277.468,1.277,1.055A1.4,1.4,0,0,1,.847,2.27C.26,2.27,0,1.641,0,1.055S.26,0,.847,0Z" transform="translate(17.666 11.464)"/>
      <path id="Path_13" data-name="Path 13" class="cls-2" d="M.72.02c.369,0,.7-.125.7.244S1.09,1.358.72,1.358,0,1.249,0,.879.351.02.72.02Z" transform="translate(9.001 18.583)"/>
      <path id="Path_11" data-name="Path 11" class="cls-3" d="M2.677,0C4.133,0,5.209.163,5.209.785S4.133,2.252,2.677,2.252,0,2,0,1.375,1.221,0,2.677,0Z" transform="matrix(0.485, -0.875, 0.875, 0.485, 0.63, 8.138)"/>
      <g id="Ellipse_4" data-name="Ellipse 4" class="cls-4" transform="translate(12.921 5.632)">
        <ellipse class="cls-8" cx="0.309" cy="0.433" rx="0.309" ry="0.433"/>
        <ellipse class="cls-7" cx="0.309" cy="0.433" rx="0.691" ry="0.567"/>
      </g>
      <g id="Path_17" data-name="Path 17" class="cls-5" transform="translate(18.839 11.569) rotate(59)">
        <path class="cls-8" d="M.847,0c.587,0,1.277.468,1.277,1.055A1.4,1.4,0,0,1,.847,2.27C.26,2.27,0,1.641,0,1.055S.26,0,.847,0Z"/>
        <path class="cls-9" d="M 0.8470389842987061 7.152557373046875e-07 C 1.433728933334351 7.152557373046875e-07 2.123638868331909 0.4678705930709839 2.123638868331909 1.054550647735596 C 2.123638868331909 1.641230583190918 1.433728933334351 2.269500494003296 0.8470389842987061 2.269500494003296 C 0.2603589296340942 2.269500494003296 -9.5367431640625e-07 1.641230583190918 -9.5367431640625e-07 1.054550647735596 C -9.5367431640625e-07 0.4678705930709839 0.2603589296340942 7.152557373046875e-07 0.8470389842987061 7.152557373046875e-07 Z"/>
      </g>
      <g id="Path_18" data-name="Path 18" class="cls-5" transform="matrix(0.208, -0.978, 0.978, 0.208, 8.883, 19.683)">
        <path class="cls-8" d="M.857.024c.439,0,.83-.149.83.291s-.391,1.3-.83,1.3S0,1.485,0,1.046.418.024.857.024Z"/>
        <path class="cls-9" d="M 1.342435240745544 -3.576278686523438e-06 C 1.547910213470459 -3.576278686523438e-06 1.68696391582489 0.05286204814910889 1.68696391582489 0.3149477243423462 C 1.68696391582489 0.754267692565918 1.296213865280151 1.61511766910553 0.8568938970565796 1.61511766910553 C 0.4175639152526855 1.61511766910553 3.933906555175781e-06 1.485287666320801 3.933906555175781e-06 1.045967698097229 C 3.933906555175781e-06 0.606637716293335 0.4175639152526855 0.0241776704788208 0.8568938970565796 0.0241776704788208 C 1.034134149551392 0.0241776704788208 1.203475832939148 -3.576278686523438e-06 1.342435240745544 -3.576278686523438e-06 Z"/>
      </g>
      <g id="Path_19" data-name="Path 19" class="cls-5" transform="matrix(0.485, -0.875, 0.875, 0.485, 0, 8.061)">
        <path class="cls-8" d="M2.677,0C4.133,0,5.209.168,5.209.811S4.133,2.326,2.677,2.326,0,2.062,0,1.42,1.221,0,2.677,0Z"/>
        <path class="cls-9" d="M 2.677341222763062 1.192092895507813e-06 C 4.133181571960449 1.192092895507813e-06 5.208741188049316 0.168391227722168 5.208741188049316 0.8107312917709351 C 5.208741188049316 1.453071236610413 4.133181571960449 2.326101303100586 2.677341222763062 2.326101303100586 C 1.221501350402832 2.326101303100586 1.430511474609375e-06 2.062351226806641 1.430511474609375e-06 1.420011281967163 C 1.430511474609375e-06 0.777671217918396 1.221501350402832 1.192092895507813e-06 2.677341222763062 1.192092895507813e-06 Z"/>
      </g>
      <g id="Ellipse_7" data-name="Ellipse 7" class="cls-6" transform="translate(12.802 5.24) rotate(19)">
        <ellipse class="cls-8" cx="0.557" cy="0.681" rx="0.557" ry="0.681"/>
        <ellipse class="cls-7" cx="0.557" cy="0.681" rx="0.443" ry="0.319"/>
      </g>
    </g>
    <g id="LAYERS" transform="translate(0.239 0)">
      <path id="Path_38" data-name="Path 38" class="cls-7" d="M0,12.55A11.97,11.97,0,0,0,3.285,9.986a35.886,35.886,0,0,0,2.5-2.624A25.928,25.928,0,0,0,9.278,0" transform="translate(0.248 0)"/>
      <path id="Path_39" data-name="Path 39" class="cls-7" d="M0,9.833s.085-.266.827-.624A5.529,5.529,0,0,0,3.4,7.583a12.8,12.8,0,0,0,1.625-2.2c.364-.665.488-1.553.813-2.1s.211-1.18.44-1.625A6.769,6.769,0,0,0,6.989,0" transform="translate(0 0.489)"/>
      <path id="Path_40" data-name="Path 40" class="cls-7" d="M0,15.191a11.97,11.97,0,0,0,3.285-2.564A35.886,35.886,0,0,0,5.789,10,20.725,20.725,0,0,0,8.8,5.654,18.062,18.062,0,0,0,9.949,0" transform="translate(1.238 0.083)"/>
      <path id="Path_41" data-name="Path 41" class="cls-7" d="M0,16.42s4.139-1.67,5.751-3.435a35.886,35.886,0,0,0,2.5-2.624,20.725,20.725,0,0,0,3.008-4.348A19.069,19.069,0,0,0,12.391,0" transform="translate(2.486 0.963)"/>
      <path id="Path_42" data-name="Path 42" class="cls-7" d="M0,16.467s4.761-1.718,6.372-3.483a35.886,35.886,0,0,0,2.5-2.624,20.725,20.725,0,0,0,3.008-4.348A19.069,19.069,0,0,0,13.012,0" transform="translate(3.391 3.34) rotate(-7)"/>
      <path id="Path_43" data-name="Path 43" class="cls-7" d="M0,14.309a51.632,51.632,0,0,0,5.064-4.017c.595-.6,2.475-2.885,3.112-3.677.548-.682.437-1.03,1.155-1.632.3-.251,1.559-.545,1.761-1.012A11.707,11.707,0,0,0,12.16,0" transform="translate(7.411 6.836) rotate(-7)"/>
      <path id="Path_44" data-name="Path 44" class="cls-7" d="M0,14.309a51.632,51.632,0,0,0,5.064-4.017c.595-.6,2.475-2.885,3.112-3.677.548-.682.437-1.03,1.155-1.632.3-.251,1.559-.545,1.761-1.012A11.707,11.707,0,0,0,12.16,0" transform="translate(7.411 6.836) rotate(-7)"/>
      <path id="Path_45" data-name="Path 45" class="cls-7" d="M0,7.935A34.18,34.18,0,0,0,3.941,5.856c.493-.341,2.053-1.641,2.582-2.092.455-.388.362-.586.958-.928.249-.143,1.293-.31,1.461-.576A5.029,5.029,0,0,0,9.828,0" transform="matrix(0.993, -0.122, 0.122, 0.993, 10.897, 12.926)"/>
    </g>
  </g>
</svg>
