<svg xmlns="http://www.w3.org/2000/svg" width="35.063" height="35.037" viewBox="0 0 35.063 35.037">
  <defs>
    <style>
      .cls-1, .cls-2, .cls-3, .cls-4 {
        fill: #fb0969;
      }

      .cls-2, .cls-4, .cls-5, .cls-6 {
        opacity: 0.65;
      }

      .cls-4, .cls-6 {
        stroke: #fff;
        stroke-width: 2px;
      }

      .cls-5, .cls-6, .cls-8 {
        fill: none;
      }

      .cls-10, .cls-7 {
        fill: #fff;
      }

      .cls-10, .cls-9 {
        stroke: none;
      }
    </style>
  </defs>
  <g id="planet3" transform="translate(35.665 19.324) rotate(131)">
    <g id="PLANET">
      <g id="Path_1" data-name="Path 1" class="cls-1" transform="translate(0.177 4.382)">
        <path class="cls-9" d="M 9.56829833984375 21.97578620910645 C 6.384398937225342 21.97578620910645 3.589538812637329 19.79709625244141 2.535698652267456 18.86038589477539 C 1.171668767929077 17.6479663848877 0.1952287405729294 16.00364685058594 -0.3664912581443787 13.97311592102051 C -0.7986912727355957 12.41075611114502 -0.999991238117218 10.64122581481934 -0.999991238117218 8.404295921325684 C -1.000001311302185 4.245245933532715 1.148748755455017 2.809586048126221 3.869158744812012 0.9919659495353699 C 5.903138637542725 -0.3670340478420258 7.918388843536377 -0.9999940395355225 10.21125888824463 -0.9999940395355225 C 13.34756851196289 -0.9999940395355225 16.05473899841309 -0.0510440357029438 18.04010963439941 1.744265913963318 C 19.15807914733887 2.755215883255005 20.07820892333984 4.070206165313721 20.70102882385254 5.547085762023926 C 21.32282829284668 7.02155590057373 21.65149879455566 8.666585922241211 21.65149879455566 10.30432605743408 C 21.65149879455566 10.57565593719482 21.66584968566895 10.85336589813232 21.68103790283203 11.147385597229 C 21.7142391204834 11.79001617431641 21.74857902526855 12.45451641082764 21.63981819152832 13.1597261428833 C 21.4074592590332 14.66665554046631 20.70044898986816 16.01830673217773 20.14824867248535 16.8868350982666 C 19.17059898376465 18.42457580566406 17.58707809448242 19.72634506225586 15.56887912750244 20.65141677856445 C 13.70563888549805 21.50544548034668 11.57459831237793 21.97578620910645 9.56829833984375 21.97578620910645 Z"/>
        <path class="cls-10" d="M 10.21125888824463 5.7220458984375e-06 C 7.932608604431152 5.7220458984375e-06 6.144429206848145 0.6744251251220703 4.424697875976563 1.823455810546875 C 1.667299270629883 3.665775299072266 -1.9073486328125e-06 4.821636199951172 9.5367431640625e-06 8.404295921325684 C 9.5367431640625e-06 11.97530555725098 0.5261383056640625 15.73625564575195 3.200048446655273 18.11296653747559 C 4.917338371276855 19.63938522338867 7.277908325195313 20.97578620910645 9.56829833984375 20.97578620910645 C 13.30713844299316 20.97578620910645 17.47451782226563 19.22846603393555 19.30436897277832 16.35030555725098 C 19.92300796508789 15.37726593017578 20.46656799316406 14.20665550231934 20.65149879455566 13.00730609893799 C 20.79096794128418 12.10291576385498 20.65149879455566 11.19814586639404 20.65149879455566 10.30432605743408 C 20.65149879455566 7.224246025085449 19.42049789428711 4.340736389160156 17.36939811706543 2.485986709594727 C 15.51571846008301 0.8097553253173828 12.99622917175293 5.7220458984375e-06 10.21125888824463 5.7220458984375e-06 M 10.21125888824463 -1.999994277954102 C 13.5994987487793 -1.999994277954102 16.53859901428223 -0.9617347717285156 18.71082878112793 1.002555847167969 C 19.93642807006836 2.11082649230957 20.9432487487793 3.547935485839844 21.6224479675293 5.158515930175781 C 22.29565811157227 6.754885673522949 22.65149879455566 8.534285545349121 22.65149879455566 10.30432605743408 C 22.65149879455566 10.54984569549561 22.66519927978516 10.81503582000732 22.67970848083496 11.09579563140869 C 22.71383857727051 11.75654602050781 22.75252914428711 12.50545597076416 22.62812805175781 13.31213569641113 C 22.36936950683594 14.99030590057373 21.59564971923828 16.4741153717041 20.99213790893555 17.42335510253906 C 19.91075897216797 19.12424659729004 18.17950820922852 20.55484580993652 15.98555850982666 21.56046676635742 C 13.99436855316162 22.47314643859863 11.71533870697021 22.97578620910645 9.56829833984375 22.97578620910645 C 7.084818840026855 22.97578620910645 4.279388427734375 21.74820518493652 1.871349334716797 19.6078052520752 C -1.59868049621582 16.52346611022949 -1.999990463256836 11.73660564422607 -1.999990463256836 8.404295921325684 C -2.000001907348633 6.262395858764648 -1.489370346069336 4.616306304931641 -0.3930110931396484 3.223955154418945 C 0.5822296142578125 1.985416412353516 1.908967971801758 1.098976135253906 3.313608169555664 0.1604862213134766 C 5.519668579101563 -1.313484191894531 7.711448669433594 -1.999994277954102 10.21125888824463 -1.999994277954102 Z"/>
      </g>
      <path id="Path_12" data-name="Path 12" class="cls-2" d="M.847,0c.587,0,1.277.468,1.277,1.055A1.4,1.4,0,0,1,.847,2.27C.26,2.27,0,1.641,0,1.055S.26,0,.847,0Z" transform="translate(17.666 15.846)"/>
      <path id="Path_13" data-name="Path 13" class="cls-2" d="M.72.02c.369,0,.7-.125.7.244S1.09,1.358.72,1.358,0,1.249,0,.879.351.02.72.02Z" transform="translate(9.001 22.966)"/>
      <path id="Path_11" data-name="Path 11" class="cls-3" d="M2.677,0C4.133,0,5.209.163,5.209.785S4.133,2.252,2.677,2.252,0,2,0,1.375,1.221,0,2.677,0Z" transform="matrix(0.485, -0.875, 0.875, 0.485, 0.63, 12.521)"/>
      <g id="Ellipse_4" data-name="Ellipse 4" class="cls-4" transform="translate(12.921 10.015)">
        <ellipse class="cls-9" cx="0.309" cy="0.433" rx="0.309" ry="0.433"/>
        <ellipse class="cls-8" cx="0.309" cy="0.433" rx="0.691" ry="0.567"/>
      </g>
      <g id="Path_17" data-name="Path 17" class="cls-5" transform="translate(18.839 15.951) rotate(59)">
        <path class="cls-9" d="M.847,0c.587,0,1.277.468,1.277,1.055A1.4,1.4,0,0,1,.847,2.27C.26,2.27,0,1.641,0,1.055S.26,0,.847,0Z"/>
        <path class="cls-10" d="M 0.8470383882522583 0 C 1.433728337287903 0 2.123638391494751 0.4678699970245361 2.123638391494751 1.054550051689148 C 2.123638391494751 1.64122998714447 1.433728337287903 2.269500017166138 0.8470383882522583 2.269500017166138 C 0.2603583335876465 2.269500017166138 -1.668930053710938e-06 1.64122998714447 -1.668930053710938e-06 1.054550051689148 C -1.668930053710938e-06 0.4678699970245361 0.2603583335876465 0 0.8470383882522583 0 Z"/>
      </g>
      <g id="Path_18" data-name="Path 18" class="cls-5" transform="matrix(0.208, -0.978, 0.978, 0.208, 8.883, 24.065)">
        <path class="cls-9" d="M.857.024c.439,0,.83-.149.83.291s-.391,1.3-.83,1.3S0,1.485,0,1.046.418.024.857.024Z"/>
        <path class="cls-10" d="M 1.342434644699097 -3.337860107421875e-06 C 1.547909617424011 -3.337860107421875e-06 1.686963319778442 0.05286228656768799 1.686963319778442 0.3149479627609253 C 1.686963319778442 0.7542679309844971 1.296213388442993 1.615117907524109 0.8568933010101318 1.615117907524109 C 0.4175633192062378 1.615117907524109 3.337860107421875e-06 1.48528790473938 3.337860107421875e-06 1.045967936515808 C 3.337860107421875e-06 0.6066379547119141 0.4175633192062378 0.0241779088973999 0.8568933010101318 0.0241779088973999 C 1.034133672714233 0.0241779088973999 1.2034752368927 -3.337860107421875e-06 1.342434644699097 -3.337860107421875e-06 Z"/>
      </g>
      <g id="Path_19" data-name="Path 19" class="cls-5" transform="matrix(0.485, -0.875, 0.875, 0.485, 0, 12.443)">
        <path class="cls-9" d="M2.677,0C4.133,0,5.209.168,5.209.811S4.133,2.326,2.677,2.326,0,2.062,0,1.42,1.221,0,2.677,0Z"/>
        <path class="cls-10" d="M 2.677340030670166 2.622604370117188e-06 C 4.133180141448975 2.622604370117188e-06 5.208740234375 0.1683926582336426 5.208740234375 0.8107326030731201 C 5.208740234375 1.453072547912598 4.133180141448975 2.326102495193481 2.677340030670166 2.326102495193481 C 1.221500158309937 2.326102495193481 0 2.062352657318115 0 1.420012474060059 C 0 0.7776725292205811 1.221500158309937 2.622604370117188e-06 2.677340030670166 2.622604370117188e-06 Z"/>
      </g>
      <g id="Ellipse_7" data-name="Ellipse 7" class="cls-6" transform="translate(12.802 9.623) rotate(19)">
        <ellipse class="cls-9" cx="0.557" cy="0.681" rx="0.557" ry="0.681"/>
        <ellipse class="cls-8" cx="0.557" cy="0.681" rx="0.443" ry="0.319"/>
      </g>
      <path id="Path_78" data-name="Path 78" class="cls-7" d="M14.8,1.071A82.527,82.527,0,0,1,27.049.888S26.4-.194,26.9.031c.217.095,2.438.755,2.613.878,1.1.779-1.133,1.541-2.267,1.64a6.961,6.961,0,0,1-1.291.059A98.345,98.345,0,0,0,14.8,3.349a58.657,58.657,0,0,1-9.876.606,14.875,14.875,0,0,1-2.815-.606C.184,2.843-.256,2.213.125,1.643s2.06-.712,3.508-.572-.767.956,1.291.992C7.373,2.105,9.573,1.523,14.8,1.071Z" transform="translate(10.357 30.073) rotate(-99)"/>
    </g>
    <g id="LAYERS" transform="translate(0.239 4.382)">
      <path id="Path_38" data-name="Path 38" class="cls-8" d="M0,12.55A11.97,11.97,0,0,0,3.285,9.986a35.886,35.886,0,0,0,2.5-2.624A25.928,25.928,0,0,0,9.278,0" transform="translate(0.248 0)"/>
      <path id="Path_39" data-name="Path 39" class="cls-8" d="M0,9.833s.085-.266.827-.624A5.529,5.529,0,0,0,3.4,7.583a12.8,12.8,0,0,0,1.625-2.2c.364-.665.488-1.553.813-2.1s.211-1.18.44-1.625A6.769,6.769,0,0,0,6.989,0" transform="translate(0 0.489)"/>
      <path id="Path_40" data-name="Path 40" class="cls-8" d="M0,15.191a11.97,11.97,0,0,0,3.285-2.564A35.886,35.886,0,0,0,5.789,10,20.725,20.725,0,0,0,8.8,5.654,18.062,18.062,0,0,0,9.949,0" transform="translate(1.238 0.083)"/>
      <path id="Path_41" data-name="Path 41" class="cls-8" d="M0,16.42s4.139-1.67,5.751-3.435a35.886,35.886,0,0,0,2.5-2.624,20.725,20.725,0,0,0,3.008-4.348A19.069,19.069,0,0,0,12.391,0" transform="translate(2.486 0.963)"/>
      <path id="Path_42" data-name="Path 42" class="cls-8" d="M0,16.467s4.761-1.718,6.372-3.483a35.886,35.886,0,0,0,2.5-2.624,20.725,20.725,0,0,0,3.008-4.348A19.069,19.069,0,0,0,13.012,0" transform="translate(3.391 3.34) rotate(-7)"/>
      <path id="Path_43" data-name="Path 43" class="cls-8" d="M0,14.309a51.632,51.632,0,0,0,5.064-4.017c.595-.6,2.475-2.885,3.112-3.677.548-.682.437-1.03,1.155-1.632.3-.251,1.559-.545,1.761-1.012A11.707,11.707,0,0,0,12.16,0" transform="translate(7.411 6.836) rotate(-7)"/>
      <path id="Path_44" data-name="Path 44" class="cls-8" d="M0,14.309a51.632,51.632,0,0,0,5.064-4.017c.595-.6,2.475-2.885,3.112-3.677.548-.682.437-1.03,1.155-1.632.3-.251,1.559-.545,1.761-1.012A11.707,11.707,0,0,0,12.16,0" transform="translate(7.411 6.836) rotate(-7)"/>
      <path id="Path_45" data-name="Path 45" class="cls-8" d="M0,7.935A34.18,34.18,0,0,0,3.941,5.856c.493-.341,2.053-1.641,2.582-2.092.455-.388.362-.586.958-.928.249-.143,1.293-.31,1.461-.576A5.029,5.029,0,0,0,9.828,0" transform="matrix(0.993, -0.122, 0.122, 0.993, 10.897, 12.926)"/>
    </g>
  </g>
</svg>
