<svg xmlns="http://www.w3.org/2000/svg" width="40.165" height="41.126" viewBox="0 0 40.165 41.126">
  <defs>
    <style>
      .cls-1, .cls-2, .cls-3 {
        fill: #1ad1ca;
      }

      .cls-2, .cls-4, .cls-5 {
        opacity: 0.65;
      }

      .cls-4, .cls-5, .cls-6 {
        fill: none;
      }

      .cls-5 {
        stroke: #fff;
        stroke-width: 2px;
      }

      .cls-7, .cls-8 {
        stroke: none;
      }

      .cls-8 {
        fill: #fff;
      }
    </style>
  </defs>
  <g id="planet2" transform="translate(7.818 2.317) rotate(10)">
    <g id="PLANET" transform="translate(0 0)">
      <g id="Path_1" data-name="Path 1" class="cls-1" transform="translate(0 0)">
        <path class="cls-7" d="M 14.08642864227295 32.67861175537109 C 9.554569244384766 32.67861175537109 5.549078941345215 29.47244262695313 4.037308692932129 28.09397125244141 C 2.074388742446899 26.30415153503418 0.7255887985229492 23.97078132629395 -0.08616121858358383 20.96056175231934 C -0.7096211910247803 18.64858245849609 -1.000001192092896 16.02137184143066 -1.000001192092896 12.69256210327148 C -1.000001192092896 6.691681861877441 1.914658784866333 4.693962097167969 5.948698997497559 1.929012060165405 C 8.864158630371094 -0.06928793340921402 11.75076866149902 -1.0000079870224 15.03301906585693 -1.0000079870224 C 19.53611946105957 -1.0000079870224 23.41533851623535 0.390542060136795 26.25130844116211 3.021301984786987 C 27.84419822692871 4.498921871185303 29.15583801269531 6.422492027282715 30.0444393157959 8.584072113037109 C 30.93329811096191 10.74629211425781 31.40312957763672 13.15924167633057 31.40312957763672 15.56205177307129 C 31.40312957763672 15.98565196990967 31.42458915710449 16.41177177429199 31.44730949401855 16.86291122436523 C 31.49483871459961 17.80645179748535 31.54396820068359 18.78211212158203 31.39201927185059 19.79289245605469 C 31.06355857849121 21.97817230224609 30.05668830871582 23.95023155212402 29.26986885070801 25.21977233886719 C 27.88109970092773 27.46060180664063 25.62053871154785 29.36282157897949 22.73256874084473 30.72077178955078 C 20.04751968383789 31.98330116271973 16.9769287109375 32.67861175537109 14.08642864227295 32.67861175537109 Z"/>
        <path class="cls-8" d="M 15.03301906585693 -7.62939453125e-06 C 11.67838859558105 -7.62939453125e-06 9.045818328857422 1.018531799316406 6.5140380859375 2.753862380981445 C 2.454587936401367 5.536231994628906 -1.9073486328125e-06 7.281862258911133 -1.9073486328125e-06 12.69256210327148 C -1.1444091796875e-05 18.08567237854004 0.7745590209960938 23.7656421661377 4.711088180541992 27.35504150390625 C 7.239288330078125 29.66031265258789 10.71450805664063 31.67861175537109 14.08642959594727 31.67861175537109 C 19.59074020385742 31.67861175537109 25.7259693145752 29.03971099853516 28.41986846923828 24.69297218322754 C 29.33063888549805 23.22345161437988 30.13087844848633 21.45554161071777 30.40312957763672 19.64422225952148 C 30.60845947265625 18.27836227416992 30.40312957763672 16.91195297241211 30.40312957763672 15.56205177307129 C 30.40312957763672 10.91038131713867 28.59085845947266 6.555551528930664 25.57121849060059 3.754421234130859 C 22.84224891662598 1.222911834716797 19.13304901123047 -7.62939453125e-06 15.03301906585693 -7.62939453125e-06 M 15.03301906585693 -2.000007629394531 C 19.79283905029297 -2.000007629394531 23.90722846984863 -0.5171890258789063 26.93138885498047 2.288152694702148 C 28.62973785400391 3.863611221313477 30.02604866027832 5.909231185913086 30.96933937072754 8.203851699829102 C 31.90732955932617 10.4856014251709 32.40312957763672 13.03002166748047 32.40312957763672 15.56205177307129 C 32.40312957763672 15.96049213409424 32.42398071289063 16.3744010925293 32.44604873657227 16.81261253356934 C 32.49370956420898 17.75906181335449 32.54773712158203 18.83178329467773 32.38090896606445 19.94154167175293 C 32.02718734741211 22.29490280151367 30.95608901977539 24.39730262756348 30.11984825134277 25.74657249450684 C 28.62891960144043 28.15225219726563 26.22157859802246 30.18524169921875 23.15807914733887 31.62572288513184 C 20.34267807006836 32.94955062866211 17.12096786499023 33.67861175537109 14.08642959594727 33.67861175537109 C 12.20063972473145 33.67861175537109 10.21923828125 33.17265319824219 8.197257995605469 32.1747932434082 C 6.530717849731445 31.35233116149902 4.859249114990234 30.19673156738281 3.36353874206543 28.83291244506836 C 1.28472900390625 26.93742179870605 -0.2007617950439453 24.37638092041016 -1.051681518554688 21.22092247009277 C -1.698671340942383 18.82168197631836 -2.000009536743164 16.11173248291016 -2.000001907348633 12.69256210327148 C -2.000001907348633 9.708391189575195 -1.317390441894531 7.429201126098633 0.1482086181640625 5.519811630249023 C 1.488468170166016 3.773721694946289 3.380359649658203 2.477012634277344 5.383329391479492 1.104162216186523 C 8.473119735717773 -1.013626098632813 11.53937911987305 -2.000007629394531 15.03301906585693 -2.000007629394531 Z"/>
      </g>
      <path id="Path_12" data-name="Path 12" class="cls-2" d="M1.505,0C2.548,0,3.774.831,3.774,1.874A2.494,2.494,0,0,1,1.505,4.033C.463,4.033,0,2.917,0,1.874S.463,0,1.505,0Z" transform="translate(24.765 16.237)"/>
      <path id="Path_13" data-name="Path 13" class="cls-2" d="M1.28.036c.656,0,1.24-.222,1.24.434S1.937,2.413,1.28,2.413,0,2.219,0,1.563.624.036,1.28.036Z" transform="translate(13.828 25.985)"/>
      <path id="Path_11" data-name="Path 11" class="cls-3" d="M2.547,0C3.933,0,4.956.29,4.956,1.395A2.706,2.706,0,0,1,2.547,4C1.162,4,0,3.548,0,2.443A2.689,2.689,0,0,1,2.547,0Z" transform="matrix(0.485, -0.875, 0.875, 0.485, 5.397, 9.32)"/>
      <ellipse id="Ellipse_4" data-name="Ellipse 4" class="cls-2" cx="0.55" cy="0.77" rx="0.55" ry="0.77" transform="translate(19.348 8.114)"/>
      <g id="Path_17" data-name="Path 17" class="cls-4" transform="translate(26.849 16.227) rotate(59)">
        <path class="cls-7" d="M1.505,0C2.548,0,3.774.831,3.774,1.874A2.494,2.494,0,0,1,1.505,4.033C.463,4.033,0,2.917,0,1.874S.463,0,1.505,0Z"/>
        <path class="cls-8" d="M 1.505252122879028 4.76837158203125e-07 C 2.547842025756836 4.76837158203125e-07 3.77386212348938 0.8314402103424072 3.77386212348938 1.874020338058472 C 3.77386212348938 2.916600227355957 2.547832012176514 4.033080101013184 1.505252122879028 4.033080101013184 C 0.4626719951629639 4.033080101013184 1.9073486328125e-06 2.916600227355957 1.9073486328125e-06 1.874020338058472 C 1.9073486328125e-06 0.8314402103424072 0.4626719951629639 4.76837158203125e-07 1.505252122879028 4.76837158203125e-07 Z"/>
      </g>
      <g id="Path_18" data-name="Path 18" class="cls-4" transform="matrix(0.208, -0.978, 0.978, 0.208, 13.559, 27.939)">
        <path class="cls-7" d="M1.523.043C2.3.043,3-.221,3,.56S2.3,2.87,1.523,2.87,0,2.639,0,1.859.742.043,1.523.043Z"/>
        <path class="cls-8" d="M 2.385607242584229 -3.337860107421875e-06 C 2.750754356384277 -3.337860107421875e-06 2.997864961624146 0.09394335746765137 2.997864961624146 0.5596878528594971 C 2.997874975204468 1.340397953987122 2.303474903106689 2.870187997817993 1.522755026817322 2.870187997817993 C 0.7420449256896973 2.870177984237671 5.006790161132813e-06 2.639477968215942 -5.006790161132813e-06 1.858757972717285 C -5.006790161132813e-06 1.078047871589661 0.7420449256896973 0.0429680347442627 1.522755026817322 0.0429680347442627 C 1.837730526924133 0.0429680347442627 2.138664245605469 -3.337860107421875e-06 2.385607242584229 -3.337860107421875e-06 Z"/>
      </g>
      <g id="Path_19" data-name="Path 19" class="cls-4" transform="matrix(0.485, -0.875, 0.875, 0.485, 3.964, 9.752)">
        <path class="cls-7" d="M2.88,0C4.447,0,5.6.3,5.6,1.441A2.908,2.908,0,0,1,2.88,4.134C1.314,4.134,0,3.665,0,2.523A2.926,2.926,0,0,1,2.88,0Z"/>
        <path class="cls-8" d="M 2.880423069000244 1.999995708465576 L 2.880433082580566 1.999995708465576 C 2.732882499694824 1.999995708465576 2.590017557144165 2.047573089599609 2.463403701782227 2.117532253265381 C 2.586236476898193 2.127575159072876 2.725054264068604 2.133675575256348 2.880443096160889 2.133675575256348 C 2.987175941467285 2.133675575256348 3.097797155380249 2.082497596740723 3.199567079544067 2.005691766738892 C 3.103765249252319 2.002081394195557 2.997660398483276 1.999996900558472 2.880423069000244 1.999995708465576 M 2.880433082580566 -4.291534423828125e-06 C 4.446712970733643 5.7220458984375e-06 5.60386323928833 0.2992556095123291 5.60386323928833 1.440735578536987 C 5.60386323928833 2.582225799560547 4.446722984313965 4.133675575256348 2.880443096160889 4.133675575256348 C 1.314163208007813 4.133665561676025 2.86102294921875e-06 3.664945602416992 2.86102294921875e-06 2.523465633392334 C 2.86102294921875e-06 1.381985664367676 1.31415319442749 -4.291534423828125e-06 2.880433082580566 -4.291534423828125e-06 Z"/>
      </g>
      <g id="Ellipse_7" data-name="Ellipse 7" class="cls-5" transform="translate(19.13 7.481) rotate(19)">
        <ellipse class="cls-7" cx="0.99" cy="1.21" rx="0.99" ry="1.21"/>
        <ellipse class="cls-6" cx="0.99" cy="1.21" rx="0.01" ry="0.21"/>
      </g>
    </g>
    <g id="LAYERS" transform="translate(2.619 0)">
      <path id="Path_38" data-name="Path 38" class="cls-6" d="M0,22.3a21.272,21.272,0,0,0,5.838-4.557,63.772,63.772,0,0,0,4.45-4.663A46.077,46.077,0,0,0,16.488,0" transform="translate(0.44 0)"/>
      <path id="Path_39" data-name="Path 39" class="cls-6" d="M0,17.474S.15,17,1.47,16.364c.977-.471,2.953-.858,4.572-2.888A22.75,22.75,0,0,0,8.93,9.566c.647-1.181.868-2.76,1.444-3.73s.376-2.1.782-2.888A12.029,12.029,0,0,0,12.419,0" transform="translate(0 0.869)"/>
      <path id="Path_40" data-name="Path 40" class="cls-6" d="M0,26.995a21.272,21.272,0,0,0,5.838-4.557,63.772,63.772,0,0,0,4.45-4.663c1.533-2.074,4.152-4.736,5.346-7.728A32.1,32.1,0,0,0,17.68,0" transform="translate(2.2 0.147)"/>
      <path id="Path_41" data-name="Path 41" class="cls-6" d="M0,29.179s7.356-2.968,10.219-6.105a63.772,63.772,0,0,0,4.45-4.663c1.533-2.074,4.152-4.736,5.346-7.728A33.888,33.888,0,0,0,22.019,0" transform="translate(4.418 1.17)"/>
      <path id="Path_42" data-name="Path 42" class="cls-6" d="M0,23.063S5.7,20.575,7.659,18.1c.772-.976,2.21-2.4,3.04-3.686,1.054-1.633,2.841-3.738,3.681-6.08A30.746,30.746,0,0,0,15.864,0" transform="translate(5.595 5.051) rotate(-7)"/>
      <path id="Path_43" data-name="Path 43" class="cls-6" d="M0,25.429A91.755,91.755,0,0,0,9,18.29c1.057-1.065,4.4-5.126,5.53-6.534.974-1.212.776-1.831,2.053-2.9.534-.447,2.77-.968,3.13-1.8A20.8,20.8,0,0,0,21.61,0" transform="translate(4.348 5.109) rotate(-7)"/>
      <path id="Path_44" data-name="Path 44" class="cls-6" d="M0,25.429A91.755,91.755,0,0,0,9,18.29c1.057-1.065,4.4-5.126,5.53-6.534.974-1.212.776-1.831,2.053-2.9.534-.447,2.77-.968,3.13-1.8A20.8,20.8,0,0,0,21.61,0" transform="translate(4.348 5.109) rotate(-7)"/>
      <path id="Path_45" data-name="Path 45" class="cls-6" d="M0,14.1a60.74,60.74,0,0,0,7-3.694C7.88,9.8,10.652,7.49,11.591,6.689c.808-.689.644-1.042,1.7-1.65.443-.254,2.3-.551,2.6-1.023A8.937,8.937,0,0,0,17.464,0" transform="matrix(0.993, -0.122, 0.122, 0.993, 10.542, 15.932)"/>
    </g>
  </g>
</svg>
