<svg xmlns="http://www.w3.org/2000/svg" width="340.628" height="612.92" viewBox="0 0 340.628 612.92">
  <g id="all_stars" data-name="all stars" transform="translate(-12.856 -35.52)">
    <g id="STARS" transform="translate(349.106 36.631) rotate(90)">
      <g id="Path_58" data-name="Path 58" transform="translate(481.9 237.231) rotate(-66)" fill="#4dd8d3">
        <path d="M.24.158c.478-.471,1.6,2,3.386,2S7.1-.414,7.489.058,5.2,1.9,5.2,3.746s2.731,3.315,2.287,3.7S5.5,5.3,3.712,5.3.471,7.625.05,7.236s1.977-1.642,1.977-3.49S-.238.63.24.158Z" stroke="none"/>
        <path d="M 7.364967346191406 1.9073486328125e-06 C 7.414991855621338 -8.106231689453125e-06 7.456536293029785 0.01807689666748047 7.488976001739502 0.05756711959838867 C 7.876075744628906 0.5287971496582031 5.202296257019043 1.89752721786499 5.202296257019043 3.745587110519409 C 5.202296257019043 5.593647003173828 7.933005809783936 7.061047077178955 7.488976001739502 7.449817180633545 C 7.45740270614624 7.477460861206055 7.420187473297119 7.490320682525635 7.377771377563477 7.490320682525635 C 6.823673725128174 7.490320682525635 5.370978355407715 5.300647258758545 3.7119460105896 5.300647258758545 C 2.063805103302002 5.300647258758545 0.6975054740905762 7.279661655426025 0.1653375625610352 7.279661655426025 C 0.1208114624023438 7.279661655426025 0.08216047286987305 7.265823841094971 0.04963588714599609 7.235807418823242 C -0.3716139793395996 6.847047328948975 2.026936054229736 5.593647003173828 2.026936054229736 3.745587110519409 C 2.026936054229736 1.89752721786499 -0.2378239631652832 0.6296272277832031 0.2403559684753418 0.1583971977233887 C 0.2818875312805176 0.117469310760498 0.3283400535583496 0.09875726699829102 0.3795924186706543 0.09875726699829102 C 0.9184446334838867 0.09875726699829102 1.99525785446167 2.163156986236572 3.626165866851807 2.163156986236572 C 5.262524604797363 2.163156986236572 6.818047046661377 0.00011444091796875 7.364967346191406 1.9073486328125e-06 Z" stroke="none" fill="#4dd8d3"/>
      </g>
      <g id="Path_59" data-name="Path 59" transform="translate(444.045 335.201) rotate(-79)" fill="#4dd8d3">
        <path d="M.166.109C.5-.216,1.268,1.491,2.5,1.491S4.895-.285,5.161.04,3.585,1.308,3.585,2.582,5.468,4.867,5.161,5.135s-1.372-1.481-2.6-1.481S.325,5.255.034,4.987,1.4,3.855,1.4,2.582-.164.434.166.109Z" stroke="none"/>
        <path d="M 5.076026439666748 -1.430511474609375e-06 C 5.110504150390625 -9.5367431640625e-06 5.139132976531982 0.01245403289794922 5.161490440368652 0.03966999053955078 C 5.428290367126465 0.3644499778747559 3.585490465164185 1.307800054550171 3.585490465164185 2.581500053405762 C 3.585490465164185 3.855210065841675 5.467520713806152 4.866559982299805 5.161490440368652 5.134500026702881 C 5.139729976654053 5.153552055358887 5.114081859588623 5.16241455078125 5.084848403930664 5.16241455078125 C 4.702958106994629 5.16241455078125 3.701741933822632 3.65327000617981 2.558310508728027 3.65327000617981 C 1.422401428222656 3.65327000617981 0.4807281494140625 5.017234325408936 0.1139516830444336 5.017234325408936 C 0.08326387405395508 5.017234325408936 0.05662679672241211 5.007697582244873 0.0342106819152832 4.98701000213623 C -0.2561197280883789 4.719069957733154 1.396990537643433 3.855210065841675 1.396990537643433 2.581500053405762 C 1.396990537643433 1.307800054550171 -0.1639094352722168 0.4339399337768555 0.1656603813171387 0.1091699600219727 C 0.1942844390869141 0.08096170425415039 0.2263016700744629 0.06806468963623047 0.2616252899169922 0.06806468963623047 C 0.6330089569091797 0.06806468963623047 1.375153064727783 1.490869998931885 2.499200582504272 1.490869998931885 C 3.626995325088501 1.490869998931885 4.699085235595703 8.535385131835938e-05 5.076026439666748 -1.430511474609375e-06 Z" stroke="none" fill="#4dd8d3"/>
      </g>
      <g id="Path_60" data-name="Path 60" transform="matrix(0.602, -0.799, 0.799, 0.602, 263.554, 261.722)" fill="#4dd8d3">
        <path d="M.144.1c.287-.283.961,1.2,2.033,1.2S4.265-.248,4.5.035,3.124,1.14,3.124,2.25,4.764,4.241,4.5,4.474,3.3,3.183,2.229,3.183.283,4.579.03,4.346s1.188-.986,1.188-2.1S-.143.378.144.1Z" stroke="none"/>
        <path d="M 4.4232177734375 0 C 4.453261375427246 -6.67572021484375e-06 4.478209972381592 0.01085424423217773 4.497692108154297 0.03457069396972656 C 4.73018217086792 0.3175806999206543 3.124372243881226 1.139611005783081 3.124372243881226 2.249511003494263 C 3.124372243881226 3.359410762786865 4.7643723487854 4.2406907081604 4.497692108154297 4.474180698394775 C 4.478730201721191 4.490782737731934 4.456381320953369 4.498505115509033 4.430907726287842 4.498505115509033 C 4.098132133483887 4.498505115509033 3.225671291351318 3.183440923690796 2.229302167892456 3.183440923690796 C 1.239470958709717 3.183440923690796 0.4189028739929199 4.371987819671631 0.09929752349853516 4.371987819671631 C 0.07255649566650391 4.371987819671631 0.04934549331665039 4.363677978515625 0.02981233596801758 4.345651149749756 C -0.2231879234313965 4.112171173095703 1.217322111129761 3.359410762786865 1.217322111129761 2.249511003494263 C 1.217322111129761 1.139611005783081 -0.1428279876708984 0.378140926361084 0.1443524360656738 0.09513092041015625 C 0.1692948341369629 0.07055044174194336 0.1971931457519531 0.05931234359741211 0.2279739379882813 0.05931234359741211 C 0.5515933036804199 0.05931234359741211 1.198304176330566 1.299140930175781 2.177782297134399 1.299140930175781 C 3.160542726516724 1.299140930175781 4.094753265380859 7.104873657226563e-05 4.4232177734375 0 Z" stroke="none" fill="#4dd8d3"/>
      </g>
      <g id="Path_61" data-name="Path 61" transform="matrix(0.602, -0.799, 0.799, 0.602, 481.413, 96.925)" fill="#4dd8d3">
        <path d="M.144.1c.287-.283.961,1.2,2.033,1.2S4.265-.248,4.5.035,3.124,1.14,3.124,2.25,4.764,4.241,4.5,4.474,3.3,3.183,2.229,3.183.283,4.579.03,4.346s1.188-.986,1.188-2.1S-.143.378.144.1Z" stroke="none"/>
        <path d="M 4.4232177734375 0 C 4.453261375427246 -6.67572021484375e-06 4.478209972381592 0.01085424423217773 4.497692108154297 0.03457069396972656 C 4.73018217086792 0.3175806999206543 3.124372243881226 1.139611005783081 3.124372243881226 2.249511003494263 C 3.124372243881226 3.359410762786865 4.7643723487854 4.2406907081604 4.497692108154297 4.474180698394775 C 4.478730201721191 4.490782737731934 4.456381320953369 4.498505115509033 4.430907726287842 4.498505115509033 C 4.098132133483887 4.498505115509033 3.225671291351318 3.183440923690796 2.229302167892456 3.183440923690796 C 1.239470958709717 3.183440923690796 0.4189028739929199 4.371987819671631 0.09929752349853516 4.371987819671631 C 0.07255649566650391 4.371987819671631 0.04934549331665039 4.363677978515625 0.02981233596801758 4.345651149749756 C -0.2231879234313965 4.112171173095703 1.217322111129761 3.359410762786865 1.217322111129761 2.249511003494263 C 1.217322111129761 1.139611005783081 -0.1428279876708984 0.378140926361084 0.1443524360656738 0.09513092041015625 C 0.1692948341369629 0.07055044174194336 0.1971931457519531 0.05931234359741211 0.2279739379882813 0.05931234359741211 C 0.5515933036804199 0.05931234359741211 1.198304176330566 1.299140930175781 2.177782297134399 1.299140930175781 C 3.160542726516724 1.299140930175781 4.094753265380859 7.104873657226563e-05 4.4232177734375 0 Z" stroke="none" fill="#4dd8d3"/>
      </g>
      <g id="Path_63" data-name="Path 63" transform="translate(399.594 49.968) rotate(-66)" fill="#4dd8d3">
        <path d="M.24.158c.478-.471,1.6,2,3.386,2S7.1-.414,7.489.058,5.2,1.9,5.2,3.746s2.731,3.315,2.287,3.7S5.5,5.3,3.712,5.3.471,7.625.05,7.236s1.977-1.642,1.977-3.49S-.238.63.24.158Z" stroke="none"/>
        <path d="M 7.364967346191406 1.9073486328125e-06 C 7.414991855621338 -8.106231689453125e-06 7.456536293029785 0.01807689666748047 7.488976001739502 0.05756711959838867 C 7.876075744628906 0.5287971496582031 5.202296257019043 1.89752721786499 5.202296257019043 3.745587110519409 C 5.202296257019043 5.593647003173828 7.933005809783936 7.061047077178955 7.488976001739502 7.449817180633545 C 7.45740270614624 7.477460861206055 7.420187473297119 7.490320682525635 7.377771377563477 7.490320682525635 C 6.823673725128174 7.490320682525635 5.370978355407715 5.300647258758545 3.7119460105896 5.300647258758545 C 2.063805103302002 5.300647258758545 0.6975054740905762 7.279661655426025 0.1653375625610352 7.279661655426025 C 0.1208114624023438 7.279661655426025 0.08216047286987305 7.265823841094971 0.04963588714599609 7.235807418823242 C -0.3716139793395996 6.847047328948975 2.026936054229736 5.593647003173828 2.026936054229736 3.745587110519409 C 2.026936054229736 1.89752721786499 -0.2378239631652832 0.6296272277832031 0.2403559684753418 0.1583971977233887 C 0.2818875312805176 0.117469310760498 0.3283400535583496 0.09875726699829102 0.3795924186706543 0.09875726699829102 C 0.9184446334838867 0.09875726699829102 1.99525785446167 2.163156986236572 3.626165866851807 2.163156986236572 C 5.262524604797363 2.163156986236572 6.818047046661377 0.00011444091796875 7.364967346191406 1.9073486328125e-06 Z" stroke="none" fill="#4dd8d3"/>
      </g>
      <g id="Path_65" data-name="Path 65" transform="translate(542.736 308.611) rotate(-66)" fill="#4dd8d3">
        <path d="M.186.111C.556-.22,1.425,1.519,2.808,1.519S5.5-.29,5.8.04s-1.77,1.292-1.77,2.59,2.114,2.328,1.77,2.6S4.257,3.722,2.874,3.722.365,5.354.038,5.081,1.569,3.928,1.569,2.63-.184.442.186.111Z" stroke="none"/>
        <path d="M 5.702334880828857 -4.76837158203125e-07 C 5.741066455841064 -8.106231689453125e-06 5.773231029510498 0.01269197463989258 5.798346996307373 0.04042339324951172 C 6.098057270050049 0.3713431358337402 4.027887344360352 1.332513332366943 4.027887344360352 2.630303144454956 C 4.027887344360352 3.928083419799805 6.142137050628662 4.958543300628662 5.798346996307373 5.231553077697754 C 5.77390193939209 5.25096607208252 5.745087623596191 5.25999641418457 5.712246894836426 5.25999641418457 C 5.283236026763916 5.25999641418457 4.158479690551758 3.722323417663574 2.873977184295654 3.722323417663574 C 1.59790563583374 3.722323417663574 0.5400447845458984 5.112067699432373 0.1280078887939453 5.112067699432373 C 0.09353256225585938 5.112067699432373 0.06361007690429688 5.102351665496826 0.03842735290527344 5.081273078918457 C -0.2877225875854492 4.808263301849365 1.569357395172119 3.928083419799805 1.569357395172119 2.630303144454956 C 1.569357395172119 1.332513332366943 -0.1841325759887695 0.442143440246582 0.1860971450805664 0.1112332344055176 C 0.2182526588439941 0.08249187469482422 0.2542200088500977 0.0693511962890625 0.2939019203186035 0.0693511962890625 C 0.7111077308654785 0.0693511962890625 1.544831275939941 1.519053220748901 2.807567119598389 1.519053220748901 C 4.074514389038086 1.519053220748901 5.27888298034668 8.058547973632813e-05 5.702334880828857 -4.76837158203125e-07 Z" stroke="none" fill="#4dd8d3"/>
      </g>
      <g id="Path_66" data-name="Path 66" transform="matrix(0.799, -0.602, 0.602, 0.799, 582.08, 73.264)" fill="#4dd8d3">
        <path d="M.24.158c.478-.471,1.6,2,3.386,2S7.1-.414,7.489.058,5.2,1.9,5.2,3.746s2.731,3.315,2.287,3.7S5.5,5.3,3.712,5.3.471,7.625.05,7.236s1.977-1.642,1.977-3.49S-.238.63.24.158Z" stroke="none"/>
        <path d="M 7.364967346191406 1.9073486328125e-06 C 7.414991855621338 -8.106231689453125e-06 7.456536293029785 0.01807689666748047 7.488976001739502 0.05756711959838867 C 7.876075744628906 0.5287971496582031 5.202296257019043 1.89752721786499 5.202296257019043 3.745587110519409 C 5.202296257019043 5.593647003173828 7.933005809783936 7.061047077178955 7.488976001739502 7.449817180633545 C 7.45740270614624 7.477460861206055 7.420187473297119 7.490320682525635 7.377771377563477 7.490320682525635 C 6.823673725128174 7.490320682525635 5.370978355407715 5.300647258758545 3.7119460105896 5.300647258758545 C 2.063805103302002 5.300647258758545 0.6975054740905762 7.279661655426025 0.1653375625610352 7.279661655426025 C 0.1208114624023438 7.279661655426025 0.08216047286987305 7.265823841094971 0.04963588714599609 7.235807418823242 C -0.3716139793395996 6.847047328948975 2.026936054229736 5.593647003173828 2.026936054229736 3.745587110519409 C 2.026936054229736 1.89752721786499 -0.2378239631652832 0.6296272277832031 0.2403559684753418 0.1583971977233887 C 0.2818875312805176 0.117469310760498 0.3283400535583496 0.09875726699829102 0.3795924186706543 0.09875726699829102 C 0.9184446334838867 0.09875726699829102 1.99525785446167 2.163156986236572 3.626165866851807 2.163156986236572 C 5.262524604797363 2.163156986236572 6.818047046661377 0.00011444091796875 7.364967346191406 1.9073486328125e-06 Z" stroke="none" fill="#4dd8d3"/>
      </g>
      <g id="Path_67" data-name="Path 67" transform="matrix(0.883, -0.469, 0.469, 0.883, -1.111, 321.632)" fill="#4dd8d3">
        <path d="M.188.12c.374-.356,1.25,1.514,2.646,1.514S5.55-.312,5.852.043,4.065,1.433,4.065,2.829s2.134,2.5,1.787,2.8S4.3,4,2.9,4,.368,5.758.039,5.464s1.545-1.24,1.545-2.636S-.186.475.188.12Z" stroke="none"/>
        <path d="M 5.755181789398193 2.384185791015625e-06 C 5.794272422790527 -5.7220458984375e-06 5.826734066009521 0.01365137100219727 5.852083206176758 0.04347372055053711 C 6.154573440551758 0.3993434906005859 4.065213203430176 1.433003902435303 4.065213203430176 2.828653573989868 C 4.065213203430176 4.224303722381592 6.199053287506104 5.332483768463135 5.852083206176758 5.626073837280273 C 5.82741117477417 5.646949768066406 5.798331260681152 5.656660556793213 5.765186309814453 5.656660556793213 C 5.332196235656738 5.656660556793213 4.197014331817627 4.003033638000488 2.900603294372559 4.003033638000488 C 1.612710475921631 4.003033638000488 0.5450506210327148 5.497573375701904 0.1291975975036621 5.497573375701904 C 0.09440326690673828 5.497573375701904 0.06419897079467773 5.487122535705566 0.03878307342529297 5.46445369720459 C -0.2903866767883301 5.170863628387451 1.583903312683105 4.224303722381592 1.583903312683105 2.828653573989868 C 1.583903312683105 1.433003902435303 -0.1858468055725098 0.4754939079284668 0.1878232955932617 0.1196136474609375 C 0.2202768325805664 0.08870553970336914 0.2565755844116211 0.07457447052001953 0.2966256141662598 0.07457447052001953 C 0.7176971435546875 0.07457447052001953 1.559149742126465 1.633603572845459 2.833583354949951 1.633603572845459 C 4.112276077270508 1.633603572845459 5.327804088592529 9.202957153320313e-05 5.755181789398193 2.384185791015625e-06 Z" stroke="none" fill="#4dd8d3"/>
      </g>
      <g id="Path_70" data-name="Path 70" transform="matrix(0.602, -0.799, 0.799, 0.602, 482.267, 3.615)" fill="#4dd8d3">
        <path d="M.144.1c.287-.283.961,1.2,2.033,1.2S4.265-.248,4.5.035,3.124,1.14,3.124,2.25,4.764,4.241,4.5,4.474,3.3,3.183,2.229,3.183.283,4.579.03,4.346s1.188-.986,1.188-2.1S-.143.378.144.1Z" stroke="none"/>
        <path d="M 4.4232177734375 0 C 4.453261375427246 -6.67572021484375e-06 4.478209972381592 0.01085424423217773 4.497692108154297 0.03457069396972656 C 4.73018217086792 0.3175806999206543 3.124372243881226 1.139611005783081 3.124372243881226 2.249511003494263 C 3.124372243881226 3.359410762786865 4.7643723487854 4.2406907081604 4.497692108154297 4.474180698394775 C 4.478730201721191 4.490782737731934 4.456381320953369 4.498505115509033 4.430907726287842 4.498505115509033 C 4.098132133483887 4.498505115509033 3.225671291351318 3.183440923690796 2.229302167892456 3.183440923690796 C 1.239470958709717 3.183440923690796 0.4189028739929199 4.371987819671631 0.09929752349853516 4.371987819671631 C 0.07255649566650391 4.371987819671631 0.04934549331665039 4.363677978515625 0.02981233596801758 4.345651149749756 C -0.2231879234313965 4.112171173095703 1.217322111129761 3.359410762786865 1.217322111129761 2.249511003494263 C 1.217322111129761 1.139611005783081 -0.1428279876708984 0.378140926361084 0.1443524360656738 0.09513092041015625 C 0.1692948341369629 0.07055044174194336 0.1971931457519531 0.05931234359741211 0.2279739379882813 0.05931234359741211 C 0.5515933036804199 0.05931234359741211 1.198304176330566 1.299140930175781 2.177782297134399 1.299140930175781 C 3.160542726516724 1.299140930175781 4.094753265380859 7.104873657226563e-05 4.4232177734375 0 Z" stroke="none" fill="#4dd8d3"/>
      </g>
      <g id="Path_72" data-name="Path 72" transform="translate(561.196 199.981) rotate(-66)" fill="#4dd8d3">
        <path d="M.148.1c.294-.29.984,1.233,2.083,1.233S4.369-.254,4.607.035,3.2,1.167,3.2,2.3,4.88,4.343,4.607,4.583,3.382,3.261,2.283,3.261.29,4.69.031,4.451,1.247,3.441,1.247,2.3-.146.387.148.1Z" stroke="none"/>
        <path d="M 4.53044605255127 2.384185791015625e-06 C 4.561217784881592 -4.291534423828125e-06 4.586771965026855 0.01111984252929688 4.60672664642334 0.03541135787963867 C 4.844846725463867 0.3252811431884766 3.200116872787476 1.167231321334839 3.200116872787476 2.304041385650635 C 3.200116872787476 3.440851211547852 4.879867076873779 4.343501567840576 4.60672664642334 4.5826416015625 C 4.587305068969727 4.599645614624023 4.564414024353027 4.607555389404297 4.538322448730469 4.607555389404297 C 4.197476863861084 4.607555389404297 3.303876399993896 3.260611534118652 2.283346891403198 3.260611534118652 C 1.269523143768311 3.260611534118652 0.4290575981140137 4.47797679901123 0.1017060279846191 4.47797679901123 C 0.07431650161743164 4.47797679901123 0.05054330825805664 4.469465255737305 0.03053665161132813 4.451001167297363 C -0.2285933494567871 4.211851119995117 1.24683690071106 3.440851211547852 1.24683690071106 2.304041385650635 C 1.24683690071106 1.167231321334839 -0.1462931632995605 0.3873014450073242 0.1478567123413086 0.09743118286132813 C 0.1734037399291992 0.07225513458251953 0.2019782066345215 0.0607447624206543 0.2335047721862793 0.0607447624206543 C 0.5649681091308594 0.0607447624206543 1.227357149124146 1.330631256103516 2.230576753616333 1.330631256103516 C 3.23715877532959 1.330631256103516 4.194015502929688 7.486343383789063e-05 4.53044605255127 2.384185791015625e-06 Z" stroke="none" fill="#4dd8d3"/>
      </g>
      <g id="Path_74" data-name="Path 74" transform="matrix(0.883, -0.469, 0.469, 0.883, 417.307, 185.103)" fill="#4dd8d3">
        <path d="M.188.12c.374-.356,1.25,1.514,2.646,1.514S5.55-.312,5.852.043,4.065,1.433,4.065,2.829s2.134,2.5,1.787,2.8S4.3,4,2.9,4,.368,5.758.039,5.464s1.545-1.24,1.545-2.636S-.186.475.188.12Z" stroke="none"/>
        <path d="M 5.755181789398193 2.384185791015625e-06 C 5.794272422790527 -5.7220458984375e-06 5.826734066009521 0.01365137100219727 5.852083206176758 0.04347372055053711 C 6.154573440551758 0.3993434906005859 4.065213203430176 1.433003902435303 4.065213203430176 2.828653573989868 C 4.065213203430176 4.224303722381592 6.199053287506104 5.332483768463135 5.852083206176758 5.626073837280273 C 5.82741117477417 5.646949768066406 5.798331260681152 5.656660556793213 5.765186309814453 5.656660556793213 C 5.332196235656738 5.656660556793213 4.197014331817627 4.003033638000488 2.900603294372559 4.003033638000488 C 1.612710475921631 4.003033638000488 0.5450506210327148 5.497573375701904 0.1291975975036621 5.497573375701904 C 0.09440326690673828 5.497573375701904 0.06419897079467773 5.487122535705566 0.03878307342529297 5.46445369720459 C -0.2903866767883301 5.170863628387451 1.583903312683105 4.224303722381592 1.583903312683105 2.828653573989868 C 1.583903312683105 1.433003902435303 -0.1858468055725098 0.4754939079284668 0.1878232955932617 0.1196136474609375 C 0.2202768325805664 0.08870553970336914 0.2565755844116211 0.07457447052001953 0.2966256141662598 0.07457447052001953 C 0.7176971435546875 0.07457447052001953 1.559149742126465 1.633603572845459 2.833583354949951 1.633603572845459 C 4.112276077270508 1.633603572845459 5.327804088592529 9.202957153320313e-05 5.755181789398193 2.384185791015625e-06 Z" stroke="none" fill="#4dd8d3"/>
      </g>
      <g id="Path_75" data-name="Path 75" transform="matrix(0.883, -0.469, 0.469, 0.883, 251.679, 330.42)" fill="#4dd8d3">
        <path d="M.188.12c.374-.356,1.25,1.514,2.646,1.514S5.55-.312,5.852.043,4.065,1.433,4.065,2.829s2.134,2.5,1.787,2.8S4.3,4,2.9,4,.368,5.758.039,5.464s1.545-1.24,1.545-2.636S-.186.475.188.12Z" stroke="none"/>
        <path d="M 5.755181789398193 2.384185791015625e-06 C 5.794272422790527 -5.7220458984375e-06 5.826734066009521 0.01365137100219727 5.852083206176758 0.04347372055053711 C 6.154573440551758 0.3993434906005859 4.065213203430176 1.433003902435303 4.065213203430176 2.828653573989868 C 4.065213203430176 4.224303722381592 6.199053287506104 5.332483768463135 5.852083206176758 5.626073837280273 C 5.82741117477417 5.646949768066406 5.798331260681152 5.656660556793213 5.765186309814453 5.656660556793213 C 5.332196235656738 5.656660556793213 4.197014331817627 4.003033638000488 2.900603294372559 4.003033638000488 C 1.612710475921631 4.003033638000488 0.5450506210327148 5.497573375701904 0.1291975975036621 5.497573375701904 C 0.09440326690673828 5.497573375701904 0.06419897079467773 5.487122535705566 0.03878307342529297 5.46445369720459 C -0.2903866767883301 5.170863628387451 1.583903312683105 4.224303722381592 1.583903312683105 2.828653573989868 C 1.583903312683105 1.433003902435303 -0.1858468055725098 0.4754939079284668 0.1878232955932617 0.1196136474609375 C 0.2202768325805664 0.08870553970336914 0.2565755844116211 0.07457447052001953 0.2966256141662598 0.07457447052001953 C 0.7176971435546875 0.07457447052001953 1.559149742126465 1.633603572845459 2.833583354949951 1.633603572845459 C 4.112276077270508 1.633603572845459 5.327804088592529 9.202957153320313e-05 5.755181789398193 2.384185791015625e-06 Z" stroke="none" fill="#4dd8d3"/>
      </g>
      <g id="Path_76" data-name="Path 76" transform="translate(368.468 296.418) rotate(-24)" fill="#4dd8d3">
        <path d="M.24.158c.478-.471,1.6,2,3.386,2S7.1-.414,7.489.058,5.2,1.9,5.2,3.746s2.731,3.315,2.287,3.7S5.5,5.3,3.712,5.3.471,7.625.05,7.236s1.977-1.642,1.977-3.49S-.238.63.24.158Z" stroke="none"/>
        <path d="M 7.364967346191406 1.9073486328125e-06 C 7.414991855621338 -8.106231689453125e-06 7.456536293029785 0.01807689666748047 7.488976001739502 0.05756711959838867 C 7.876075744628906 0.5287971496582031 5.202296257019043 1.89752721786499 5.202296257019043 3.745587110519409 C 5.202296257019043 5.593647003173828 7.933005809783936 7.061047077178955 7.488976001739502 7.449817180633545 C 7.45740270614624 7.477460861206055 7.420187473297119 7.490320682525635 7.377771377563477 7.490320682525635 C 6.823673725128174 7.490320682525635 5.370978355407715 5.300647258758545 3.7119460105896 5.300647258758545 C 2.063805103302002 5.300647258758545 0.6975054740905762 7.279661655426025 0.1653375625610352 7.279661655426025 C 0.1208114624023438 7.279661655426025 0.08216047286987305 7.265823841094971 0.04963588714599609 7.235807418823242 C -0.3716139793395996 6.847047328948975 2.026936054229736 5.593647003173828 2.026936054229736 3.745587110519409 C 2.026936054229736 1.89752721786499 -0.2378239631652832 0.6296272277832031 0.2403559684753418 0.1583971977233887 C 0.2818875312805176 0.117469310760498 0.3283400535583496 0.09875726699829102 0.3795924186706543 0.09875726699829102 C 0.9184446334838867 0.09875726699829102 1.99525785446167 2.163156986236572 3.626165866851807 2.163156986236572 C 5.262524604797363 2.163156986236572 6.818047046661377 0.00011444091796875 7.364967346191406 1.9073486328125e-06 Z" stroke="none" fill="#4dd8d3"/>
      </g>
      <g id="Path_125" data-name="Path 125" transform="translate(601.9 267.23) rotate(-66)" fill="#4dd8d3">
        <path d="M.24.158c.478-.471,1.6,2,3.386,2S7.1-.414,7.489.058,5.2,1.9,5.2,3.746s2.731,3.315,2.287,3.7S5.5,5.3,3.712,5.3.471,7.625.05,7.236s1.977-1.642,1.977-3.49S-.238.63.24.158Z" stroke="none"/>
        <path d="M 7.364967346191406 1.9073486328125e-06 C 7.414991855621338 -8.106231689453125e-06 7.456536293029785 0.01807689666748047 7.488976001739502 0.05756711959838867 C 7.876075744628906 0.5287971496582031 5.202296257019043 1.89752721786499 5.202296257019043 3.745587110519409 C 5.202296257019043 5.593647003173828 7.933005809783936 7.061047077178955 7.488976001739502 7.449817180633545 C 7.45740270614624 7.477460861206055 7.420187473297119 7.490320682525635 7.377771377563477 7.490320682525635 C 6.823673725128174 7.490320682525635 5.370978355407715 5.300647258758545 3.7119460105896 5.300647258758545 C 2.063805103302002 5.300647258758545 0.6975054740905762 7.279661655426025 0.1653375625610352 7.279661655426025 C 0.1208114624023438 7.279661655426025 0.08216047286987305 7.265823841094971 0.04963588714599609 7.235807418823242 C -0.3716139793395996 6.847047328948975 2.026936054229736 5.593647003173828 2.026936054229736 3.745587110519409 C 2.026936054229736 1.89752721786499 -0.2378239631652832 0.6296272277832031 0.2403559684753418 0.1583971977233887 C 0.2818875312805176 0.117469310760498 0.3283400535583496 0.09875726699829102 0.3795924186706543 0.09875726699829102 C 0.9184446334838867 0.09875726699829102 1.99525785446167 2.163156986236572 3.626165866851807 2.163156986236572 C 5.262524604797363 2.163156986236572 6.818047046661377 0.00011444091796875 7.364967346191406 1.9073486328125e-06 Z" stroke="none" fill="#4dd8d3"/>
      </g>
    </g>
    <g id="STAR_2" data-name="STAR 2" transform="translate(12.856 44.885)">
      <g id="Path_46" data-name="Path 46" transform="translate(328.736 23.082) rotate(-109)" fill="#4dd8d3">
        <path d="M.264,7.779c.525.5,1.756-2.127,3.717-2.127S7.8,8.386,8.222,7.886s-2.51-1.952-2.51-3.913,3-3.518,2.51-3.93-2.186,2.28-4.147,2.28S.517-.142.054.27s2.171,1.742,2.171,3.7S-.261,7.279.264,7.779Z" stroke="none"/>
        <path d="M 8.085746765136719 7.947345733642578 C 7.485305786132813 7.947345733642578 5.777548789978027 5.652210712432861 3.981048107147217 5.652210712432861 C 2.190522193908691 5.652210712432861 1.008329510688782 7.842751502990723 0.4167411923408508 7.842569351196289 C 0.3604728877544403 7.842551708221436 0.3094742894172668 7.822715759277344 0.26387819647789 7.779290676116943 C -0.2611018121242523 7.279310703277588 2.225298166275024 5.934041023254395 2.225298166275024 3.973220825195313 C 2.225298166275024 2.01240086555481 -0.407981812953949 0.6825308799743652 0.05449818447232246 0.2700408697128296 C 0.09020525217056274 0.2381935119628906 0.1326355785131454 0.2235124409198761 0.1815190762281418 0.2235124409198761 C 0.7657639980316162 0.2235124409198761 2.265782833099365 2.323270797729492 4.075218200683594 2.323270797729492 C 5.896612167358398 2.323270797729492 7.491483211517334 -1.858062773862912e-06 8.099812507629395 -1.858062773862912e-06 C 8.146379470825195 -1.858062773862912e-06 8.187234878540039 0.01364109106361866 8.221898078918457 0.04297087714076042 C 8.709378242492676 0.4554608762264252 5.711428165435791 2.012390851974487 5.711428165435791 3.973220825195313 C 5.711428165435791 5.934041023254395 8.646878242492676 7.386291027069092 8.221888542175293 7.886270999908447 C 8.186274528503418 7.928169727325439 8.140666961669922 7.947345733642578 8.085746765136719 7.947345733642578 Z" stroke="none" fill="#4dd8d3"/>
      </g>
      <g id="Path_47" data-name="Path 47" transform="translate(223.281 10.237) rotate(-107)" fill="#4dd8d3">
        <path d="M.264,7.779c.525.5,1.756-2.127,3.717-2.127S7.8,8.386,8.222,7.886s-2.51-1.952-2.51-3.913,3-3.518,2.51-3.93-2.186,2.28-4.147,2.28S.517-.142.054.27s2.171,1.742,2.171,3.7S-.261,7.279.264,7.779Z" stroke="none"/>
        <path d="M 8.085747718811035 7.947346210479736 C 7.485306262969971 7.947346210479736 5.777548789978027 5.652202129364014 3.981048107147217 5.65221118927002 C 2.190522193908691 5.65221118927002 1.008329510688782 7.842751979827881 0.4167411923408508 7.842569828033447 C 0.3604728877544403 7.842552185058594 0.3094742894172668 7.822716236114502 0.26387819647789 7.779291152954102 C -0.2611018121242523 7.279311180114746 2.225298166275024 5.934041500091553 2.225298166275024 3.973221302032471 C 2.225298166275024 2.012391328811646 -0.407981812953949 0.6825313568115234 0.05449818447232246 0.2700413465499878 C 0.09020525217056274 0.2381932139396667 0.1326383054256439 0.2235109657049179 0.1815218180418015 0.2235109657049179 C 0.7657666802406311 0.2235109657049179 2.265782833099365 2.32327127456665 4.075218200683594 2.32327127456665 C 5.896612167358398 2.32327127456665 7.491483211517334 -1.381225615659787e-06 8.099812507629395 -1.381225615659787e-06 C 8.146379470825195 -1.381225615659787e-06 8.187234878540039 0.01364156790077686 8.221898078918457 0.04297135397791862 C 8.709378242492676 0.4554613530635834 5.711428165435791 2.012391328811646 5.711428165435791 3.973221302032471 C 5.711428165435791 5.934041500091553 8.646878242492676 7.38629150390625 8.221888542175293 7.886271476745605 C 8.186274528503418 7.928170204162598 8.140667915344238 7.947346210479736 8.085747718811035 7.947346210479736 Z" stroke="none" fill="#4dd8d3"/>
      </g>
      <g id="Path_48" data-name="Path 48" transform="matrix(-0.951, -0.309, 0.309, -0.951, 123.69, 22.522)" fill="#4dd8d3">
        <path d="M.264,7.779c.525.5,1.756-2.127,3.717-2.127S7.8,8.386,8.222,7.886s-2.51-1.952-2.51-3.913,3-3.518,2.51-3.93-2.186,2.28-4.147,2.28S.517-.142.054.27s2.171,1.742,2.171,3.7S-.261,7.279.264,7.779Z" stroke="none"/>
        <path d="M 8.085759162902832 7.947341918945313 C 7.485310077667236 7.947341918945313 5.777552604675293 5.652196884155273 3.981051921844482 5.652196884155273 C 2.190526008605957 5.652196884155273 1.0083327293396 7.842746257781982 0.4167444109916687 7.842565059661865 C 0.3604761064052582 7.84254789352417 0.3094781041145325 7.822711944580078 0.2638820111751556 7.779286861419678 C -0.2610979974269867 7.279296875 2.22530198097229 5.934037208557129 2.22530198097229 3.973217010498047 C 2.22530198097229 2.012397050857544 -0.4079880118370056 0.6825270652770996 0.05449200049042702 0.270037055015564 C 0.09019983559846878 0.238189697265625 0.1326303333044052 0.223508819937706 0.1815145015716553 0.223508819937706 C 0.7657672166824341 0.223508819937706 2.265786647796631 2.323276996612549 4.075222015380859 2.323276996612549 C 5.896615982055664 2.323267698287964 7.49148416519165 2.374114956182893e-06 8.099813461303711 2.374114956182893e-06 C 8.146380424499512 2.374114956182893e-06 8.187238693237305 0.01364656537771225 8.221901893615723 0.04297706112265587 C 8.709391593933105 0.4554570615291595 5.711431980133057 2.012397050857544 5.711431980133057 3.973217010498047 C 5.711431980133057 5.934037208557129 8.646882057189941 7.386277198791504 8.221901893615723 7.886267185211182 C 8.186286926269531 7.928165912628174 8.140680313110352 7.947341918945313 8.085759162902832 7.947341918945313 Z" stroke="none" fill="#4dd8d3"/>
      </g>
      <g id="Path_49" data-name="Path 49" transform="matrix(-0.616, -0.788, 0.788, -0.616, 84.151, 108.009)" fill="#4dd8d3">
        <path d="M.194,5.063c.385.325,1.288-1.384,2.726-1.384s2.8,1.779,3.11,1.454S4.189,3.862,4.189,2.586,6.388.3,6.03.028s-1.6,1.484-3.041,1.484S.379-.093.04.176,1.632,1.31,1.632,2.586-.192,4.737.194,5.063Z" stroke="none"/>
        <path d="M 5.930472850799561 5.17189884185791 C 5.490073680877686 5.17189884185791 4.237529754638672 3.678291320800781 2.919889450073242 3.678291320800781 C 1.606637954711914 3.678291320800781 0.7395591735839844 5.103836536407471 0.3056563138961792 5.103720188140869 C 0.2643860876560211 5.10370922088623 0.2269821465015411 5.090800762176514 0.1935393959283829 5.062541007995605 C -0.1915006041526794 4.737161159515381 1.632139444351196 3.861701250076294 1.632139444351196 2.585661172866821 C 1.632139444351196 1.309611201286316 -0.2992306053638458 0.4441712498664856 0.03996939212083817 0.1757412403821945 C 0.06615884602069855 0.1550151258707047 0.09728270024061203 0.1454598754644394 0.1331364214420319 0.1454598754644394 C 0.5616521835327148 0.1454598754644394 1.661839008331299 1.511921286582947 2.988959312438965 1.511921286582947 C 4.324857711791992 1.511921286582947 5.494604110717773 3.971023488702485e-06 5.94078254699707 3.971023488702485e-06 C 5.974936962127686 3.971023488702485e-06 6.004905223846436 0.008883553557097912 6.03032922744751 0.02797123603522778 C 6.387869358062744 0.2964012324810028 4.189029216766357 1.309611201286316 4.189029216766357 2.585651159286499 C 4.189029216766357 3.861701250076294 6.342029571533203 4.80678129196167 6.03032922744751 5.132151126861572 C 6.004207611083984 5.15941858291626 5.970754623413086 5.17189884185791 5.930472850799561 5.17189884185791 Z" stroke="none" fill="#4dd8d3"/>
      </g>
      <g id="Path_50" data-name="Path 50" transform="matrix(-0.454, -0.891, 0.891, -0.454, 210.126, 248.835)" fill="#4dd8d3">
        <path d="M.264,7.779c.525.5,1.756-2.127,3.717-2.127S7.8,8.386,8.222,7.886s-2.51-1.952-2.51-3.913,3-3.518,2.51-3.93-2.186,2.28-4.147,2.28S.517-.142.054.27s2.171,1.742,2.171,3.7S-.261,7.279.264,7.779Z" stroke="none"/>
        <path d="M 8.085748672485352 7.94734525680542 C 7.485306739807129 7.94734525680542 5.777549266815186 5.652201175689697 3.981048583984375 5.652210235595703 C 2.19052267074585 5.652210235595703 1.00832998752594 7.842751026153564 0.416741669178009 7.842568874359131 C 0.3604733645915985 7.842551231384277 0.309474766254425 7.822715282440186 0.2638786733150482 7.779290199279785 C -0.2611013352870941 7.27931022644043 2.225298643112183 5.934040546417236 2.225298643112183 3.973220348358154 C 2.225298643112183 2.012400388717651 -0.4079813361167908 0.682530403137207 0.0544886626303196 0.2700403928756714 C 0.09019649773836136 0.2381930351257324 0.1326269954442978 0.2235121577978134 0.1815111637115479 0.2235121577978134 C 0.7657638788223267 0.2235121577978134 2.265783309936523 2.323279619216919 4.075218677520752 2.323270320892334 C 5.896612644195557 2.323270320892334 7.491483688354492 -2.334899818379199e-06 8.099813461303711 -2.334899818379199e-06 C 8.146380424499512 -2.334899818379199e-06 8.187234878540039 0.01364061422646046 8.221899032592773 0.04297040030360222 C 8.709378242492676 0.455460399389267 5.711428642272949 2.012390375137329 5.711428642272949 3.973220348358154 C 5.711428642272949 5.934040546417236 8.646878242492676 7.386290550231934 8.221888542175293 7.886270523071289 C 8.186274528503418 7.928169250488281 8.140667915344238 7.94734525680542 8.085748672485352 7.94734525680542 Z" stroke="none" fill="#4dd8d3"/>
      </g>
      <g id="Path_51" data-name="Path 51" transform="translate(230.134 91.08) rotate(-103)" fill="#4dd8d3">
        <path d="M.2,5.894c.4.379,1.331-1.612,2.816-1.612S5.908,6.354,6.23,5.975,4.327,4.5,4.327,3.01,6.6.345,6.23.033,4.573,1.76,3.088,1.76.392-.108.041.2,1.686,1.525,1.686,3.01-.2,5.515.2,5.894Z" stroke="none"/>
        <path d="M 6.126399517059326 6.021533012390137 C 5.671449184417725 6.021533012390137 4.377523422241211 4.282556533813477 3.016354560852051 4.282556533813477 C 1.659719586372375 4.282556533813477 0.7639957666397095 5.94228458404541 0.3157583177089691 5.942142486572266 C 0.2731246650218964 5.942128658294678 0.2344821244478226 5.927098751068115 0.1999346017837524 5.894196510314941 C -0.1978254020214081 5.515376567840576 1.686064600944519 4.496096611022949 1.686064600944519 3.01042652130127 C 1.686064600944519 1.524746417999268 -0.3091253936290741 0.5171364545822144 0.04128459841012955 0.2046064436435699 C 0.06833957135677338 0.1804761737585068 0.1004892960190773 0.1693523377180099 0.13752780854702 0.1693523377180099 C 0.5802038311958313 0.1693523377180099 1.716742396354675 1.76029646396637 3.087704658508301 1.76029646396637 C 4.467734813690186 1.76029646396637 5.676135063171387 -3.475799530860968e-06 6.137052536010742 -3.475799530860968e-06 C 6.172335624694824 -3.475799530860968e-06 6.203290939331055 0.01033370103687048 6.229554653167725 0.0325564444065094 C 6.598914623260498 0.3450964391231537 4.3274245262146 1.524746417999268 4.3274245262146 3.01042652130127 C 4.3274245262146 4.496096611022949 6.551554679870605 5.596426486968994 6.229554653167725 5.975256443023682 C 6.202569961547852 6.007002830505371 6.168012142181396 6.021533012390137 6.126399517059326 6.021533012390137 Z" stroke="none" fill="#4dd8d3"/>
      </g>
      <g id="Path_52" data-name="Path 52" transform="matrix(-0.914, -0.407, 0.407, -0.914, 143.26, 327.232)" fill="#4dd8d3">
        <path d="M.338,10.3c.672.662,2.248-2.817,4.757-2.817s4.883,3.62,5.427,2.958S7.309,7.858,7.309,5.261,11.146.6,10.522.057s-2.8,3.019-5.307,3.019S.662-.189.07.358s2.778,2.307,2.778,4.9S-.334,9.639.338,10.3Z" stroke="none"/>
        <path d="M 10.34743785858154 10.5235424041748 C 9.579038619995117 10.5235424041748 7.393600463867188 7.484418392181396 5.094592094421387 7.484418392181396 C 2.803241729736328 7.484418392181396 1.290371775627136 10.38504695892334 0.5333110690116882 10.38480758666992 C 0.4613039791584015 10.38478565216064 0.3960418403148651 10.35851955413818 0.3376922607421875 10.30101871490479 C -0.3341377377510071 9.638957977294922 2.847742319107056 7.85761833190918 2.847742319107056 5.261178493499756 C 2.847742319107056 2.664728164672852 -0.522107720375061 0.9037782549858093 0.06973224878311157 0.3575782775878906 C 0.1154279038310051 0.31540647149086 0.1697298437356949 0.2959652245044708 0.2322874516248703 0.2959652245044708 C 0.9799620509147644 0.2959652245044708 2.899553298950195 3.076388359069824 5.215102195739746 3.076388359069824 C 7.545966625213623 3.076379060745239 9.586944580078125 3.43322744811303e-06 10.36543369293213 3.43322744811303e-06 C 10.42502689361572 3.43322744811303e-06 10.47731304168701 0.01807020232081413 10.52167224884033 0.05690827593207359 C 11.14551258087158 0.6030982732772827 7.308992385864258 2.664728164672852 7.308992385864258 5.261168479919434 C 7.308992385864258 7.85761833190918 11.06552219390869 9.780618667602539 10.52166271209717 10.44266796112061 C 10.4760856628418 10.49814987182617 10.41771984100342 10.5235424041748 10.34743785858154 10.5235424041748 Z" stroke="none" fill="#4dd8d3"/>
      </g>
      <g id="Path_53" data-name="Path 53" transform="matrix(-0.951, -0.309, 0.309, -0.951, 7.87, 59.56)" fill="#4dd8d3">
        <path d="M.264,7.779c.525.5,1.756-2.127,3.717-2.127S7.8,8.386,8.222,7.886s-2.51-1.952-2.51-3.913,3-3.518,2.51-3.93-2.186,2.28-4.147,2.28S.517-.142.054.27s2.171,1.742,2.171,3.7S-.261,7.279.264,7.779Z" stroke="none"/>
        <path d="M 8.085759162902832 7.947341918945313 C 7.485310077667236 7.947341918945313 5.777552604675293 5.652196884155273 3.981051921844482 5.652196884155273 C 2.190526008605957 5.652196884155273 1.0083327293396 7.842746257781982 0.4167444109916687 7.842565059661865 C 0.3604761064052582 7.84254789352417 0.3094781041145325 7.822711944580078 0.2638820111751556 7.779286861419678 C -0.2610979974269867 7.279296875 2.22530198097229 5.934037208557129 2.22530198097229 3.973217010498047 C 2.22530198097229 2.012397050857544 -0.4079880118370056 0.6825270652770996 0.05449200049042702 0.270037055015564 C 0.09019983559846878 0.238189697265625 0.1326303333044052 0.223508819937706 0.1815145015716553 0.223508819937706 C 0.7657672166824341 0.223508819937706 2.265786647796631 2.323276996612549 4.075222015380859 2.323276996612549 C 5.896615982055664 2.323267698287964 7.49148416519165 2.374114956182893e-06 8.099813461303711 2.374114956182893e-06 C 8.146380424499512 2.374114956182893e-06 8.187238693237305 0.01364656537771225 8.221901893615723 0.04297706112265587 C 8.709391593933105 0.4554570615291595 5.711431980133057 2.012397050857544 5.711431980133057 3.973217010498047 C 5.711431980133057 5.934037208557129 8.646882057189941 7.386277198791504 8.221901893615723 7.886267185211182 C 8.186286926269531 7.928165912628174 8.140680313110352 7.947341918945313 8.085759162902832 7.947341918945313 Z" stroke="none" fill="#4dd8d3"/>
      </g>
      <g id="Path_55" data-name="Path 55" transform="translate(303.452 109.004) rotate(-107)" fill="#4dd8d3">
        <path d="M.264,7.779c.525.5,1.756-2.127,3.717-2.127S7.8,8.386,8.222,7.886s-2.51-1.952-2.51-3.913,3-3.518,2.51-3.93-2.186,2.28-4.147,2.28S.517-.142.054.27s2.171,1.742,2.171,3.7S-.261,7.279.264,7.779Z" stroke="none"/>
        <path d="M 8.085747718811035 7.947346210479736 C 7.485306262969971 7.947346210479736 5.777548789978027 5.652202129364014 3.981048107147217 5.65221118927002 C 2.190522193908691 5.65221118927002 1.008329510688782 7.842751979827881 0.4167411923408508 7.842569828033447 C 0.3604728877544403 7.842552185058594 0.3094742894172668 7.822716236114502 0.26387819647789 7.779291152954102 C -0.2611018121242523 7.279311180114746 2.225298166275024 5.934041500091553 2.225298166275024 3.973221302032471 C 2.225298166275024 2.012391328811646 -0.407981812953949 0.6825313568115234 0.05449818447232246 0.2700413465499878 C 0.09020525217056274 0.2381932139396667 0.1326383054256439 0.2235109657049179 0.1815218180418015 0.2235109657049179 C 0.7657666802406311 0.2235109657049179 2.265782833099365 2.32327127456665 4.075218200683594 2.32327127456665 C 5.896612167358398 2.32327127456665 7.491483211517334 -1.381225615659787e-06 8.099812507629395 -1.381225615659787e-06 C 8.146379470825195 -1.381225615659787e-06 8.187234878540039 0.01364156790077686 8.221898078918457 0.04297135397791862 C 8.709378242492676 0.4554613530635834 5.711428165435791 2.012391328811646 5.711428165435791 3.973221302032471 C 5.711428165435791 5.934041500091553 8.646878242492676 7.38629150390625 8.221888542175293 7.886271476745605 C 8.186274528503418 7.928170204162598 8.140667915344238 7.947346210479736 8.085747718811035 7.947346210479736 Z" stroke="none" fill="#4dd8d3"/>
      </g>
      <g id="Path_56" data-name="Path 56" transform="translate(333.029 232.463) rotate(-107)" fill="#4dd8d3">
        <path d="M.264,7.779c.525.5,1.756-2.127,3.717-2.127S7.8,8.386,8.222,7.886s-2.51-1.952-2.51-3.913,3-3.518,2.51-3.93-2.186,2.28-4.147,2.28S.517-.142.054.27s2.171,1.742,2.171,3.7S-.261,7.279.264,7.779Z" stroke="none"/>
        <path d="M 8.085747718811035 7.947346210479736 C 7.485306262969971 7.947346210479736 5.777548789978027 5.652202129364014 3.981048107147217 5.65221118927002 C 2.190522193908691 5.65221118927002 1.008329510688782 7.842751979827881 0.4167411923408508 7.842569828033447 C 0.3604728877544403 7.842552185058594 0.3094742894172668 7.822716236114502 0.26387819647789 7.779291152954102 C -0.2611018121242523 7.279311180114746 2.225298166275024 5.934041500091553 2.225298166275024 3.973221302032471 C 2.225298166275024 2.012391328811646 -0.407981812953949 0.6825313568115234 0.05449818447232246 0.2700413465499878 C 0.09020525217056274 0.2381932139396667 0.1326383054256439 0.2235109657049179 0.1815218180418015 0.2235109657049179 C 0.7657666802406311 0.2235109657049179 2.265782833099365 2.32327127456665 4.075218200683594 2.32327127456665 C 5.896612167358398 2.32327127456665 7.491483211517334 -1.381225615659787e-06 8.099812507629395 -1.381225615659787e-06 C 8.146379470825195 -1.381225615659787e-06 8.187234878540039 0.01364156790077686 8.221898078918457 0.04297135397791862 C 8.709378242492676 0.4554613530635834 5.711428165435791 2.012391328811646 5.711428165435791 3.973221302032471 C 5.711428165435791 5.934041500091553 8.646878242492676 7.38629150390625 8.221888542175293 7.886271476745605 C 8.186274528503418 7.928170204162598 8.140667915344238 7.947346210479736 8.085747718811035 7.947346210479736 Z" stroke="none" fill="#4dd8d3"/>
      </g>
      <g id="Path_57" data-name="Path 57" transform="translate(274.645 327.115) rotate(-107)" fill="#4dd8d3">
        <path d="M.264,7.779c.525.5,1.756-2.127,3.717-2.127S7.8,8.386,8.222,7.886s-2.51-1.952-2.51-3.913,3-3.518,2.51-3.93-2.186,2.28-4.147,2.28S.517-.142.054.27s2.171,1.742,2.171,3.7S-.261,7.279.264,7.779Z" stroke="none"/>
        <path d="M 8.085747718811035 7.947346210479736 C 7.485306262969971 7.947346210479736 5.777548789978027 5.652202129364014 3.981048107147217 5.65221118927002 C 2.190522193908691 5.65221118927002 1.008329510688782 7.842751979827881 0.4167411923408508 7.842569828033447 C 0.3604728877544403 7.842552185058594 0.3094742894172668 7.822716236114502 0.26387819647789 7.779291152954102 C -0.2611018121242523 7.279311180114746 2.225298166275024 5.934041500091553 2.225298166275024 3.973221302032471 C 2.225298166275024 2.012391328811646 -0.407981812953949 0.6825313568115234 0.05449818447232246 0.2700413465499878 C 0.09020525217056274 0.2381932139396667 0.1326383054256439 0.2235109657049179 0.1815218180418015 0.2235109657049179 C 0.7657666802406311 0.2235109657049179 2.265782833099365 2.32327127456665 4.075218200683594 2.32327127456665 C 5.896612167358398 2.32327127456665 7.491483211517334 -1.381225615659787e-06 8.099812507629395 -1.381225615659787e-06 C 8.146379470825195 -1.381225615659787e-06 8.187234878540039 0.01364156790077686 8.221898078918457 0.04297135397791862 C 8.709378242492676 0.4554613530635834 5.711428165435791 2.012391328811646 5.711428165435791 3.973221302032471 C 5.711428165435791 5.934041500091553 8.646878242492676 7.38629150390625 8.221888542175293 7.886271476745605 C 8.186274528503418 7.928170204162598 8.140667915344238 7.947346210479736 8.085747718811035 7.947346210479736 Z" stroke="none" fill="#4dd8d3"/>
      </g>
      <g id="Path_108" data-name="Path 108" transform="matrix(-0.454, -0.891, 0.891, -0.454, 164.126, 162.835)" fill="#4dd8d3">
        <path d="M.264,7.779c.525.5,1.756-2.127,3.717-2.127S7.8,8.386,8.222,7.886s-2.51-1.952-2.51-3.913,3-3.518,2.51-3.93-2.186,2.28-4.147,2.28S.517-.142.054.27s2.171,1.742,2.171,3.7S-.261,7.279.264,7.779Z" stroke="none"/>
        <path d="M 8.085748672485352 7.94734525680542 C 7.485306739807129 7.94734525680542 5.777549266815186 5.652201175689697 3.981048583984375 5.652210235595703 C 2.19052267074585 5.652210235595703 1.00832998752594 7.842751026153564 0.416741669178009 7.842568874359131 C 0.3604733645915985 7.842551231384277 0.309474766254425 7.822715282440186 0.2638786733150482 7.779290199279785 C -0.2611013352870941 7.27931022644043 2.225298643112183 5.934040546417236 2.225298643112183 3.973220348358154 C 2.225298643112183 2.012400388717651 -0.4079813361167908 0.682530403137207 0.0544886626303196 0.2700403928756714 C 0.09019649773836136 0.2381930351257324 0.1326269954442978 0.2235121577978134 0.1815111637115479 0.2235121577978134 C 0.7657638788223267 0.2235121577978134 2.265783309936523 2.323279619216919 4.075218677520752 2.323270320892334 C 5.896612644195557 2.323270320892334 7.491483688354492 -2.334899818379199e-06 8.099813461303711 -2.334899818379199e-06 C 8.146380424499512 -2.334899818379199e-06 8.187234878540039 0.01364061422646046 8.221899032592773 0.04297040030360222 C 8.709378242492676 0.455460399389267 5.711428642272949 2.012390375137329 5.711428642272949 3.973220348358154 C 5.711428642272949 5.934040546417236 8.646878242492676 7.386290550231934 8.221888542175293 7.886270523071289 C 8.186274528503418 7.928169250488281 8.140667915344238 7.94734525680542 8.085748672485352 7.94734525680542 Z" stroke="none" fill="#4dd8d3"/>
      </g>
    </g>
  </g>
</svg>
